# MagicaVoxel @ Ephtracy

# group
g HC_Commerce_Neutral

# material
mtllib HC_Commerce_Neutral.mtl
usemtl palette

# normals
vn -1 0 0
vn 1 0 0
vn 0 0 1
vn 0 0 -1
vn 0 -1 0
vn 0 1 0

# texcoords
vt 0.0917969 0.5
vt 0.162109 0.5
vt 0.748047 0.5
vt 0.849609 0.5
vt 0.853516 0.5
vt 0.892578 0.5
vt 0.896484 0.5
vt 0.958984 0.5
vt 0.974609 0.5
vt 0.978516 0.5
vt 0.986328 0.5

# verts
v -5 0 5
v -5 0 -5
v -5 1 5
v -5 1 -1
v -5 1 -2
v -5 1 -5
v -5 2 -1
v -5 2 -2
v -4 1 3
v -4 1 2
v -4 1 1
v -4 1 -0
v -4 1 -3
v -4 1 -4
v -4 2 -3
v -4 2 -4
v -4 3 3
v -4 3 2
v -4 3 1
v -4 3 -0
v -4 4 3
v -4 4 -0
v -3 1 5
v -3 1 4
v -3 1 2
v -3 1 1
v -3 2 5
v -3 2 4
v -3 3 2
v -3 3 1
v -3 4 1
v -3 4 -0
v -3 5 1
v -3 5 -0
v 0 1 5
v 0 1 4
v 0 2 5
v 0 2 4
v 1 1 3
v 1 1 2
v 1 1 1
v 1 1 -0
v 1 1 -1
v 1 1 -2
v 1 1 -3
v 1 2 2
v 1 2 1
v 1 2 -0
v 1 2 -1
v 1 2 -2
v 1 2 -3
v 1 4 3
v 1 4 -2
v 2 1 2
v 2 1 1
v 2 2 2
v 2 2 1
v 2 4 2
v 2 4 1
v 2 4 -0
v 2 4 -1
v 2 5 2
v 2 5 1
v 2 5 -0
v 2 6 1
v 2 6 -0
v 2 7 2
v 2 7 1
v 2 7 -0
v 2 7 -1
v 3 1 -3
v 3 1 -4
v 3 2 -3
v 3 2 -4
v -4 1 -1
v -4 1 -2
v -4 2 -1
v -4 2 -2
v -3 1 -3
v -3 1 -4
v -3 2 -3
v -3 2 -4
v -2 1 5
v -2 1 4
v -2 2 5
v -2 2 4
v -2 4 1
v -2 4 -0
v -2 5 1
v -2 5 -0
v -1 1 3
v -1 1 2
v -1 1 1
v -1 1 -0
v -1 3 3
v -1 3 -0
v -1 4 3
v -1 4 -0
v 1 1 5
v 1 1 4
v 1 2 5
v 1 2 4
v 2 1 -2
v 2 1 -3
v 2 2 -2
v 2 2 -3
v 3 4 2
v 3 4 1
v 3 4 -0
v 3 4 -1
v 3 5 2
v 3 5 1
v 3 5 -0
v 3 6 1
v 3 6 -0
v 3 7 2
v 3 7 1
v 3 7 -0
v 3 7 -1
v 4 1 3
v 4 1 -2
v 4 1 -3
v 4 1 -4
v 4 2 -3
v 4 2 -4
v 4 4 3
v 4 4 -2
v 5 0 5
v 5 0 -5
v 5 1 5
v 5 1 -5
v -5 0 5
v -5 1 5
v -3 1 5
v -3 2 5
v -2 1 5
v -2 2 5
v 0 1 5
v 0 2 5
v 1 1 5
v 1 2 5
v 5 0 5
v 5 1 5
v -4 1 3
v -4 3 3
v -4 4 3
v -3 1 3
v -2 1 3
v -1 1 3
v -1 3 3
v -1 4 3
v 1 1 3
v 1 4 3
v 2 1 3
v 3 1 3
v 4 1 3
v 4 4 3
v 2 4 2
v 2 5 2
v 2 7 2
v 3 4 2
v 3 5 2
v 3 7 2
v -4 1 1
v -4 3 1
v -3 1 1
v -3 3 1
v -3 4 1
v -3 5 1
v -2 4 1
v -2 5 1
v 1 1 1
v 1 2 1
v 2 1 1
v 2 2 1
v 2 4 -0
v 2 5 -0
v 2 6 -0
v 2 7 -0
v 3 4 -0
v 3 5 -0
v 3 6 -0
v 3 7 -0
v -5 1 -1
v -5 2 -1
v -4 1 -1
v -4 2 -1
v -4 1 -3
v -4 2 -3
v -3 1 -3
v -3 2 -3
v 3 1 -3
v 3 2 -3
v 4 1 -3
v 4 2 -3
v -3 1 4
v -3 2 4
v -2 1 4
v -2 2 4
v 0 1 4
v 0 2 4
v 1 1 4
v 1 2 4
v -4 1 2
v -4 3 2
v -3 1 2
v -3 3 2
v 1 1 2
v 1 2 2
v 2 1 2
v 2 2 2
v 2 4 1
v 2 5 1
v 2 6 1
v 2 7 1
v 3 4 1
v 3 5 1
v 3 6 1
v 3 7 1
v -4 1 -0
v -4 3 -0
v -4 4 -0
v -3 1 -0
v -3 2 -0
v -3 4 -0
v -3 5 -0
v -2 1 -0
v -2 2 -0
v -2 4 -0
v -2 5 -0
v -1 1 -0
v -1 3 -0
v -1 4 -0
v 2 4 -1
v 2 7 -1
v 3 4 -1
v 3 7 -1
v -5 1 -2
v -5 2 -2
v -4 1 -2
v -4 2 -2
v 1 2 -2
v 1 4 -2
v 2 1 -2
v 2 2 -2
v 3 1 -2
v 4 1 -2
v 4 4 -2
v 1 1 -3
v 1 2 -3
v 2 1 -3
v 2 2 -3
v -4 1 -4
v -4 2 -4
v -3 1 -4
v -3 2 -4
v 3 1 -4
v 3 2 -4
v 4 1 -4
v 4 2 -4
v -5 0 -5
v -5 1 -5
v 5 0 -5
v 5 1 -5
v -5 0 5
v 5 0 5
v -4 0 4
v -3 0 4
v -2 0 4
v -1 0 4
v 0 0 4
v 1 0 4
v 2 0 4
v 3 0 4
v 4 0 4
v -4 0 3
v -3 0 3
v -2 0 3
v -1 0 3
v 0 0 3
v 1 0 3
v 2 0 3
v 3 0 3
v 4 0 3
v -4 0 2
v -3 0 2
v -2 0 2
v -1 0 2
v 0 0 2
v 1 0 2
v 2 0 2
v 3 0 2
v 4 0 2
v -4 0 1
v -3 0 1
v -2 0 1
v -1 0 1
v 0 0 1
v 1 0 1
v 2 0 1
v 3 0 1
v 4 0 1
v -4 0 -0
v -3 0 -0
v -2 0 -0
v -1 0 -0
v 1 0 -0
v 2 0 -0
v 3 0 -0
v 4 0 -0
v -4 0 -1
v -3 0 -1
v 1 0 -1
v 2 0 -1
v 3 0 -1
v 4 0 -1
v -4 0 -2
v -3 0 -2
v 1 0 -2
v 2 0 -2
v 3 0 -2
v 4 0 -2
v -4 0 -3
v -3 0 -3
v 1 0 -3
v 2 0 -3
v 3 0 -3
v 4 0 -3
v -4 0 -4
v -3 0 -4
v 1 0 -4
v 2 0 -4
v 3 0 -4
v 4 0 -4
v -5 0 -5
v 5 0 -5
v 1 2 2
v 2 2 2
v 1 2 1
v 2 2 1
v -4 3 2
v -3 3 2
v -4 3 1
v -3 3 1
v 2 5 1
v 3 5 1
v 2 5 -0
v 3 5 -0
v -5 1 5
v -3 1 5
v -2 1 5
v 0 1 5
v 1 1 5
v 5 1 5
v -4 1 4
v -3 1 4
v -2 1 4
v -1 1 4
v 0 1 4
v 1 1 4
v 2 1 4
v 3 1 4
v 4 1 4
v -4 1 3
v -3 1 3
v -2 1 3
v -1 1 3
v 0 1 3
v 1 1 3
v 2 1 3
v 3 1 3
v 4 1 3
v -4 1 2
v -3 1 2
v -1 1 2
v 0 1 2
v 1 1 2
v 2 1 2
v -4 1 1
v -3 1 1
v -1 1 1
v 0 1 1
v 1 1 1
v 2 1 1
v -4 1 -0
v -3 1 -0
v -2 1 -0
v -1 1 -0
v 1 1 -0
v -5 1 -1
v -4 1 -1
v -3 1 -1
v 1 1 -1
v -5 1 -2
v -4 1 -2
v -3 1 -2
v 1 1 -2
v 2 1 -2
v 3 1 -2
v 4 1 -2
v -4 1 -3
v -3 1 -3
v 1 1 -3
v 2 1 -3
v 3 1 -3
v 4 1 -3
v -4 1 -4
v -3 1 -4
v 1 1 -4
v 2 1 -4
v 3 1 -4
v 4 1 -4
v -5 1 -5
v 5 1 -5
v -3 2 5
v -2 2 5
v 0 2 5
v 1 2 5
v -3 2 4
v -2 2 4
v 0 2 4
v 1 2 4
v -5 2 -1
v -4 2 -1
v -5 2 -2
v -4 2 -2
v 1 2 -2
v 2 2 -2
v -4 2 -3
v -3 2 -3
v 1 2 -3
v 2 2 -3
v 3 2 -3
v 4 2 -3
v -4 2 -4
v -3 2 -4
v 3 2 -4
v 4 2 -4
v -4 4 3
v -1 4 3
v 1 4 3
v 4 4 3
v 2 4 2
v 3 4 2
v -3 4 1
v -2 4 1
v 2 4 1
v 3 4 1
v -4 4 -0
v -3 4 -0
v -2 4 -0
v -1 4 -0
v 2 4 -0
v 3 4 -0
v 2 4 -1
v 3 4 -1
v 1 4 -2
v 4 4 -2
v -3 5 1
v -2 5 1
v -3 5 -0
v -2 5 -0
v 2 6 1
v 3 6 1
v 2 6 -0
v 3 6 -0
v 2 7 2
v 3 7 2
v 2 7 1
v 3 7 1
v 2 7 -0
v 3 7 -0
v 2 7 -1
v 3 7 -1

# faces
f 3/1/1 2/1/1 1/1/1
f 4/1/1 2/1/1 3/1/1
f 5/1/1 2/1/1 4/1/1
f 6/1/1 2/1/1 5/1/1
f 7/7/1 5/7/1 4/7/1
f 8/7/1 5/7/1 7/7/1
f 15/7/1 14/7/1 13/7/1
f 16/7/1 14/7/1 15/7/1
f 17/8/1 10/8/1 9/8/1
f 18/8/1 10/8/1 17/8/1
f 19/8/1 12/8/1 11/8/1
f 20/8/1 12/8/1 19/8/1
f 21/4/1 18/4/1 17/4/1
f 21/4/1 19/4/1 18/4/1
f 21/4/1 20/4/1 19/4/1
f 22/4/1 20/4/1 21/4/1
f 27/3/1 24/3/1 23/3/1
f 28/3/1 24/3/1 27/3/1
f 29/8/1 26/8/1 25/8/1
f 30/8/1 26/8/1 29/8/1
f 33/2/1 32/2/1 31/2/1
f 34/2/1 32/2/1 33/2/1
f 37/7/1 36/7/1 35/7/1
f 38/7/1 36/7/1 37/7/1
f 46/9/1 40/9/1 39/9/1
f 47/9/1 42/9/1 41/9/1
f 48/11/1 43/11/1 42/11/1
f 48/9/1 42/9/1 47/9/1
f 49/9/1 44/9/1 43/9/1
f 49/11/1 43/11/1 48/11/1
f 50/7/1 45/7/1 44/7/1
f 50/9/1 44/9/1 49/9/1
f 51/7/1 45/7/1 50/7/1
f 52/9/1 49/9/1 48/9/1
f 52/9/1 46/9/1 39/9/1
f 52/9/1 50/9/1 49/9/1
f 52/9/1 47/9/1 46/9/1
f 52/9/1 48/9/1 47/9/1
f 53/9/1 50/9/1 52/9/1
f 56/9/1 55/9/1 54/9/1
f 57/9/1 55/9/1 56/9/1
f 62/4/1 59/4/1 58/4/1
f 63/4/1 59/4/1 62/4/1
f 64/5/1 61/5/1 60/5/1
f 65/5/1 63/5/1 62/5/1
f 65/5/1 64/5/1 63/5/1
f 66/5/1 61/5/1 64/5/1
f 66/5/1 64/5/1 65/5/1
f 67/5/1 65/5/1 62/5/1
f 68/5/1 65/5/1 67/5/1
f 69/5/1 61/5/1 66/5/1
f 70/5/1 61/5/1 69/5/1
f 73/7/1 72/7/1 71/7/1
f 74/7/1 72/7/1 73/7/1
f 75/7/2 76/7/2 77/7/2
f 77/7/2 76/7/2 78/7/2
f 79/7/2 80/7/2 81/7/2
f 81/7/2 80/7/2 82/7/2
f 83/3/2 84/3/2 85/3/2
f 85/3/2 84/3/2 86/3/2
f 87/2/2 88/2/2 89/2/2
f 89/2/2 88/2/2 90/2/2
f 91/8/2 92/8/2 95/8/2
f 93/8/2 94/8/2 95/8/2
f 92/8/2 93/8/2 95/8/2
f 95/8/2 94/8/2 96/8/2
f 95/4/2 96/4/2 97/4/2
f 97/4/2 96/4/2 98/4/2
f 99/7/2 100/7/2 101/7/2
f 101/7/2 100/7/2 102/7/2
f 103/7/2 104/7/2 105/7/2
f 105/7/2 104/7/2 106/7/2
f 107/4/2 108/4/2 111/4/2
f 111/4/2 108/4/2 112/4/2
f 109/5/2 110/5/2 113/5/2
f 111/5/2 112/5/2 114/5/2
f 112/5/2 113/5/2 114/5/2
f 113/5/2 110/5/2 115/5/2
f 114/5/2 113/5/2 115/5/2
f 111/5/2 114/5/2 116/5/2
f 116/5/2 114/5/2 117/5/2
f 115/5/2 110/5/2 118/5/2
f 118/5/2 110/5/2 119/5/2
f 122/7/2 123/7/2 124/7/2
f 124/7/2 123/7/2 125/7/2
f 120/9/2 121/9/2 126/9/2
f 126/9/2 121/9/2 127/9/2
f 128/1/2 129/1/2 130/1/2
f 130/1/2 129/1/2 131/1/2
f 134/1/3 133/1/3 132/1/3
f 136/1/3 134/1/3 132/1/3
f 136/3/3 135/3/3 134/3/3
f 137/3/3 135/3/3 136/3/3
f 138/1/3 136/1/3 132/1/3
f 140/1/3 138/1/3 132/1/3
f 140/7/3 139/7/3 138/7/3
f 141/7/3 139/7/3 140/7/3
f 142/1/3 140/1/3 132/1/3
f 143/1/3 140/1/3 142/1/3
f 147/8/3 145/8/3 144/8/3
f 148/8/3 145/8/3 147/8/3
f 149/8/3 145/8/3 148/8/3
f 150/4/3 146/4/3 145/4/3
f 150/8/3 145/8/3 149/8/3
f 151/4/3 146/4/3 150/4/3
f 154/9/3 153/9/3 152/9/3
f 155/9/3 153/9/3 154/9/3
f 156/9/3 153/9/3 155/9/3
f 157/9/3 153/9/3 156/9/3
f 161/4/3 159/4/3 158/4/3
f 162/5/3 160/5/3 159/5/3
f 162/4/3 159/4/3 161/4/3
f 163/5/3 160/5/3 162/5/3
f 166/8/3 165/8/3 164/8/3
f 167/8/3 165/8/3 166/8/3
f 170/2/3 169/2/3 168/2/3
f 171/2/3 169/2/3 170/2/3
f 174/9/3 173/9/3 172/9/3
f 175/9/3 173/9/3 174/9/3
f 180/5/3 177/5/3 176/5/3
f 181/5/3 177/5/3 180/5/3
f 182/5/3 179/5/3 178/5/3
f 183/5/3 179/5/3 182/5/3
f 186/7/3 185/7/3 184/7/3
f 187/7/3 185/7/3 186/7/3
f 190/7/3 189/7/3 188/7/3
f 191/7/3 189/7/3 190/7/3
f 194/7/3 193/7/3 192/7/3
f 195/7/3 193/7/3 194/7/3
f 196/3/4 197/3/4 198/3/4
f 198/3/4 197/3/4 199/3/4
f 200/7/4 201/7/4 202/7/4
f 202/7/4 201/7/4 203/7/4
f 204/8/4 205/8/4 206/8/4
f 206/8/4 205/8/4 207/8/4
f 208/9/4 209/9/4 210/9/4
f 210/9/4 209/9/4 211/9/4
f 212/4/4 213/4/4 216/4/4
f 216/4/4 213/4/4 217/4/4
f 214/5/4 215/5/4 218/5/4
f 218/5/4 215/5/4 219/5/4
f 220/8/4 221/8/4 223/8/4
f 223/8/4 221/8/4 224/8/4
f 221/4/4 222/4/4 225/4/4
f 223/11/4 224/11/4 227/11/4
f 224/8/4 221/8/4 228/8/4
f 227/11/4 224/11/4 228/11/4
f 225/2/4 226/2/4 229/2/4
f 221/4/4 225/4/4 229/4/4
f 229/2/4 226/2/4 230/2/4
f 227/8/4 228/8/4 231/8/4
f 228/8/4 221/8/4 232/8/4
f 231/8/4 228/8/4 232/8/4
f 221/4/4 229/4/4 232/4/4
f 232/4/4 229/4/4 233/4/4
f 234/5/4 235/5/4 236/5/4
f 236/5/4 235/5/4 237/5/4
f 238/7/4 239/7/4 240/7/4
f 240/7/4 239/7/4 241/7/4
f 242/9/4 243/9/4 245/9/4
f 244/9/4 245/9/4 246/9/4
f 246/9/4 245/9/4 247/9/4
f 245/9/4 243/9/4 248/9/4
f 247/9/4 245/9/4 248/9/4
f 249/7/4 250/7/4 251/7/4
f 251/7/4 250/7/4 252/7/4
f 253/7/4 254/7/4 255/7/4
f 255/7/4 254/7/4 256/7/4
f 257/7/4 258/7/4 259/7/4
f 259/7/4 258/7/4 260/7/4
f 261/1/4 262/1/4 263/1/4
f 263/1/4 262/1/4 264/1/4
f 267/1/5 266/1/5 265/1/5
f 268/1/5 266/1/5 267/1/5
f 269/1/5 266/1/5 268/1/5
f 270/1/5 266/1/5 269/1/5
f 271/1/5 266/1/5 270/1/5
f 272/1/5 266/1/5 271/1/5
f 273/1/5 266/1/5 272/1/5
f 274/1/5 266/1/5 273/1/5
f 275/1/5 266/1/5 274/1/5
f 276/1/5 267/1/5 265/1/5
f 276/6/5 268/6/5 267/6/5
f 277/3/5 269/3/5 268/3/5
f 277/6/5 268/6/5 276/6/5
f 278/6/5 270/6/5 269/6/5
f 278/3/5 269/3/5 277/3/5
f 279/3/5 271/3/5 270/3/5
f 279/6/5 270/6/5 278/6/5
f 280/6/5 272/6/5 271/6/5
f 280/3/5 271/3/5 279/3/5
f 281/3/5 273/3/5 272/3/5
f 281/6/5 272/6/5 280/6/5
f 282/6/5 274/6/5 273/6/5
f 282/3/5 273/3/5 281/3/5
f 283/3/5 275/3/5 274/3/5
f 283/6/5 274/6/5 282/6/5
f 284/1/5 266/1/5 275/1/5
f 284/3/5 275/3/5 283/3/5
f 285/1/5 276/1/5 265/1/5
f 285/3/5 277/3/5 276/3/5
f 286/6/5 278/6/5 277/6/5
f 286/3/5 277/3/5 285/3/5
f 287/3/5 279/3/5 278/3/5
f 287/6/5 278/6/5 286/6/5
f 288/6/5 280/6/5 279/6/5
f 288/3/5 279/3/5 287/3/5
f 289/3/5 281/3/5 280/3/5
f 289/6/5 280/6/5 288/6/5
f 290/6/5 282/6/5 281/6/5
f 290/3/5 281/3/5 289/3/5
f 291/3/5 283/3/5 282/3/5
f 291/6/5 282/6/5 290/6/5
f 292/6/5 284/6/5 283/6/5
f 292/3/5 283/3/5 291/3/5
f 293/1/5 266/1/5 284/1/5
f 293/6/5 284/6/5 292/6/5
f 294/1/5 285/1/5 265/1/5
f 294/6/5 286/6/5 285/6/5
f 295/3/5 287/3/5 286/3/5
f 295/6/5 286/6/5 294/6/5
f 296/6/5 288/6/5 287/6/5
f 296/3/5 287/3/5 295/3/5
f 297/3/5 289/3/5 288/3/5
f 297/6/5 288/6/5 296/6/5
f 298/6/5 290/6/5 289/6/5
f 298/3/5 289/3/5 297/3/5
f 299/3/5 291/3/5 290/3/5
f 299/6/5 290/6/5 298/6/5
f 300/6/5 292/6/5 291/6/5
f 300/3/5 291/3/5 299/3/5
f 301/3/5 293/3/5 292/3/5
f 301/6/5 292/6/5 300/6/5
f 302/1/5 266/1/5 293/1/5
f 302/3/5 293/3/5 301/3/5
f 303/1/5 294/1/5 265/1/5
f 303/3/5 295/3/5 294/3/5
f 304/6/5 296/6/5 295/6/5
f 304/3/5 295/3/5 303/3/5
f 305/3/5 297/3/5 296/3/5
f 305/6/5 296/6/5 304/6/5
f 306/10/5 299/10/5 298/10/5
f 306/3/5 297/3/5 305/3/5
f 306/10/5 298/10/5 297/10/5
f 307/6/5 300/6/5 299/6/5
f 307/10/5 299/10/5 306/10/5
f 308/3/5 301/3/5 300/3/5
f 308/6/5 300/6/5 307/6/5
f 309/6/5 302/6/5 301/6/5
f 309/3/5 301/3/5 308/3/5
f 310/1/5 266/1/5 302/1/5
f 310/6/5 302/6/5 309/6/5
f 311/6/5 304/6/5 303/6/5
f 311/1/5 303/1/5 265/1/5
f 312/10/5 305/10/5 304/10/5
f 312/6/5 304/6/5 311/6/5
f 312/10/5 307/10/5 306/10/5
f 312/10/5 306/10/5 305/10/5
f 313/3/5 308/3/5 307/3/5
f 313/10/5 307/10/5 312/10/5
f 314/6/5 309/6/5 308/6/5
f 314/3/5 308/3/5 313/3/5
f 315/3/5 310/3/5 309/3/5
f 315/6/5 309/6/5 314/6/5
f 316/1/5 266/1/5 310/1/5
f 316/3/5 310/3/5 315/3/5
f 317/1/5 311/1/5 265/1/5
f 317/3/5 312/3/5 311/3/5
f 318/10/5 313/10/5 312/10/5
f 318/3/5 312/3/5 317/3/5
f 319/6/5 314/6/5 313/6/5
f 319/10/5 313/10/5 318/10/5
f 320/3/5 315/3/5 314/3/5
f 320/6/5 314/6/5 319/6/5
f 321/6/5 316/6/5 315/6/5
f 321/3/5 315/3/5 320/3/5
f 322/1/5 266/1/5 316/1/5
f 322/6/5 316/6/5 321/6/5
f 323/6/5 318/6/5 317/6/5
f 323/1/5 317/1/5 265/1/5
f 324/10/5 319/10/5 318/10/5
f 324/6/5 318/6/5 323/6/5
f 325/3/5 320/3/5 319/3/5
f 325/10/5 319/10/5 324/10/5
f 326/6/5 321/6/5 320/6/5
f 326/3/5 320/3/5 325/3/5
f 327/3/5 322/3/5 321/3/5
f 327/6/5 321/6/5 326/6/5
f 328/1/5 266/1/5 322/1/5
f 328/3/5 322/3/5 327/3/5
f 329/1/5 323/1/5 265/1/5
f 329/3/5 324/3/5 323/3/5
f 330/10/5 325/10/5 324/10/5
f 330/3/5 324/3/5 329/3/5
f 331/6/5 326/6/5 325/6/5
f 331/10/5 325/10/5 330/10/5
f 332/3/5 327/3/5 326/3/5
f 332/6/5 326/6/5 331/6/5
f 333/6/5 328/6/5 327/6/5
f 333/3/5 327/3/5 332/3/5
f 334/1/5 266/1/5 328/1/5
f 334/6/5 328/6/5 333/6/5
f 335/1/5 333/1/5 332/1/5
f 335/1/5 331/1/5 330/1/5
f 335/1/5 334/1/5 333/1/5
f 335/1/5 330/1/5 329/1/5
f 335/1/5 332/1/5 331/1/5
f 335/1/5 329/1/5 265/1/5
f 336/1/5 266/1/5 334/1/5
f 336/1/5 334/1/5 335/1/5
f 339/9/5 338/9/5 337/9/5
f 340/9/5 338/9/5 339/9/5
f 343/4/5 342/4/5 341/4/5
f 344/4/5 342/4/5 343/4/5
f 347/5/5 346/5/5 345/5/5
f 348/5/5 346/5/5 347/5/5
f 349/1/6 350/1/6 355/1/6
f 355/1/6 350/1/6 356/1/6
f 351/1/6 352/1/6 357/1/6
f 357/1/6 352/1/6 358/1/6
f 358/1/6 352/1/6 359/1/6
f 353/1/6 354/1/6 360/1/6
f 360/1/6 354/1/6 361/1/6
f 361/1/6 354/1/6 362/1/6
f 362/1/6 354/1/6 363/1/6
f 355/6/6 356/6/6 364/6/6
f 349/1/6 355/1/6 364/1/6
f 356/3/6 357/3/6 365/3/6
f 364/6/6 356/6/6 365/6/6
f 357/6/6 358/6/6 366/6/6
f 365/3/6 357/3/6 366/3/6
f 358/3/6 359/3/6 367/3/6
f 366/6/6 358/6/6 367/6/6
f 359/6/6 360/6/6 368/6/6
f 367/3/6 359/3/6 368/3/6
f 360/3/6 361/3/6 369/3/6
f 368/6/6 360/6/6 369/6/6
f 361/6/6 362/6/6 370/6/6
f 369/3/6 361/3/6 370/3/6
f 362/3/6 363/3/6 371/3/6
f 370/6/6 362/6/6 371/6/6
f 363/1/6 354/1/6 372/1/6
f 371/3/6 363/3/6 372/3/6
f 349/1/6 364/1/6 373/1/6
f 367/6/6 368/6/6 375/6/6
f 368/3/6 369/3/6 376/3/6
f 375/6/6 368/6/6 376/6/6
f 376/3/6 369/3/6 377/3/6
f 373/6/6 374/6/6 379/6/6
f 349/1/6 373/1/6 379/1/6
f 379/6/6 374/6/6 380/6/6
f 375/3/6 376/3/6 381/3/6
f 376/6/6 377/6/6 382/6/6
f 381/3/6 376/3/6 382/3/6
f 377/3/6 378/3/6 383/3/6
f 382/6/6 377/6/6 383/6/6
f 383/3/6 378/3/6 384/3/6
f 349/1/6 379/1/6 385/1/6
f 381/10/6 382/10/6 388/10/6
f 382/10/6 383/10/6 388/10/6
f 388/10/6 383/10/6 389/10/6
f 349/1/6 385/1/6 390/1/6
f 385/6/6 386/6/6 391/6/6
f 390/1/6 385/1/6 391/1/6
f 386/10/6 387/10/6 392/10/6
f 391/6/6 386/6/6 392/6/6
f 387/10/6 388/10/6 392/10/6
f 388/10/6 389/10/6 392/10/6
f 392/10/6 389/10/6 393/10/6
f 391/3/6 392/3/6 395/3/6
f 392/10/6 393/10/6 396/10/6
f 395/3/6 392/3/6 396/3/6
f 396/10/6 393/10/6 397/10/6
f 372/1/6 354/1/6 400/1/6
f 395/6/6 396/6/6 401/6/6
f 394/1/6 395/1/6 401/1/6
f 396/10/6 397/10/6 402/10/6
f 401/6/6 396/6/6 402/6/6
f 402/10/6 397/10/6 403/10/6
f 398/6/6 399/6/6 404/6/6
f 399/3/6 400/3/6 405/3/6
f 404/6/6 399/6/6 405/6/6
f 400/1/6 354/1/6 406/1/6
f 405/3/6 400/3/6 406/3/6
f 394/1/6 401/1/6 407/1/6
f 402/10/6 403/10/6 408/10/6
f 403/6/6 404/6/6 409/6/6
f 408/10/6 403/10/6 409/10/6
f 404/3/6 405/3/6 410/3/6
f 409/6/6 404/6/6 410/6/6
f 410/3/6 405/3/6 411/3/6
f 406/1/6 354/1/6 412/1/6
f 394/1/6 407/1/6 413/1/6
f 411/1/6 412/1/6 413/1/6
f 410/1/6 411/1/6 413/1/6
f 407/1/6 408/1/6 413/1/6
f 409/1/6 410/1/6 413/1/6
f 408/1/6 409/1/6 413/1/6
f 412/1/6 354/1/6 414/1/6
f 413/1/6 412/1/6 414/1/6
f 415/3/6 416/3/6 419/3/6
f 419/3/6 416/3/6 420/3/6
f 417/7/6 418/7/6 421/7/6
f 421/7/6 418/7/6 422/7/6
f 423/7/6 424/7/6 425/7/6
f 425/7/6 424/7/6 426/7/6
f 427/7/6 428/7/6 431/7/6
f 431/7/6 428/7/6 432/7/6
f 429/7/6 430/7/6 435/7/6
f 435/7/6 430/7/6 436/7/6
f 433/7/6 434/7/6 437/7/6
f 437/7/6 434/7/6 438/7/6
f 441/9/6 442/9/6 443/9/6
f 443/9/6 442/9/6 444/9/6
f 439/4/6 440/4/6 445/4/6
f 445/4/6 440/4/6 446/4/6
f 441/9/6 443/9/6 447/9/6
f 444/9/6 442/9/6 448/9/6
f 439/4/6 445/4/6 449/4/6
f 449/4/6 445/4/6 450/4/6
f 446/4/6 440/4/6 451/4/6
f 451/4/6 440/4/6 452/4/6
f 441/9/6 447/9/6 453/9/6
f 447/9/6 448/9/6 453/9/6
f 448/9/6 442/9/6 454/9/6
f 453/9/6 448/9/6 454/9/6
f 441/9/6 453/9/6 455/9/6
f 454/9/6 442/9/6 456/9/6
f 441/9/6 455/9/6 457/9/6
f 455/9/6 456/9/6 457/9/6
f 456/9/6 442/9/6 458/9/6
f 457/9/6 456/9/6 458/9/6
f 459/2/6 460/2/6 461/2/6
f 461/2/6 460/2/6 462/2/6
f 463/5/6 464/5/6 465/5/6
f 465/5/6 464/5/6 466/5/6
f 467/5/6 468/5/6 469/5/6
f 469/5/6 468/5/6 470/5/6
f 471/5/6 472/5/6 473/5/6
f 473/5/6 472/5/6 474/5/6
