# MagicaVoxel @ Ephtracy

# group
g HC_Commerce_Bank_Neutral

# material
mtllib HC_Commerce_Bank_Neutral.mtl
usemtl palette

# normals
vn -1 0 0
vn 1 0 0
vn 0 0 1
vn 0 0 -1
vn 0 -1 0
vn 0 1 0

# texcoords
vt 0.0917969 0.5
vt 0.162109 0.5
vt 0.521484 0.5
vt 0.748047 0.5
vt 0.775391 0.5
vt 0.888672 0.5
vt 0.892578 0.5
vt 0.931641 0.5
vt 0.935547 0.5
vt 0.978516 0.5
vt 0.990234 0.5

# verts
v -5 0 5
v -5 0 -5
v -5 1 5
v -5 1 -5
v -3 1 1
v -3 1 -0
v -3 1 -1
v -3 1 -2
v -3 1 -3
v -3 2 1
v -3 2 -0
v -3 2 -2
v -3 2 -3
v -3 3 1
v -3 3 -0
v -3 3 -1
v -3 3 -2
v -3 3 -3
v -3 4 -0
v -3 4 -1
v -3 4 -2
v -3 5 1
v -3 5 -0
v -3 5 -1
v -3 5 -2
v -3 5 -3
v -3 6 1
v -3 6 -0
v -3 6 -2
v -3 6 -3
v -3 7 1
v -3 7 -3
v -1 1 3
v -1 1 2
v -1 1 1
v -1 2 3
v -1 2 2
v -1 3 3
v -1 3 2
v -1 5 3
v -1 5 2
v -1 6 3
v -1 6 2
v -1 6 1
v -1 7 3
v -1 7 1
v 1 1 -1
v 1 1 -2
v 1 1 -3
v 1 2 -2
v 1 2 -3
v 1 3 -2
v 1 3 -3
v 1 4 -1
v 1 4 -2
v 1 5 -1
v 1 5 -2
v 1 5 -3
v 1 6 -1
v 1 6 -2
v 1 6 -3
v 1 7 -1
v 1 7 -3
v 3 1 3
v 3 1 2
v 3 1 1
v 3 1 -0
v 3 1 -1
v 3 2 1
v 3 2 -0
v 3 3 2
v 3 3 1
v 3 3 -0
v 3 3 -1
v 3 4 2
v 3 4 1
v 3 4 -0
v 3 4 -1
v 3 5 3
v 3 5 2
v 3 5 1
v 3 5 -0
v 3 6 3
v 3 6 2
v 3 6 1
v 3 6 -0
v 3 7 3
v 3 7 -1
v 5 0 5
v 5 0 -5
v 5 1 5
v 5 1 -5
v -5 0 5
v -5 1 5
v 5 0 5
v 5 1 5
v -1 1 3
v -1 2 3
v -1 3 3
v -1 5 3
v -1 6 3
v -1 7 3
v 0 1 3
v 0 2 3
v 0 3 3
v 0 4 3
v 0 5 3
v 0 6 3
v 0 7 3
v 1 1 3
v 1 3 3
v 1 4 3
v 1 5 3
v 2 1 3
v 2 2 3
v 2 4 3
v 2 5 3
v 2 6 3
v 2 7 3
v 3 1 3
v 3 5 3
v 3 6 3
v 3 7 3
v -3 1 1
v -3 2 1
v -3 3 1
v -3 5 1
v -3 6 1
v -3 7 1
v -2 1 1
v -2 2 1
v -2 3 1
v -2 5 1
v -2 6 1
v -2 7 1
v -1 1 1
v -1 6 1
v -1 7 1
v 1 1 -1
v 1 4 -1
v 1 5 -1
v 1 6 -1
v 1 7 -1
v 2 1 -1
v 2 3 -1
v 2 4 -1
v 2 6 -1
v 2 7 -1
v 3 1 -1
v 3 3 -1
v 3 4 -1
v 3 7 -1
v -3 1 -3
v -3 2 -3
v -3 3 -3
v -3 5 -3
v -3 6 -3
v -3 7 -3
v -2 1 -3
v -2 2 -3
v -2 3 -3
v -2 4 -3
v -2 5 -3
v -2 6 -3
v -2 7 -3
v -1 1 -3
v -1 3 -3
v -1 4 -3
v -1 5 -3
v 0 1 -3
v 0 2 -3
v 0 3 -3
v 0 4 -3
v 0 5 -3
v 0 6 -3
v 0 7 -3
v 1 1 -3
v 1 2 -3
v 1 3 -3
v 1 5 -3
v 1 6 -3
v 1 7 -3
v -5 0 -5
v -5 1 -5
v 5 0 -5
v 5 1 -5
v -5 0 5
v 5 0 5
v -4 0 4
v -3 0 4
v -2 0 4
v -1 0 4
v 0 0 4
v 1 0 4
v 2 0 4
v 3 0 4
v 4 0 4
v -4 0 3
v -3 0 3
v -2 0 3
v -1 0 3
v 0 0 3
v 1 0 3
v 2 0 3
v 3 0 3
v 4 0 3
v -4 0 2
v -3 0 2
v -2 0 2
v -1 0 2
v 0 0 2
v 1 0 2
v 2 0 2
v 3 0 2
v 4 0 2
v -4 0 1
v -3 0 1
v -2 0 1
v -1 0 1
v 0 0 1
v 1 0 1
v 2 0 1
v 3 0 1
v 4 0 1
v -4 0 -0
v -3 0 -0
v -2 0 -0
v -1 0 -0
v 0 0 -0
v 1 0 -0
v 2 0 -0
v 3 0 -0
v -4 0 -1
v -3 0 -1
v -2 0 -1
v -1 0 -1
v 0 0 -1
v 1 0 -1
v 2 0 -1
v 3 0 -1
v 4 0 -1
v -4 0 -2
v -3 0 -2
v -2 0 -2
v -1 0 -2
v 0 0 -2
v 1 0 -2
v 2 0 -2
v 3 0 -2
v 4 0 -2
v -4 0 -3
v -3 0 -3
v -2 0 -3
v -1 0 -3
v 0 0 -3
v 1 0 -3
v 2 0 -3
v 3 0 -3
v 4 0 -3
v -4 0 -4
v -3 0 -4
v -2 0 -4
v -1 0 -4
v 0 0 -4
v 1 0 -4
v 2 0 -4
v 3 0 -4
v 4 0 -4
v -5 0 -5
v 5 0 -5
v -5 1 5
v 5 1 5
v -4 1 4
v -3 1 4
v -2 1 4
v -1 1 4
v 0 1 4
v 1 1 4
v 2 1 4
v 3 1 4
v 4 1 4
v -4 1 3
v -3 1 3
v -2 1 3
v -1 1 3
v 0 1 3
v 1 1 3
v 2 1 3
v 3 1 3
v 4 1 3
v -4 1 2
v -3 1 2
v -2 1 2
v -1 1 2
v 3 1 2
v 4 1 2
v -4 1 1
v -3 1 1
v -2 1 1
v -1 1 1
v 3 1 1
v 4 1 1
v -4 1 -0
v -3 1 -0
v 3 1 -0
v -4 1 -1
v -3 1 -1
v 1 1 -1
v 2 1 -1
v 3 1 -1
v 4 1 -1
v -4 1 -2
v -3 1 -2
v 1 1 -2
v 2 1 -2
v 3 1 -2
v 4 1 -2
v -4 1 -3
v -3 1 -3
v -2 1 -3
v -1 1 -3
v 0 1 -3
v 1 1 -3
v 2 1 -3
v 3 1 -3
v 4 1 -3
v -4 1 -4
v -3 1 -4
v -2 1 -4
v -1 1 -4
v 0 1 -4
v 1 1 -4
v 2 1 -4
v 3 1 -4
v 4 1 -4
v -5 1 -5
v 5 1 -5
v -1 7 3
v 0 7 3
v 2 7 3
v 3 7 3
v -3 7 1
v -2 7 1
v -1 7 1
v 0 7 1
v 0 7 -1
v 1 7 -1
v 2 7 -1
v 3 7 -1
v -3 7 -3
v -2 7 -3
v 0 7 -3
v 1 7 -3

# faces
f 3/1/1 2/1/1 1/1/1
f 4/1/1 2/1/1 3/1/1
f 10/3/1 6/3/1 5/3/1
f 10/3/1 9/3/1 8/3/1
f 10/3/1 8/3/1 7/3/1
f 10/3/1 7/3/1 6/3/1
f 11/3/1 9/3/1 10/3/1
f 12/3/1 9/3/1 11/3/1
f 13/3/1 9/3/1 12/3/1
f 14/5/1 11/5/1 10/5/1
f 15/2/1 12/2/1 11/2/1
f 15/5/1 11/5/1 14/5/1
f 16/2/1 12/2/1 15/2/1
f 17/5/1 13/5/1 12/5/1
f 17/2/1 12/2/1 16/2/1
f 18/5/1 13/5/1 17/5/1
f 19/2/1 16/2/1 15/2/1
f 19/3/1 15/3/1 14/3/1
f 20/3/1 18/3/1 17/3/1
f 20/2/1 16/2/1 19/2/1
f 20/3/1 17/3/1 16/3/1
f 21/3/1 18/3/1 20/3/1
f 22/3/1 19/3/1 14/3/1
f 22/3/1 20/3/1 19/3/1
f 23/3/1 20/3/1 22/3/1
f 24/2/1 21/2/1 20/2/1
f 24/3/1 20/3/1 23/3/1
f 25/3/1 18/3/1 21/3/1
f 25/2/1 21/2/1 24/2/1
f 26/3/1 18/3/1 25/3/1
f 27/5/1 23/5/1 22/5/1
f 28/2/1 24/2/1 23/2/1
f 28/5/1 23/5/1 27/5/1
f 28/2/1 25/2/1 24/2/1
f 29/5/1 26/5/1 25/5/1
f 29/2/1 25/2/1 28/2/1
f 30/5/1 26/5/1 29/5/1
f 31/3/1 28/3/1 27/3/1
f 31/3/1 29/3/1 28/3/1
f 31/3/1 30/3/1 29/3/1
f 32/3/1 30/3/1 31/3/1
f 36/3/1 34/3/1 33/3/1
f 36/3/1 35/3/1 34/3/1
f 37/3/1 35/3/1 36/3/1
f 38/5/1 37/5/1 36/5/1
f 39/3/1 35/3/1 37/3/1
f 39/5/1 37/5/1 38/5/1
f 40/3/1 39/3/1 38/3/1
f 41/3/1 35/3/1 39/3/1
f 41/3/1 39/3/1 40/3/1
f 42/5/1 41/5/1 40/5/1
f 43/3/1 35/3/1 41/3/1
f 43/5/1 41/5/1 42/5/1
f 44/3/1 35/3/1 43/3/1
f 45/3/1 43/3/1 42/3/1
f 45/3/1 44/3/1 43/3/1
f 46/3/1 44/3/1 45/3/1
f 47/3/2 48/3/2 50/3/2
f 48/3/2 49/3/2 50/3/2
f 50/3/2 49/3/2 51/3/2
f 47/3/2 50/3/2 52/3/2
f 50/5/2 51/5/2 52/5/2
f 52/5/2 51/5/2 53/5/2
f 47/3/2 52/3/2 54/3/2
f 52/3/2 53/3/2 54/3/2
f 54/3/2 53/3/2 55/3/2
f 54/5/2 55/5/2 56/5/2
f 55/3/2 53/3/2 57/3/2
f 56/5/2 55/5/2 57/5/2
f 57/3/2 53/3/2 58/3/2
f 56/3/2 57/3/2 59/3/2
f 57/5/2 58/5/2 60/5/2
f 59/3/2 57/3/2 60/3/2
f 60/5/2 58/5/2 61/5/2
f 59/3/2 60/3/2 62/3/2
f 60/3/2 61/3/2 62/3/2
f 62/3/2 61/3/2 63/3/2
f 64/3/2 65/3/2 69/3/2
f 65/3/2 66/3/2 69/3/2
f 66/11/2 67/11/2 69/11/2
f 67/3/2 68/3/2 70/3/2
f 69/11/2 67/11/2 70/11/2
f 64/3/2 69/3/2 71/3/2
f 69/3/2 70/3/2 71/3/2
f 71/3/2 70/3/2 72/3/2
f 70/3/2 68/3/2 73/3/2
f 72/3/2 70/3/2 73/3/2
f 73/3/2 68/3/2 74/3/2
f 71/5/2 72/5/2 75/5/2
f 64/3/2 71/3/2 75/3/2
f 72/3/2 73/3/2 76/3/2
f 75/5/2 72/5/2 76/5/2
f 73/5/2 74/5/2 77/5/2
f 76/3/2 73/3/2 77/3/2
f 77/5/2 74/5/2 78/5/2
f 75/3/2 76/3/2 79/3/2
f 64/3/2 75/3/2 79/3/2
f 77/3/2 78/3/2 79/3/2
f 76/3/2 77/3/2 79/3/2
f 79/3/2 78/3/2 80/3/2
f 80/3/2 78/3/2 81/3/2
f 81/3/2 78/3/2 82/3/2
f 79/5/2 80/5/2 83/5/2
f 80/3/2 81/3/2 84/3/2
f 83/5/2 80/5/2 84/5/2
f 81/5/2 82/5/2 85/5/2
f 84/3/2 81/3/2 85/3/2
f 82/3/2 78/3/2 86/3/2
f 85/5/2 82/5/2 86/5/2
f 84/3/2 85/3/2 87/3/2
f 83/3/2 84/3/2 87/3/2
f 85/3/2 86/3/2 87/3/2
f 86/3/2 78/3/2 88/3/2
f 87/3/2 86/3/2 88/3/2
f 89/1/2 90/1/2 91/1/2
f 91/1/2 90/1/2 92/1/2
f 95/1/3 94/1/3 93/1/3
f 96/1/3 94/1/3 95/1/3
f 103/3/3 98/3/3 97/3/3
f 104/5/3 99/5/3 98/5/3
f 104/3/3 98/3/3 103/3/3
f 105/3/3 100/3/3 99/3/3
f 105/5/3 99/5/3 104/5/3
f 106/3/3 100/3/3 105/3/3
f 107/5/3 101/5/3 100/5/3
f 107/3/3 100/3/3 106/3/3
f 108/3/3 102/3/3 101/3/3
f 108/5/3 101/5/3 107/5/3
f 109/3/3 102/3/3 108/3/3
f 110/9/3 104/9/3 103/9/3
f 111/3/3 106/3/3 105/3/3
f 111/2/3 105/2/3 104/2/3
f 112/2/3 107/2/3 106/2/3
f 112/3/3 106/3/3 111/3/3
f 112/2/3 108/2/3 107/2/3
f 113/2/3 108/2/3 112/2/3
f 114/9/3 104/9/3 110/9/3
f 115/2/3 111/2/3 104/2/3
f 115/9/3 104/9/3 114/9/3
f 115/2/3 112/2/3 111/2/3
f 116/3/3 113/3/3 112/3/3
f 116/2/3 112/2/3 115/2/3
f 117/2/3 108/2/3 113/2/3
f 117/3/3 113/3/3 116/3/3
f 118/8/3 109/8/3 108/8/3
f 118/2/3 108/2/3 117/2/3
f 119/8/3 109/8/3 118/8/3
f 120/3/3 116/3/3 115/3/3
f 120/3/3 117/3/3 116/3/3
f 120/3/3 115/3/3 114/3/3
f 121/5/3 118/5/3 117/5/3
f 121/3/3 117/3/3 120/3/3
f 122/3/3 119/3/3 118/3/3
f 122/5/3 118/5/3 121/5/3
f 123/3/3 119/3/3 122/3/3
f 130/3/3 125/3/3 124/3/3
f 131/5/3 126/5/3 125/5/3
f 131/3/3 125/3/3 130/3/3
f 132/3/3 127/3/3 126/3/3
f 132/5/3 126/5/3 131/5/3
f 133/5/3 128/5/3 127/5/3
f 133/3/3 127/3/3 132/3/3
f 134/3/3 129/3/3 128/3/3
f 134/5/3 128/5/3 133/5/3
f 135/3/3 129/3/3 134/3/3
f 136/9/3 133/9/3 132/9/3
f 136/9/3 131/9/3 130/9/3
f 136/9/3 132/9/3 131/9/3
f 136/9/3 134/9/3 133/9/3
f 137/8/3 135/8/3 134/8/3
f 137/9/3 134/9/3 136/9/3
f 138/8/3 135/8/3 137/8/3
f 139/9/4 140/9/4 144/9/4
f 140/9/4 141/9/4 144/9/4
f 141/9/4 142/9/4 144/9/4
f 144/9/4 142/9/4 145/9/4
f 145/9/4 142/9/4 146/9/4
f 142/8/4 143/8/4 147/8/4
f 146/9/4 142/9/4 147/9/4
f 147/8/4 143/8/4 148/8/4
f 144/3/4 145/3/4 149/3/4
f 145/5/4 146/5/4 150/5/4
f 149/3/4 145/3/4 150/3/4
f 146/3/4 147/3/4 151/3/4
f 150/5/4 146/5/4 151/5/4
f 147/3/4 148/3/4 151/3/4
f 151/3/4 148/3/4 152/3/4
f 153/3/4 154/3/4 159/3/4
f 154/5/4 155/5/4 160/5/4
f 159/3/4 154/3/4 160/3/4
f 155/3/4 156/3/4 161/3/4
f 160/5/4 155/5/4 161/5/4
f 161/3/4 156/3/4 162/3/4
f 156/5/4 157/5/4 163/5/4
f 162/3/4 156/3/4 163/3/4
f 157/3/4 158/3/4 164/3/4
f 163/5/4 157/5/4 164/5/4
f 164/3/4 158/3/4 165/3/4
f 159/9/4 160/9/4 166/9/4
f 161/2/4 162/2/4 167/2/4
f 160/2/4 161/2/4 167/2/4
f 162/3/4 163/3/4 168/3/4
f 167/2/4 162/2/4 168/2/4
f 163/2/4 164/2/4 169/2/4
f 168/3/4 163/3/4 169/3/4
f 166/9/4 160/9/4 170/9/4
f 160/2/4 167/2/4 171/2/4
f 170/9/4 160/9/4 171/9/4
f 167/3/4 168/3/4 172/3/4
f 171/2/4 167/2/4 172/2/4
f 168/2/4 169/2/4 173/2/4
f 172/3/4 168/3/4 173/3/4
f 169/2/4 164/2/4 174/2/4
f 173/2/4 169/2/4 174/2/4
f 164/8/4 165/8/4 175/8/4
f 174/2/4 164/2/4 175/2/4
f 175/8/4 165/8/4 176/8/4
f 170/3/4 171/3/4 177/3/4
f 171/5/4 172/5/4 178/5/4
f 177/3/4 171/3/4 178/3/4
f 172/3/4 173/3/4 179/3/4
f 178/5/4 172/5/4 179/5/4
f 173/3/4 174/3/4 179/3/4
f 174/5/4 175/5/4 180/5/4
f 179/3/4 174/3/4 180/3/4
f 175/3/4 176/3/4 181/3/4
f 180/5/4 175/5/4 181/5/4
f 181/3/4 176/3/4 182/3/4
f 183/1/4 184/1/4 185/1/4
f 185/1/4 184/1/4 186/1/4
f 189/1/5 188/1/5 187/1/5
f 190/1/5 188/1/5 189/1/5
f 191/1/5 188/1/5 190/1/5
f 192/1/5 188/1/5 191/1/5
f 193/1/5 188/1/5 192/1/5
f 194/1/5 188/1/5 193/1/5
f 195/1/5 188/1/5 194/1/5
f 196/1/5 188/1/5 195/1/5
f 197/1/5 188/1/5 196/1/5
f 198/1/5 189/1/5 187/1/5
f 198/7/5 190/7/5 189/7/5
f 199/4/5 191/4/5 190/4/5
f 199/7/5 190/7/5 198/7/5
f 200/7/5 192/7/5 191/7/5
f 200/4/5 191/4/5 199/4/5
f 201/4/5 193/4/5 192/4/5
f 201/7/5 192/7/5 200/7/5
f 202/7/5 194/7/5 193/7/5
f 202/4/5 193/4/5 201/4/5
f 203/4/5 195/4/5 194/4/5
f 203/7/5 194/7/5 202/7/5
f 204/7/5 196/7/5 195/7/5
f 204/4/5 195/4/5 203/4/5
f 205/4/5 197/4/5 196/4/5
f 205/7/5 196/7/5 204/7/5
f 206/1/5 188/1/5 197/1/5
f 206/4/5 197/4/5 205/4/5
f 207/1/5 198/1/5 187/1/5
f 207/4/5 199/4/5 198/4/5
f 208/7/5 200/7/5 199/7/5
f 208/4/5 199/4/5 207/4/5
f 209/4/5 201/4/5 200/4/5
f 209/7/5 200/7/5 208/7/5
f 210/7/5 202/7/5 201/7/5
f 210/4/5 201/4/5 209/4/5
f 211/4/5 203/4/5 202/4/5
f 211/7/5 202/7/5 210/7/5
f 212/7/5 204/7/5 203/7/5
f 212/4/5 203/4/5 211/4/5
f 213/4/5 205/4/5 204/4/5
f 213/7/5 204/7/5 212/7/5
f 214/7/5 206/7/5 205/7/5
f 214/4/5 205/4/5 213/4/5
f 215/1/5 188/1/5 206/1/5
f 215/7/5 206/7/5 214/7/5
f 216/1/5 207/1/5 187/1/5
f 216/7/5 208/7/5 207/7/5
f 217/4/5 209/4/5 208/4/5
f 217/7/5 208/7/5 216/7/5
f 218/7/5 210/7/5 209/7/5
f 218/4/5 209/4/5 217/4/5
f 219/4/5 211/4/5 210/4/5
f 219/7/5 210/7/5 218/7/5
f 220/7/5 212/7/5 211/7/5
f 220/4/5 211/4/5 219/4/5
f 221/4/5 213/4/5 212/4/5
f 221/7/5 212/7/5 220/7/5
f 222/7/5 214/7/5 213/7/5
f 222/4/5 213/4/5 221/4/5
f 223/4/5 215/4/5 214/4/5
f 223/7/5 214/7/5 222/7/5
f 224/1/5 188/1/5 215/1/5
f 224/4/5 215/4/5 223/4/5
f 225/1/5 216/1/5 187/1/5
f 225/4/5 217/4/5 216/4/5
f 226/7/5 218/7/5 217/7/5
f 226/4/5 217/4/5 225/4/5
f 227/4/5 219/4/5 218/4/5
f 227/7/5 218/7/5 226/7/5
f 228/7/5 220/7/5 219/7/5
f 228/4/5 219/4/5 227/4/5
f 229/6/5 221/6/5 220/6/5
f 229/7/5 220/7/5 228/7/5
f 230/7/5 222/7/5 221/7/5
f 230/6/5 221/6/5 229/6/5
f 231/4/5 223/4/5 222/4/5
f 231/7/5 222/7/5 230/7/5
f 232/10/5 224/10/5 223/10/5
f 232/4/5 223/4/5 231/4/5
f 233/7/5 226/7/5 225/7/5
f 233/1/5 225/1/5 187/1/5
f 234/6/5 227/6/5 226/6/5
f 234/7/5 226/7/5 233/7/5
f 235/7/5 228/7/5 227/7/5
f 235/6/5 227/6/5 234/6/5
f 236/6/5 229/6/5 228/6/5
f 236/7/5 228/7/5 235/7/5
f 237/7/5 230/7/5 229/7/5
f 237/6/5 229/6/5 236/6/5
f 238/4/5 231/4/5 230/4/5
f 238/7/5 230/7/5 237/7/5
f 239/7/5 232/7/5 231/7/5
f 239/4/5 231/4/5 238/4/5
f 240/10/5 224/10/5 232/10/5
f 240/7/5 232/7/5 239/7/5
f 241/1/5 188/1/5 224/1/5
f 241/10/5 224/10/5 240/10/5
f 242/6/5 234/6/5 233/6/5
f 242/1/5 233/1/5 187/1/5
f 243/7/5 235/7/5 234/7/5
f 243/6/5 234/6/5 242/6/5
f 244/6/5 236/6/5 235/6/5
f 244/7/5 235/7/5 243/7/5
f 245/7/5 237/7/5 236/7/5
f 245/6/5 236/6/5 244/6/5
f 246/6/5 238/6/5 237/6/5
f 246/7/5 237/7/5 245/7/5
f 247/7/5 239/7/5 238/7/5
f 247/6/5 238/6/5 246/6/5
f 248/4/5 240/4/5 239/4/5
f 248/7/5 239/7/5 247/7/5
f 249/7/5 241/7/5 240/7/5
f 249/4/5 240/4/5 248/4/5
f 250/1/5 188/1/5 241/1/5
f 250/7/5 241/7/5 249/7/5
f 251/7/5 243/7/5 242/7/5
f 251/1/5 242/1/5 187/1/5
f 252/6/5 244/6/5 243/6/5
f 252/7/5 243/7/5 251/7/5
f 253/7/5 245/7/5 244/7/5
f 253/6/5 244/6/5 252/6/5
f 254/6/5 246/6/5 245/6/5
f 254/7/5 245/7/5 253/7/5
f 255/7/5 247/7/5 246/7/5
f 255/6/5 246/6/5 254/6/5
f 256/4/5 248/4/5 247/4/5
f 256/7/5 247/7/5 255/7/5
f 257/7/5 249/7/5 248/7/5
f 257/4/5 248/4/5 256/4/5
f 258/4/5 250/4/5 249/4/5
f 258/7/5 249/7/5 257/7/5
f 259/1/5 188/1/5 250/1/5
f 259/4/5 250/4/5 258/4/5
f 260/6/5 252/6/5 251/6/5
f 260/1/5 251/1/5 187/1/5
f 261/7/5 253/7/5 252/7/5
f 261/6/5 252/6/5 260/6/5
f 262/6/5 254/6/5 253/6/5
f 262/7/5 253/7/5 261/7/5
f 263/7/5 255/7/5 254/7/5
f 263/6/5 254/6/5 262/6/5
f 264/6/5 256/6/5 255/6/5
f 264/7/5 255/7/5 263/7/5
f 265/7/5 257/7/5 256/7/5
f 265/6/5 256/6/5 264/6/5
f 266/4/5 258/4/5 257/4/5
f 266/7/5 257/7/5 265/7/5
f 267/7/5 259/7/5 258/7/5
f 267/4/5 258/4/5 266/4/5
f 268/1/5 188/1/5 259/1/5
f 268/7/5 259/7/5 267/7/5
f 269/1/5 260/1/5 187/1/5
f 269/1/5 267/1/5 266/1/5
f 269/1/5 268/1/5 267/1/5
f 269/1/5 266/1/5 265/1/5
f 269/1/5 261/1/5 260/1/5
f 269/1/5 264/1/5 263/1/5
f 269/1/5 265/1/5 264/1/5
f 269/1/5 262/1/5 261/1/5
f 269/1/5 263/1/5 262/1/5
f 270/1/5 188/1/5 268/1/5
f 270/1/5 268/1/5 269/1/5
f 271/1/6 272/1/6 273/1/6
f 273/1/6 272/1/6 274/1/6
f 274/1/6 272/1/6 275/1/6
f 275/1/6 272/1/6 276/1/6
f 276/1/6 272/1/6 277/1/6
f 277/1/6 272/1/6 278/1/6
f 278/1/6 272/1/6 279/1/6
f 279/1/6 272/1/6 280/1/6
f 280/1/6 272/1/6 281/1/6
f 271/1/6 273/1/6 282/1/6
f 273/7/6 274/7/6 282/7/6
f 274/4/6 275/4/6 283/4/6
f 282/7/6 274/7/6 283/7/6
f 275/7/6 276/7/6 284/7/6
f 283/4/6 275/4/6 284/4/6
f 276/4/6 277/4/6 285/4/6
f 284/7/6 276/7/6 285/7/6
f 277/7/6 278/7/6 286/7/6
f 285/4/6 277/4/6 286/4/6
f 278/4/6 279/4/6 287/4/6
f 286/7/6 278/7/6 287/7/6
f 279/7/6 280/7/6 288/7/6
f 287/4/6 279/4/6 288/4/6
f 280/4/6 281/4/6 289/4/6
f 288/7/6 280/7/6 289/7/6
f 281/1/6 272/1/6 290/1/6
f 289/4/6 281/4/6 290/4/6
f 271/1/6 282/1/6 291/1/6
f 282/4/6 283/4/6 291/4/6
f 283/7/6 284/7/6 292/7/6
f 291/4/6 283/4/6 292/4/6
f 284/4/6 285/4/6 293/4/6
f 292/7/6 284/7/6 293/7/6
f 293/4/6 285/4/6 294/4/6
f 289/7/6 290/7/6 295/7/6
f 290/1/6 272/1/6 296/1/6
f 295/7/6 290/7/6 296/7/6
f 291/7/6 292/7/6 297/7/6
f 271/1/6 291/1/6 297/1/6
f 292/4/6 293/4/6 298/4/6
f 297/7/6 292/7/6 298/7/6
f 293/7/6 294/7/6 299/7/6
f 298/4/6 293/4/6 299/4/6
f 299/7/6 294/7/6 300/7/6
f 295/4/6 296/4/6 301/4/6
f 296/1/6 272/1/6 302/1/6
f 301/4/6 296/4/6 302/4/6
f 297/4/6 298/4/6 303/4/6
f 271/1/6 297/1/6 303/1/6
f 303/4/6 298/4/6 304/4/6
f 301/10/6 302/10/6 305/10/6
f 303/7/6 304/7/6 306/7/6
f 271/1/6 303/1/6 306/1/6
f 306/7/6 304/7/6 307/7/6
f 305/10/6 302/10/6 310/10/6
f 302/1/6 272/1/6 311/1/6
f 310/10/6 302/10/6 311/10/6
f 271/1/6 306/1/6 312/1/6
f 306/6/6 307/6/6 312/6/6
f 312/6/6 307/6/6 313/6/6
f 308/7/6 309/7/6 314/7/6
f 309/4/6 310/4/6 315/4/6
f 314/7/6 309/7/6 315/7/6
f 310/7/6 311/7/6 316/7/6
f 315/4/6 310/4/6 316/4/6
f 311/1/6 272/1/6 317/1/6
f 316/7/6 311/7/6 317/7/6
f 312/7/6 313/7/6 318/7/6
f 271/1/6 312/1/6 318/1/6
f 318/7/6 313/7/6 319/7/6
f 314/4/6 315/4/6 323/4/6
f 315/7/6 316/7/6 324/7/6
f 323/4/6 315/4/6 324/4/6
f 316/4/6 317/4/6 325/4/6
f 324/7/6 316/7/6 325/7/6
f 317/1/6 272/1/6 326/1/6
f 325/4/6 317/4/6 326/4/6
f 271/1/6 318/1/6 327/1/6
f 318/6/6 319/6/6 327/6/6
f 319/7/6 320/7/6 328/7/6
f 327/6/6 319/6/6 328/6/6
f 320/6/6 321/6/6 329/6/6
f 328/7/6 320/7/6 329/7/6
f 321/7/6 322/7/6 330/7/6
f 329/6/6 321/6/6 330/6/6
f 322/6/6 323/6/6 331/6/6
f 330/7/6 322/7/6 331/7/6
f 323/7/6 324/7/6 332/7/6
f 331/6/6 323/6/6 332/6/6
f 324/4/6 325/4/6 333/4/6
f 332/7/6 324/7/6 333/7/6
f 325/7/6 326/7/6 334/7/6
f 333/4/6 325/4/6 334/4/6
f 326/1/6 272/1/6 335/1/6
f 334/7/6 326/7/6 335/7/6
f 331/1/6 332/1/6 336/1/6
f 329/1/6 330/1/6 336/1/6
f 334/1/6 335/1/6 336/1/6
f 328/1/6 329/1/6 336/1/6
f 327/1/6 328/1/6 336/1/6
f 271/1/6 327/1/6 336/1/6
f 332/1/6 333/1/6 336/1/6
f 333/1/6 334/1/6 336/1/6
f 330/1/6 331/1/6 336/1/6
f 335/1/6 272/1/6 337/1/6
f 336/1/6 335/1/6 337/1/6
f 338/3/6 339/3/6 344/3/6
f 339/8/6 340/8/6 345/8/6
f 344/3/6 339/3/6 345/3/6
f 343/8/6 344/8/6 346/8/6
f 345/8/6 340/8/6 346/8/6
f 344/8/6 345/8/6 346/8/6
f 346/8/6 340/8/6 347/8/6
f 340/3/6 341/3/6 348/3/6
f 347/8/6 340/8/6 348/8/6
f 348/3/6 341/3/6 349/3/6
f 342/3/6 343/3/6 350/3/6
f 343/8/6 346/8/6 351/8/6
f 350/3/6 343/3/6 351/3/6
f 346/3/6 347/3/6 352/3/6
f 351/8/6 346/8/6 352/8/6
f 352/3/6 347/3/6 353/3/6
