# MagicaVoxel @ Ephtracy

# group
g HC_GroundGround

# material
mtllib HC_GroundGround.mtl
usemtl palette

# normals
vn -1 0 0
vn 1 0 0
vn 0 0 1
vn 0 0 -1
vn 0 -1 0
vn 0 1 0

# texcoords
vt 0.232422 0.5
vt 0.369141 0.5
vt 0.373047 0.5

# verts
v -5 0 5
v -5 0 -5
v -5 1 5
v -5 1 -5
v 5 0 5
v 5 0 -5
v 5 1 5
v 5 1 -5
v -5 0 5
v -5 1 5
v 5 0 5
v 5 1 5
v -5 0 -5
v -5 1 -5
v 5 0 -5
v 5 1 -5
v -5 0 5
v 5 0 5
v -4 0 4
v -3 0 4
v -2 0 4
v -1 0 4
v 0 0 4
v 1 0 4
v 2 0 4
v 3 0 4
v 4 0 4
v -4 0 3
v -3 0 3
v -2 0 3
v -1 0 3
v 0 0 3
v 1 0 3
v 2 0 3
v 3 0 3
v 4 0 3
v -4 0 2
v -3 0 2
v -2 0 2
v -1 0 2
v 0 0 2
v 1 0 2
v 2 0 2
v 3 0 2
v 4 0 2
v -4 0 1
v -3 0 1
v -2 0 1
v -1 0 1
v 0 0 1
v 1 0 1
v 2 0 1
v 3 0 1
v 4 0 1
v -4 0 -0
v -3 0 -0
v -2 0 -0
v -1 0 -0
v 0 0 -0
v 1 0 -0
v 2 0 -0
v 3 0 -0
v 4 0 -0
v -4 0 -1
v -3 0 -1
v -2 0 -1
v -1 0 -1
v 0 0 -1
v 1 0 -1
v 2 0 -1
v 3 0 -1
v 4 0 -1
v -4 0 -2
v -3 0 -2
v -2 0 -2
v -1 0 -2
v 0 0 -2
v 1 0 -2
v 2 0 -2
v 3 0 -2
v 4 0 -2
v -4 0 -3
v -3 0 -3
v -2 0 -3
v -1 0 -3
v 0 0 -3
v 1 0 -3
v 2 0 -3
v 3 0 -3
v 4 0 -3
v -4 0 -4
v -3 0 -4
v -2 0 -4
v -1 0 -4
v 0 0 -4
v 1 0 -4
v 2 0 -4
v 3 0 -4
v -5 0 -5
v 5 0 -5
v -5 1 5
v 5 1 5
v -4 1 4
v -3 1 4
v -2 1 4
v -1 1 4
v 0 1 4
v 1 1 4
v 2 1 4
v 3 1 4
v 4 1 4
v -4 1 3
v -3 1 3
v -2 1 3
v -1 1 3
v 0 1 3
v 1 1 3
v 2 1 3
v 3 1 3
v 4 1 3
v -4 1 2
v -3 1 2
v -2 1 2
v -1 1 2
v 0 1 2
v 1 1 2
v 2 1 2
v 3 1 2
v 4 1 2
v -4 1 1
v -3 1 1
v -2 1 1
v -1 1 1
v 0 1 1
v 1 1 1
v 2 1 1
v 3 1 1
v 4 1 1
v -4 1 -0
v -3 1 -0
v -2 1 -0
v -1 1 -0
v 0 1 -0
v 1 1 -0
v 2 1 -0
v 3 1 -0
v 4 1 -0
v -4 1 -1
v -3 1 -1
v -2 1 -1
v -1 1 -1
v 0 1 -1
v 1 1 -1
v 2 1 -1
v 3 1 -1
v 4 1 -1
v -4 1 -2
v -3 1 -2
v -2 1 -2
v -1 1 -2
v 0 1 -2
v 1 1 -2
v 2 1 -2
v 3 1 -2
v 4 1 -2
v -4 1 -3
v -3 1 -3
v -2 1 -3
v -1 1 -3
v 0 1 -3
v 1 1 -3
v 2 1 -3
v 3 1 -3
v 4 1 -3
v -4 1 -4
v -3 1 -4
v -2 1 -4
v -1 1 -4
v 0 1 -4
v 1 1 -4
v 2 1 -4
v 3 1 -4
v -5 1 -5
v 5 1 -5

# faces
f 3/3/1 2/3/1 1/3/1
f 4/3/1 2/3/1 3/3/1
f 5/3/2 6/3/2 7/3/2
f 7/3/2 6/3/2 8/3/2
f 11/3/3 10/3/3 9/3/3
f 12/3/3 10/3/3 11/3/3
f 13/3/4 14/3/4 15/3/4
f 15/3/4 14/3/4 16/3/4
f 19/3/5 18/3/5 17/3/5
f 20/3/5 18/3/5 19/3/5
f 21/3/5 18/3/5 20/3/5
f 22/3/5 18/3/5 21/3/5
f 23/3/5 18/3/5 22/3/5
f 24/3/5 18/3/5 23/3/5
f 25/3/5 18/3/5 24/3/5
f 26/3/5 18/3/5 25/3/5
f 27/3/5 18/3/5 26/3/5
f 28/3/5 19/3/5 17/3/5
f 28/1/5 20/1/5 19/1/5
f 29/2/5 21/2/5 20/2/5
f 29/1/5 20/1/5 28/1/5
f 30/3/5 22/3/5 21/3/5
f 30/2/5 21/2/5 29/2/5
f 31/2/5 23/2/5 22/2/5
f 31/3/5 22/3/5 30/3/5
f 32/1/5 24/1/5 23/1/5
f 32/2/5 23/2/5 31/2/5
f 33/2/5 25/2/5 24/2/5
f 33/1/5 24/1/5 32/1/5
f 34/3/5 26/3/5 25/3/5
f 34/2/5 25/2/5 33/2/5
f 35/2/5 27/2/5 26/2/5
f 35/3/5 26/3/5 34/3/5
f 36/3/5 18/3/5 27/3/5
f 36/2/5 27/2/5 35/2/5
f 37/3/5 28/3/5 17/3/5
f 37/2/5 29/2/5 28/2/5
f 38/1/5 30/1/5 29/1/5
f 38/2/5 29/2/5 37/2/5
f 39/2/5 31/2/5 30/2/5
f 39/1/5 30/1/5 38/1/5
f 40/3/5 32/3/5 31/3/5
f 40/2/5 31/2/5 39/2/5
f 41/2/5 33/2/5 32/2/5
f 41/3/5 32/3/5 40/3/5
f 42/1/5 34/1/5 33/1/5
f 42/2/5 33/2/5 41/2/5
f 43/2/5 35/2/5 34/2/5
f 43/1/5 34/1/5 42/1/5
f 44/1/5 36/1/5 35/1/5
f 44/2/5 35/2/5 43/2/5
f 45/3/5 18/3/5 36/3/5
f 45/1/5 36/1/5 44/1/5
f 46/3/5 37/3/5 17/3/5
f 46/3/5 38/3/5 37/3/5
f 47/2/5 39/2/5 38/2/5
f 47/3/5 38/3/5 46/3/5
f 48/1/5 40/1/5 39/1/5
f 48/2/5 39/2/5 47/2/5
f 49/2/5 41/2/5 40/2/5
f 49/1/5 40/1/5 48/1/5
f 50/1/5 42/1/5 41/1/5
f 50/2/5 41/2/5 49/2/5
f 51/2/5 43/2/5 42/2/5
f 51/1/5 42/1/5 50/1/5
f 52/3/5 44/3/5 43/3/5
f 52/2/5 43/2/5 51/2/5
f 53/2/5 45/2/5 44/2/5
f 53/3/5 44/3/5 52/3/5
f 54/3/5 18/3/5 45/3/5
f 54/2/5 45/2/5 53/2/5
f 55/3/5 46/3/5 17/3/5
f 55/2/5 47/2/5 46/2/5
f 56/3/5 48/3/5 47/3/5
f 56/2/5 47/2/5 55/2/5
f 57/2/5 49/2/5 48/2/5
f 57/3/5 48/3/5 56/3/5
f 58/3/5 50/3/5 49/3/5
f 58/2/5 49/2/5 57/2/5
f 59/2/5 51/2/5 50/2/5
f 59/3/5 50/3/5 58/3/5
f 60/3/5 52/3/5 51/3/5
f 60/2/5 51/2/5 59/2/5
f 61/1/5 53/1/5 52/1/5
f 61/3/5 52/3/5 60/3/5
f 62/3/5 54/3/5 53/3/5
f 62/1/5 53/1/5 61/1/5
f 63/3/5 18/3/5 54/3/5
f 63/3/5 54/3/5 62/3/5
f 64/1/5 56/1/5 55/1/5
f 64/3/5 55/3/5 17/3/5
f 65/2/5 57/2/5 56/2/5
f 65/1/5 56/1/5 64/1/5
f 66/3/5 58/3/5 57/3/5
f 66/2/5 57/2/5 65/2/5
f 67/2/5 59/2/5 58/2/5
f 67/3/5 58/3/5 66/3/5
f 68/1/5 60/1/5 59/1/5
f 68/2/5 59/2/5 67/2/5
f 69/2/5 61/2/5 60/2/5
f 69/1/5 60/1/5 68/1/5
f 70/3/5 62/3/5 61/3/5
f 70/2/5 61/2/5 69/2/5
f 71/2/5 63/2/5 62/2/5
f 71/3/5 62/3/5 70/3/5
f 72/3/5 18/3/5 63/3/5
f 72/2/5 63/2/5 71/2/5
f 73/2/5 65/2/5 64/2/5
f 73/3/5 64/3/5 17/3/5
f 74/3/5 66/3/5 65/3/5
f 74/2/5 65/2/5 73/2/5
f 75/1/5 67/1/5 66/1/5
f 75/3/5 66/3/5 74/3/5
f 76/3/5 68/3/5 67/3/5
f 76/1/5 67/1/5 75/1/5
f 77/2/5 69/2/5 68/2/5
f 77/3/5 68/3/5 76/3/5
f 78/3/5 70/3/5 69/3/5
f 78/2/5 69/2/5 77/2/5
f 79/2/5 71/2/5 70/2/5
f 79/3/5 70/3/5 78/3/5
f 80/1/5 72/1/5 71/1/5
f 80/2/5 71/2/5 79/2/5
f 81/3/5 18/3/5 72/3/5
f 81/1/5 72/1/5 80/1/5
f 82/3/5 74/3/5 73/3/5
f 82/3/5 73/3/5 17/3/5
f 83/2/5 75/2/5 74/2/5
f 83/3/5 74/3/5 82/3/5
f 84/3/5 76/3/5 75/3/5
f 84/2/5 75/2/5 83/2/5
f 85/2/5 77/2/5 76/2/5
f 85/3/5 76/3/5 84/3/5
f 86/3/5 78/3/5 77/3/5
f 86/2/5 77/2/5 85/2/5
f 87/1/5 79/1/5 78/1/5
f 87/3/5 78/3/5 86/3/5
f 88/3/5 80/3/5 79/3/5
f 88/1/5 79/1/5 87/1/5
f 89/2/5 81/2/5 80/2/5
f 89/3/5 80/3/5 88/3/5
f 90/3/5 18/3/5 81/3/5
f 90/2/5 81/2/5 89/2/5
f 91/1/5 83/1/5 82/1/5
f 91/3/5 82/3/5 17/3/5
f 92/3/5 84/3/5 83/3/5
f 92/1/5 83/1/5 91/1/5
f 93/2/5 85/2/5 84/2/5
f 93/3/5 84/3/5 92/3/5
f 94/1/5 86/1/5 85/1/5
f 94/2/5 85/2/5 93/2/5
f 95/2/5 87/2/5 86/2/5
f 95/1/5 86/1/5 94/1/5
f 96/3/5 88/3/5 87/3/5
f 96/2/5 87/2/5 95/2/5
f 97/2/5 89/2/5 88/2/5
f 97/3/5 88/3/5 96/3/5
f 98/3/5 90/3/5 89/3/5
f 98/2/5 89/2/5 97/2/5
f 99/3/5 92/3/5 91/3/5
f 99/3/5 91/3/5 17/3/5
f 99/3/5 98/3/5 97/3/5
f 99/3/5 97/3/5 96/3/5
f 99/3/5 94/3/5 93/3/5
f 99/3/5 95/3/5 94/3/5
f 99/3/5 96/3/5 95/3/5
f 99/3/5 93/3/5 92/3/5
f 100/3/5 90/3/5 98/3/5
f 100/3/5 98/3/5 99/3/5
f 100/3/5 18/3/5 90/3/5
f 101/3/6 102/3/6 103/3/6
f 103/3/6 102/3/6 104/3/6
f 104/3/6 102/3/6 105/3/6
f 105/3/6 102/3/6 106/3/6
f 106/3/6 102/3/6 107/3/6
f 107/3/6 102/3/6 108/3/6
f 108/3/6 102/3/6 109/3/6
f 109/3/6 102/3/6 110/3/6
f 110/3/6 102/3/6 111/3/6
f 101/3/6 103/3/6 112/3/6
f 103/1/6 104/1/6 112/1/6
f 104/2/6 105/2/6 113/2/6
f 112/1/6 104/1/6 113/1/6
f 105/3/6 106/3/6 114/3/6
f 113/2/6 105/2/6 114/2/6
f 106/2/6 107/2/6 115/2/6
f 114/3/6 106/3/6 115/3/6
f 107/1/6 108/1/6 116/1/6
f 115/2/6 107/2/6 116/2/6
f 108/2/6 109/2/6 117/2/6
f 116/1/6 108/1/6 117/1/6
f 109/3/6 110/3/6 118/3/6
f 117/2/6 109/2/6 118/2/6
f 110/2/6 111/2/6 119/2/6
f 118/3/6 110/3/6 119/3/6
f 111/3/6 102/3/6 120/3/6
f 119/2/6 111/2/6 120/2/6
f 101/3/6 112/3/6 121/3/6
f 112/2/6 113/2/6 121/2/6
f 113/1/6 114/1/6 122/1/6
f 121/2/6 113/2/6 122/2/6
f 114/2/6 115/2/6 123/2/6
f 122/1/6 114/1/6 123/1/6
f 115/3/6 116/3/6 124/3/6
f 123/2/6 115/2/6 124/2/6
f 116/2/6 117/2/6 125/2/6
f 124/3/6 116/3/6 125/3/6
f 117/1/6 118/1/6 126/1/6
f 125/2/6 117/2/6 126/2/6
f 118/2/6 119/2/6 127/2/6
f 126/1/6 118/1/6 127/1/6
f 119/1/6 120/1/6 128/1/6
f 127/2/6 119/2/6 128/2/6
f 120/3/6 102/3/6 129/3/6
f 128/1/6 120/1/6 129/1/6
f 101/3/6 121/3/6 130/3/6
f 121/3/6 122/3/6 130/3/6
f 122/2/6 123/2/6 131/2/6
f 130/3/6 122/3/6 131/3/6
f 123/1/6 124/1/6 132/1/6
f 131/2/6 123/2/6 132/2/6
f 124/2/6 125/2/6 133/2/6
f 132/1/6 124/1/6 133/1/6
f 125/1/6 126/1/6 134/1/6
f 133/2/6 125/2/6 134/2/6
f 126/2/6 127/2/6 135/2/6
f 134/1/6 126/1/6 135/1/6
f 127/3/6 128/3/6 136/3/6
f 135/2/6 127/2/6 136/2/6
f 128/2/6 129/2/6 137/2/6
f 136/3/6 128/3/6 137/3/6
f 129/3/6 102/3/6 138/3/6
f 137/2/6 129/2/6 138/2/6
f 101/3/6 130/3/6 139/3/6
f 130/2/6 131/2/6 139/2/6
f 131/3/6 132/3/6 140/3/6
f 139/2/6 131/2/6 140/2/6
f 132/2/6 133/2/6 141/2/6
f 140/3/6 132/3/6 141/3/6
f 133/3/6 134/3/6 142/3/6
f 141/2/6 133/2/6 142/2/6
f 134/2/6 135/2/6 143/2/6
f 142/3/6 134/3/6 143/3/6
f 135/3/6 136/3/6 144/3/6
f 143/2/6 135/2/6 144/2/6
f 136/1/6 137/1/6 145/1/6
f 144/3/6 136/3/6 145/3/6
f 137/3/6 138/3/6 146/3/6
f 145/1/6 137/1/6 146/1/6
f 138/3/6 102/3/6 147/3/6
f 146/3/6 138/3/6 147/3/6
f 139/1/6 140/1/6 148/1/6
f 101/3/6 139/3/6 148/3/6
f 140/2/6 141/2/6 149/2/6
f 148/1/6 140/1/6 149/1/6
f 141/3/6 142/3/6 150/3/6
f 149/2/6 141/2/6 150/2/6
f 142/2/6 143/2/6 151/2/6
f 150/3/6 142/3/6 151/3/6
f 143/1/6 144/1/6 152/1/6
f 151/2/6 143/2/6 152/2/6
f 144/2/6 145/2/6 153/2/6
f 152/1/6 144/1/6 153/1/6
f 145/3/6 146/3/6 154/3/6
f 153/2/6 145/2/6 154/2/6
f 146/2/6 147/2/6 155/2/6
f 154/3/6 146/3/6 155/3/6
f 147/3/6 102/3/6 156/3/6
f 155/2/6 147/2/6 156/2/6
f 148/2/6 149/2/6 157/2/6
f 101/3/6 148/3/6 157/3/6
f 149/3/6 150/3/6 158/3/6
f 157/2/6 149/2/6 158/2/6
f 150/1/6 151/1/6 159/1/6
f 158/3/6 150/3/6 159/3/6
f 151/3/6 152/3/6 160/3/6
f 159/1/6 151/1/6 160/1/6
f 152/2/6 153/2/6 161/2/6
f 160/3/6 152/3/6 161/3/6
f 153/3/6 154/3/6 162/3/6
f 161/2/6 153/2/6 162/2/6
f 154/2/6 155/2/6 163/2/6
f 162/3/6 154/3/6 163/3/6
f 155/1/6 156/1/6 164/1/6
f 163/2/6 155/2/6 164/2/6
f 156/3/6 102/3/6 165/3/6
f 164/1/6 156/1/6 165/1/6
f 157/3/6 158/3/6 166/3/6
f 101/3/6 157/3/6 166/3/6
f 158/2/6 159/2/6 167/2/6
f 166/3/6 158/3/6 167/3/6
f 159/3/6 160/3/6 168/3/6
f 167/2/6 159/2/6 168/2/6
f 160/2/6 161/2/6 169/2/6
f 168/3/6 160/3/6 169/3/6
f 161/3/6 162/3/6 170/3/6
f 169/2/6 161/2/6 170/2/6
f 162/1/6 163/1/6 171/1/6
f 170/3/6 162/3/6 171/3/6
f 163/3/6 164/3/6 172/3/6
f 171/1/6 163/1/6 172/1/6
f 164/2/6 165/2/6 173/2/6
f 172/3/6 164/3/6 173/3/6
f 165/3/6 102/3/6 174/3/6
f 173/2/6 165/2/6 174/2/6
f 166/1/6 167/1/6 175/1/6
f 101/3/6 166/3/6 175/3/6
f 167/3/6 168/3/6 176/3/6
f 175/1/6 167/1/6 176/1/6
f 168/2/6 169/2/6 177/2/6
f 176/3/6 168/3/6 177/3/6
f 169/1/6 170/1/6 178/1/6
f 177/2/6 169/2/6 178/2/6
f 170/2/6 171/2/6 179/2/6
f 178/1/6 170/1/6 179/1/6
f 171/3/6 172/3/6 180/3/6
f 179/2/6 171/2/6 180/2/6
f 172/2/6 173/2/6 181/2/6
f 180/3/6 172/3/6 181/3/6
f 173/3/6 174/3/6 182/3/6
f 181/2/6 173/2/6 182/2/6
f 175/3/6 176/3/6 183/3/6
f 101/3/6 175/3/6 183/3/6
f 181/3/6 182/3/6 183/3/6
f 180/3/6 181/3/6 183/3/6
f 177/3/6 178/3/6 183/3/6
f 178/3/6 179/3/6 183/3/6
f 179/3/6 180/3/6 183/3/6
f 176/3/6 177/3/6 183/3/6
f 182/3/6 174/3/6 184/3/6
f 183/3/6 182/3/6 184/3/6
f 174/3/6 102/3/6 184/3/6
