# MagicaVoxel @ Ephtracy

# group
g HC_Industry_Neutral

# material
mtllib HC_Industry_Neutral.mtl
usemtl palette

# normals
vn -1 0 0
vn 1 0 0
vn 0 0 1
vn 0 0 -1
vn 0 -1 0
vn 0 1 0

# texcoords
vt 0.162109 0.5
vt 0.888672 0.5
vt 0.974609 0.5
vt 0.978516 0.5
vt 0.982422 0.5
vt 0.990234 0.5

# verts
v -5 0 5
v -5 0 -5
v -5 1 5
v -5 1 -5
v -3 1 1
v -3 1 -0
v -3 1 -1
v -3 1 -2
v -3 1 -3
v -3 2 1
v -3 2 -0
v -3 2 -1
v -3 2 -2
v -3 3 1
v -3 3 -3
v -3 4 1
v -3 4 -3
v -3 5 1
v -3 5 -3
v -2 5 -0
v -2 5 -1
v -2 7 -0
v -2 7 -1
v -2 8 -0
v -2 8 -1
v -2 9 -0
v -2 9 -1
v 1 1 4
v 1 1 2
v 1 3 4
v 1 3 2
v -1 5 -0
v -1 5 -1
v -1 7 -0
v -1 7 -1
v -1 8 -0
v -1 8 -1
v -1 9 -0
v -1 9 -1
v 3 1 4
v 3 1 2
v 3 1 1
v 3 1 -0
v 3 1 -1
v 3 1 -2
v 3 1 -3
v 3 2 -0
v 3 2 -1
v 3 2 -2
v 3 2 -3
v 3 3 4
v 3 3 2
v 3 3 1
v 3 3 -3
v 3 4 1
v 3 4 -3
v 3 5 1
v 3 5 -3
v 5 0 5
v 5 0 -5
v 5 1 5
v 5 1 -5
v -5 0 5
v -5 1 5
v 5 0 5
v 5 1 5
v 1 1 4
v 1 3 4
v 3 1 4
v 3 3 4
v -3 1 1
v -3 2 1
v -3 3 1
v -3 4 1
v -3 5 1
v -2 1 1
v -2 2 1
v -1 1 1
v -1 2 1
v 0 1 1
v 0 2 1
v 1 1 1
v 1 2 1
v 2 1 1
v 2 2 1
v 3 1 1
v 3 3 1
v 3 4 1
v 3 5 1
v -2 5 -0
v -2 7 -0
v -2 8 -0
v -2 9 -0
v -1 5 -0
v -1 7 -0
v -1 8 -0
v -1 9 -0
v 1 1 2
v 1 3 2
v 3 1 2
v 3 3 2
v -2 5 -1
v -2 7 -1
v -2 8 -1
v -2 9 -1
v -1 5 -1
v -1 7 -1
v -1 8 -1
v -1 9 -1
v -3 1 -3
v -3 3 -3
v -3 4 -3
v -3 5 -3
v -2 1 -3
v -2 2 -3
v -1 1 -3
v -1 2 -3
v 0 1 -3
v 0 2 -3
v 1 1 -3
v 1 2 -3
v 2 1 -3
v 2 2 -3
v 3 1 -3
v 3 2 -3
v 3 3 -3
v 3 4 -3
v 3 5 -3
v -5 0 -5
v -5 1 -5
v 5 0 -5
v 5 1 -5
v -5 0 5
v 5 0 5
v -3 0 1
v 3 0 1
v -3 0 -3
v 3 0 -3
v -5 0 -5
v 5 0 -5
v -5 1 5
v 5 1 5
v 1 1 4
v 3 1 4
v 1 1 2
v 3 1 2
v -3 1 1
v -2 1 1
v -1 1 1
v 0 1 1
v 1 1 1
v 2 1 1
v 3 1 1
v -3 1 -0
v 3 1 -0
v -3 1 -1
v 3 1 -1
v -3 1 -2
v 3 1 -2
v -3 1 -3
v -2 1 -3
v -1 1 -3
v 0 1 -3
v 1 1 -3
v 2 1 -3
v 3 1 -3
v -5 1 -5
v 5 1 -5
v 1 3 4
v 3 3 4
v 1 3 2
v 3 3 2
v -3 5 1
v 3 5 1
v -2 5 -0
v -1 5 -0
v 0 5 -0
v 1 5 -0
v 2 5 -0
v -2 5 -1
v -1 5 -1
v 0 5 -1
v 1 5 -1
v 2 5 -1
v -2 5 -2
v -1 5 -2
v 0 5 -2
v 1 5 -2
v 2 5 -2
v -3 5 -3
v 3 5 -3
v -2 9 -0
v -1 9 -0
v -2 9 -1
v -1 9 -1

# faces
f 3/1/1 2/1/1 1/1/1
f 4/1/1 2/1/1 3/1/1
f 10/4/1 6/4/1 5/4/1
f 11/5/1 7/5/1 6/5/1
f 11/4/1 6/4/1 10/4/1
f 12/4/1 8/4/1 7/4/1
f 12/5/1 7/5/1 11/5/1
f 13/5/1 9/5/1 8/5/1
f 13/4/1 8/4/1 12/4/1
f 14/5/1 12/5/1 11/5/1
f 14/5/1 11/5/1 10/5/1
f 14/5/1 13/5/1 12/5/1
f 15/5/1 9/5/1 13/5/1
f 15/5/1 13/5/1 14/5/1
f 16/4/1 15/4/1 14/4/1
f 17/4/1 15/4/1 16/4/1
f 18/5/1 17/5/1 16/5/1
f 19/5/1 17/5/1 18/5/1
f 22/5/1 21/5/1 20/5/1
f 23/5/1 21/5/1 22/5/1
f 24/1/1 23/1/1 22/1/1
f 25/1/1 23/1/1 24/1/1
f 26/5/1 25/5/1 24/5/1
f 27/5/1 25/5/1 26/5/1
f 30/5/1 29/5/1 28/5/1
f 31/5/1 29/5/1 30/5/1
f 32/5/2 33/5/2 34/5/2
f 34/5/2 33/5/2 35/5/2
f 34/1/2 35/1/2 36/1/2
f 36/1/2 35/1/2 37/1/2
f 36/5/2 37/5/2 38/5/2
f 38/5/2 37/5/2 39/5/2
f 42/5/2 43/5/2 47/5/2
f 43/4/2 44/4/2 47/4/2
f 44/5/2 45/5/2 48/5/2
f 47/4/2 44/4/2 48/4/2
f 45/4/2 46/4/2 49/4/2
f 48/5/2 45/5/2 49/5/2
f 49/4/2 46/4/2 50/4/2
f 40/5/2 41/5/2 51/5/2
f 51/5/2 41/5/2 52/5/2
f 47/5/2 48/5/2 53/5/2
f 42/5/2 47/5/2 53/5/2
f 48/5/2 49/5/2 53/5/2
f 49/5/2 50/5/2 53/5/2
f 53/5/2 50/5/2 54/5/2
f 53/4/2 54/4/2 55/4/2
f 55/4/2 54/4/2 56/4/2
f 55/5/2 56/5/2 57/5/2
f 57/5/2 56/5/2 58/5/2
f 59/1/2 60/1/2 61/1/2
f 61/1/2 60/1/2 62/1/2
f 65/1/3 64/1/3 63/1/3
f 66/1/3 64/1/3 65/1/3
f 69/5/3 68/5/3 67/5/3
f 70/5/3 68/5/3 69/5/3
f 76/4/3 72/4/3 71/4/3
f 77/5/3 73/5/3 72/5/3
f 77/4/3 72/4/3 76/4/3
f 78/5/3 77/5/3 76/5/3
f 79/5/3 73/5/3 77/5/3
f 79/5/3 77/5/3 78/5/3
f 80/6/3 79/6/3 78/6/3
f 81/5/3 73/5/3 79/5/3
f 81/6/3 79/6/3 80/6/3
f 82/5/3 81/5/3 80/5/3
f 83/5/3 73/5/3 81/5/3
f 83/5/3 81/5/3 82/5/3
f 84/4/3 83/4/3 82/4/3
f 85/5/3 73/5/3 83/5/3
f 85/4/3 83/4/3 84/4/3
f 86/5/3 85/5/3 84/5/3
f 87/4/3 74/4/3 73/4/3
f 87/5/3 85/5/3 86/5/3
f 87/5/3 73/5/3 85/5/3
f 88/5/3 75/5/3 74/5/3
f 88/4/3 74/4/3 87/4/3
f 89/5/3 75/5/3 88/5/3
f 94/5/3 91/5/3 90/5/3
f 95/1/3 92/1/3 91/1/3
f 95/5/3 91/5/3 94/5/3
f 96/5/3 93/5/3 92/5/3
f 96/1/3 92/1/3 95/1/3
f 97/5/3 93/5/3 96/5/3
f 98/5/4 99/5/4 100/5/4
f 100/5/4 99/5/4 101/5/4
f 102/5/4 103/5/4 106/5/4
f 103/1/4 104/1/4 107/1/4
f 106/5/4 103/5/4 107/5/4
f 104/5/4 105/5/4 108/5/4
f 107/1/4 104/1/4 108/1/4
f 108/5/4 105/5/4 109/5/4
f 110/5/4 111/5/4 114/5/4
f 114/5/4 111/5/4 115/5/4
f 114/4/4 115/4/4 116/4/4
f 115/5/4 111/5/4 117/5/4
f 116/4/4 115/4/4 117/4/4
f 116/5/4 117/5/4 118/5/4
f 117/5/4 111/5/4 119/5/4
f 118/5/4 117/5/4 119/5/4
f 118/4/4 119/4/4 120/4/4
f 119/5/4 111/5/4 121/5/4
f 120/4/4 119/4/4 121/4/4
f 120/5/4 121/5/4 122/5/4
f 121/5/4 111/5/4 123/5/4
f 122/5/4 121/5/4 123/5/4
f 122/4/4 123/4/4 124/4/4
f 123/5/4 111/5/4 125/5/4
f 124/4/4 123/4/4 125/4/4
f 111/4/4 112/4/4 126/4/4
f 125/5/4 111/5/4 126/5/4
f 112/5/4 113/5/4 127/5/4
f 126/4/4 112/4/4 127/4/4
f 127/5/4 113/5/4 128/5/4
f 129/1/4 130/1/4 131/1/4
f 131/1/4 130/1/4 132/1/4
f 135/1/5 134/1/5 133/1/5
f 136/1/5 134/1/5 135/1/5
f 137/1/5 135/1/5 133/1/5
f 137/2/5 136/2/5 135/2/5
f 138/1/5 134/1/5 136/1/5
f 138/2/5 136/2/5 137/2/5
f 139/1/5 137/1/5 133/1/5
f 139/1/5 138/1/5 137/1/5
f 140/1/5 134/1/5 138/1/5
f 140/1/5 138/1/5 139/1/5
f 141/1/6 142/1/6 143/1/6
f 143/1/6 142/1/6 144/1/6
f 141/1/6 143/1/6 145/1/6
f 144/1/6 142/1/6 146/1/6
f 141/1/6 145/1/6 147/1/6
f 145/1/6 146/1/6 147/1/6
f 147/1/6 146/1/6 148/1/6
f 148/1/6 146/1/6 149/1/6
f 149/1/6 146/1/6 150/1/6
f 150/1/6 146/1/6 151/1/6
f 151/1/6 146/1/6 152/1/6
f 146/1/6 142/1/6 153/1/6
f 152/1/6 146/1/6 153/1/6
f 141/1/6 147/1/6 154/1/6
f 153/1/6 142/1/6 155/1/6
f 141/1/6 154/1/6 156/1/6
f 155/1/6 142/1/6 157/1/6
f 141/1/6 156/1/6 158/1/6
f 157/1/6 142/1/6 159/1/6
f 141/1/6 158/1/6 160/1/6
f 159/1/6 142/1/6 166/1/6
f 164/1/6 165/1/6 167/1/6
f 165/1/6 166/1/6 167/1/6
f 141/1/6 160/1/6 167/1/6
f 160/1/6 161/1/6 167/1/6
f 163/1/6 164/1/6 167/1/6
f 162/1/6 163/1/6 167/1/6
f 161/1/6 162/1/6 167/1/6
f 166/1/6 142/1/6 168/1/6
f 167/1/6 166/1/6 168/1/6
f 169/5/6 170/5/6 171/5/6
f 171/5/6 170/5/6 172/5/6
f 173/5/6 174/5/6 175/5/6
f 175/5/6 174/5/6 176/5/6
f 176/5/6 174/5/6 177/5/6
f 177/5/6 174/5/6 178/5/6
f 178/5/6 174/5/6 179/5/6
f 173/5/6 175/5/6 180/5/6
f 176/3/6 177/3/6 181/3/6
f 177/4/6 178/4/6 182/4/6
f 181/3/6 177/3/6 182/3/6
f 178/3/6 179/3/6 183/3/6
f 182/4/6 178/4/6 183/4/6
f 179/5/6 174/5/6 184/5/6
f 183/3/6 179/3/6 184/3/6
f 173/5/6 180/5/6 185/5/6
f 180/3/6 181/3/6 185/3/6
f 181/4/6 182/4/6 186/4/6
f 185/3/6 181/3/6 186/3/6
f 182/3/6 183/3/6 187/3/6
f 186/4/6 182/4/6 187/4/6
f 183/4/6 184/4/6 188/4/6
f 187/3/6 183/3/6 188/3/6
f 184/5/6 174/5/6 189/5/6
f 188/4/6 184/4/6 189/4/6
f 185/5/6 186/5/6 190/5/6
f 173/5/6 185/5/6 190/5/6
f 188/5/6 189/5/6 190/5/6
f 187/5/6 188/5/6 190/5/6
f 186/5/6 187/5/6 190/5/6
f 189/5/6 174/5/6 191/5/6
f 190/5/6 189/5/6 191/5/6
f 192/5/6 193/5/6 194/5/6
f 194/5/6 193/5/6 195/5/6
