# MagicaVoxel @ Ephtracy

# group
g HC_Industry_Neutral

# material
mtllib HC_Industry_Neutral.mtl
usemtl palette

# normals
vn -1 0 0
vn 1 0 0
vn 0 0 1
vn 0 0 -1
vn 0 -1 0
vn 0 1 0

# texcoords
vt 0.162109 0.5
vt 0.974609 0.5
vt 0.978516 0.5
vt 0.982422 0.5
vt 0.990234 0.5

# verts
v -5 0 5
v -5 0 -5
v -5 1 5
v -5 1 -5
v -3 1 1
v -3 1 -0
v -3 1 -1
v -3 1 -2
v -3 1 -3
v -3 2 1
v -3 2 -0
v -3 2 -1
v -3 2 -2
v -3 3 1
v -3 3 -3
v -3 4 1
v -3 4 -3
v -3 5 1
v -3 5 -3
v -2 5 -0
v -2 5 -1
v -2 7 -0
v -2 7 -1
v -2 8 -0
v -2 8 -1
v -2 9 -0
v -2 9 -1
v 1 1 4
v 1 1 2
v 1 3 4
v 1 3 2
v -1 5 -0
v -1 5 -1
v -1 7 -0
v -1 7 -1
v -1 8 -0
v -1 8 -1
v -1 9 -0
v -1 9 -1
v 3 1 4
v 3 1 2
v 3 1 1
v 3 1 -0
v 3 1 -1
v 3 1 -2
v 3 1 -3
v 3 2 -0
v 3 2 -1
v 3 2 -2
v 3 2 -3
v 3 3 4
v 3 3 2
v 3 3 1
v 3 3 -3
v 3 4 1
v 3 4 -3
v 3 5 1
v 3 5 -3
v 5 0 5
v 5 0 -5
v 5 1 5
v 5 1 -5
v -5 0 5
v -5 1 5
v 5 0 5
v 5 1 5
v 1 1 4
v 1 3 4
v 3 1 4
v 3 3 4
v -3 1 1
v -3 2 1
v -3 3 1
v -3 4 1
v -3 5 1
v -2 1 1
v -2 2 1
v -1 1 1
v -1 2 1
v 0 1 1
v 0 2 1
v 1 1 1
v 1 2 1
v 2 1 1
v 2 2 1
v 3 1 1
v 3 3 1
v 3 4 1
v 3 5 1
v -2 5 -0
v -2 7 -0
v -2 8 -0
v -2 9 -0
v -1 5 -0
v -1 7 -0
v -1 8 -0
v -1 9 -0
v 1 1 2
v 1 3 2
v 3 1 2
v 3 3 2
v -2 5 -1
v -2 7 -1
v -2 8 -1
v -2 9 -1
v -1 5 -1
v -1 7 -1
v -1 8 -1
v -1 9 -1
v -3 1 -3
v -3 3 -3
v -3 4 -3
v -3 5 -3
v -2 1 -3
v -2 2 -3
v -1 1 -3
v -1 2 -3
v 0 1 -3
v 0 2 -3
v 1 1 -3
v 1 2 -3
v 2 1 -3
v 2 2 -3
v 3 1 -3
v 3 2 -3
v 3 3 -3
v 3 4 -3
v 3 5 -3
v -5 0 -5
v -5 1 -5
v 5 0 -5
v 5 1 -5
v -5 0 5
v 5 0 5
v -4 0 4
v 4 0 4
v -4 0 -4
v 4 0 -4
v -5 0 -5
v 5 0 -5
v -5 1 5
v 5 1 5
v -4 1 4
v 1 1 4
v 3 1 4
v 4 1 4
v 1 1 2
v 3 1 2
v -3 1 1
v -2 1 1
v -1 1 1
v 0 1 1
v 1 1 1
v 2 1 1
v 3 1 1
v -3 1 -0
v 3 1 -0
v -3 1 -1
v 3 1 -1
v -3 1 -2
v 3 1 -2
v -3 1 -3
v -2 1 -3
v -1 1 -3
v 0 1 -3
v 1 1 -3
v 2 1 -3
v 3 1 -3
v -4 1 -4
v 4 1 -4
v -5 1 -5
v 5 1 -5
v 1 3 4
v 3 3 4
v 1 3 2
v 3 3 2
v -3 5 1
v 3 5 1
v -2 5 -0
v -1 5 -0
v 0 5 -0
v 1 5 -0
v 2 5 -0
v -2 5 -1
v -1 5 -1
v 0 5 -1
v 1 5 -1
v 2 5 -1
v -2 5 -2
v -1 5 -2
v 0 5 -2
v 1 5 -2
v 2 5 -2
v -3 5 -3
v 3 5 -3
v -2 9 -0
v -1 9 -0
v -2 9 -1
v -1 9 -1

# faces
f 3/1/1 2/1/1 1/1/1
f 4/1/1 2/1/1 3/1/1
f 10/3/1 6/3/1 5/3/1
f 11/4/1 7/4/1 6/4/1
f 11/3/1 6/3/1 10/3/1
f 12/3/1 8/3/1 7/3/1
f 12/4/1 7/4/1 11/4/1
f 13/4/1 9/4/1 8/4/1
f 13/3/1 8/3/1 12/3/1
f 14/4/1 12/4/1 11/4/1
f 14/4/1 11/4/1 10/4/1
f 14/4/1 13/4/1 12/4/1
f 15/4/1 9/4/1 13/4/1
f 15/4/1 13/4/1 14/4/1
f 16/3/1 15/3/1 14/3/1
f 17/3/1 15/3/1 16/3/1
f 18/4/1 17/4/1 16/4/1
f 19/4/1 17/4/1 18/4/1
f 22/4/1 21/4/1 20/4/1
f 23/4/1 21/4/1 22/4/1
f 24/1/1 23/1/1 22/1/1
f 25/1/1 23/1/1 24/1/1
f 26/4/1 25/4/1 24/4/1
f 27/4/1 25/4/1 26/4/1
f 30/4/1 29/4/1 28/4/1
f 31/4/1 29/4/1 30/4/1
f 32/4/2 33/4/2 34/4/2
f 34/4/2 33/4/2 35/4/2
f 34/1/2 35/1/2 36/1/2
f 36/1/2 35/1/2 37/1/2
f 36/4/2 37/4/2 38/4/2
f 38/4/2 37/4/2 39/4/2
f 42/4/2 43/4/2 47/4/2
f 43/3/2 44/3/2 47/3/2
f 44/4/2 45/4/2 48/4/2
f 47/3/2 44/3/2 48/3/2
f 45/3/2 46/3/2 49/3/2
f 48/4/2 45/4/2 49/4/2
f 49/3/2 46/3/2 50/3/2
f 40/4/2 41/4/2 51/4/2
f 51/4/2 41/4/2 52/4/2
f 47/4/2 48/4/2 53/4/2
f 42/4/2 47/4/2 53/4/2
f 48/4/2 49/4/2 53/4/2
f 49/4/2 50/4/2 53/4/2
f 53/4/2 50/4/2 54/4/2
f 53/3/2 54/3/2 55/3/2
f 55/3/2 54/3/2 56/3/2
f 55/4/2 56/4/2 57/4/2
f 57/4/2 56/4/2 58/4/2
f 59/1/2 60/1/2 61/1/2
f 61/1/2 60/1/2 62/1/2
f 65/1/3 64/1/3 63/1/3
f 66/1/3 64/1/3 65/1/3
f 69/4/3 68/4/3 67/4/3
f 70/4/3 68/4/3 69/4/3
f 76/3/3 72/3/3 71/3/3
f 77/4/3 73/4/3 72/4/3
f 77/3/3 72/3/3 76/3/3
f 78/4/3 77/4/3 76/4/3
f 79/4/3 73/4/3 77/4/3
f 79/4/3 77/4/3 78/4/3
f 80/5/3 79/5/3 78/5/3
f 81/4/3 73/4/3 79/4/3
f 81/5/3 79/5/3 80/5/3
f 82/4/3 81/4/3 80/4/3
f 83/4/3 73/4/3 81/4/3
f 83/4/3 81/4/3 82/4/3
f 84/3/3 83/3/3 82/3/3
f 85/4/3 73/4/3 83/4/3
f 85/3/3 83/3/3 84/3/3
f 86/4/3 85/4/3 84/4/3
f 87/3/3 74/3/3 73/3/3
f 87/4/3 85/4/3 86/4/3
f 87/4/3 73/4/3 85/4/3
f 88/4/3 75/4/3 74/4/3
f 88/3/3 74/3/3 87/3/3
f 89/4/3 75/4/3 88/4/3
f 94/4/3 91/4/3 90/4/3
f 95/1/3 92/1/3 91/1/3
f 95/4/3 91/4/3 94/4/3
f 96/4/3 93/4/3 92/4/3
f 96/1/3 92/1/3 95/1/3
f 97/4/3 93/4/3 96/4/3
f 98/4/4 99/4/4 100/4/4
f 100/4/4 99/4/4 101/4/4
f 102/4/4 103/4/4 106/4/4
f 103/1/4 104/1/4 107/1/4
f 106/4/4 103/4/4 107/4/4
f 104/4/4 105/4/4 108/4/4
f 107/1/4 104/1/4 108/1/4
f 108/4/4 105/4/4 109/4/4
f 110/4/4 111/4/4 114/4/4
f 114/4/4 111/4/4 115/4/4
f 114/3/4 115/3/4 116/3/4
f 115/4/4 111/4/4 117/4/4
f 116/3/4 115/3/4 117/3/4
f 116/4/4 117/4/4 118/4/4
f 117/4/4 111/4/4 119/4/4
f 118/4/4 117/4/4 119/4/4
f 118/3/4 119/3/4 120/3/4
f 119/4/4 111/4/4 121/4/4
f 120/3/4 119/3/4 121/3/4
f 120/4/4 121/4/4 122/4/4
f 121/4/4 111/4/4 123/4/4
f 122/4/4 121/4/4 123/4/4
f 122/3/4 123/3/4 124/3/4
f 123/4/4 111/4/4 125/4/4
f 124/3/4 123/3/4 125/3/4
f 111/3/4 112/3/4 126/3/4
f 125/4/4 111/4/4 126/4/4
f 112/4/4 113/4/4 127/4/4
f 126/3/4 112/3/4 127/3/4
f 127/4/4 113/4/4 128/4/4
f 129/1/4 130/1/4 131/1/4
f 131/1/4 130/1/4 132/1/4
f 135/1/5 134/1/5 133/1/5
f 136/1/5 134/1/5 135/1/5
f 137/1/5 135/1/5 133/1/5
f 137/4/5 136/4/5 135/4/5
f 138/1/5 134/1/5 136/1/5
f 138/4/5 136/4/5 137/4/5
f 139/1/5 137/1/5 133/1/5
f 139/1/5 138/1/5 137/1/5
f 140/1/5 134/1/5 138/1/5
f 140/1/5 138/1/5 139/1/5
f 141/1/6 142/1/6 143/1/6
f 143/1/6 142/1/6 144/1/6
f 144/1/6 142/1/6 145/1/6
f 145/1/6 142/1/6 146/1/6
f 143/4/6 144/4/6 147/4/6
f 145/4/6 146/4/6 148/4/6
f 143/4/6 147/4/6 149/4/6
f 147/4/6 148/4/6 149/4/6
f 149/4/6 148/4/6 150/4/6
f 150/4/6 148/4/6 151/4/6
f 151/4/6 148/4/6 152/4/6
f 152/4/6 148/4/6 153/4/6
f 153/4/6 148/4/6 154/4/6
f 148/4/6 146/4/6 155/4/6
f 154/4/6 148/4/6 155/4/6
f 143/4/6 149/4/6 156/4/6
f 155/4/6 146/4/6 157/4/6
f 143/4/6 156/4/6 158/4/6
f 157/4/6 146/4/6 159/4/6
f 143/4/6 158/4/6 160/4/6
f 159/4/6 146/4/6 161/4/6
f 143/4/6 160/4/6 162/4/6
f 161/4/6 146/4/6 168/4/6
f 141/1/6 143/1/6 169/1/6
f 167/4/6 168/4/6 169/4/6
f 166/4/6 167/4/6 169/4/6
f 143/4/6 162/4/6 169/4/6
f 165/4/6 166/4/6 169/4/6
f 164/4/6 165/4/6 169/4/6
f 163/4/6 164/4/6 169/4/6
f 162/4/6 163/4/6 169/4/6
f 168/4/6 146/4/6 170/4/6
f 169/4/6 168/4/6 170/4/6
f 146/1/6 142/1/6 170/1/6
f 141/1/6 169/1/6 171/1/6
f 169/1/6 170/1/6 171/1/6
f 170/1/6 142/1/6 172/1/6
f 171/1/6 170/1/6 172/1/6
f 173/4/6 174/4/6 175/4/6
f 175/4/6 174/4/6 176/4/6
f 177/4/6 178/4/6 179/4/6
f 179/4/6 178/4/6 180/4/6
f 180/4/6 178/4/6 181/4/6
f 181/4/6 178/4/6 182/4/6
f 182/4/6 178/4/6 183/4/6
f 177/4/6 179/4/6 184/4/6
f 180/2/6 181/2/6 185/2/6
f 181/3/6 182/3/6 186/3/6
f 185/2/6 181/2/6 186/2/6
f 182/2/6 183/2/6 187/2/6
f 186/3/6 182/3/6 187/3/6
f 183/4/6 178/4/6 188/4/6
f 187/2/6 183/2/6 188/2/6
f 177/4/6 184/4/6 189/4/6
f 184/2/6 185/2/6 189/2/6
f 185/3/6 186/3/6 190/3/6
f 189/2/6 185/2/6 190/2/6
f 186/2/6 187/2/6 191/2/6
f 190/3/6 186/3/6 191/3/6
f 187/3/6 188/3/6 192/3/6
f 191/2/6 187/2/6 192/2/6
f 188/4/6 178/4/6 193/4/6
f 192/3/6 188/3/6 193/3/6
f 189/4/6 190/4/6 194/4/6
f 177/4/6 189/4/6 194/4/6
f 192/4/6 193/4/6 194/4/6
f 191/4/6 192/4/6 194/4/6
f 190/4/6 191/4/6 194/4/6
f 193/4/6 178/4/6 195/4/6
f 194/4/6 193/4/6 195/4/6
f 196/4/6 197/4/6 198/4/6
f 198/4/6 197/4/6 199/4/6
