# MagicaVoxel @ Ephtracy

# group
g HC_Living

# material
mtllib HC_Living.mtl
usemtl palette

# normals
vn -1 0 0
vn 1 0 0
vn 0 0 1
vn 0 0 -1
vn 0 -1 0
vn 0 1 0

# texcoords
vt 0.373047 0.5
vt 0.779297 0.5
vt 0.892578 0.5
vt 0.974609 0.5
vt 0.982422 0.5
vt 0.986328 0.5

# verts
v -5 0 5
v -5 0 -5
v -5 1 5
v -5 1 -5
v -2 1 4
v -2 1 3
v -2 1 2
v -2 1 1
v -2 2 4
v -2 2 3
v -2 2 2
v -2 2 1
v -2 3 4
v -2 3 3
v -2 3 2
v -2 3 1
v -2 4 4
v -2 4 3
v -2 4 2
v -2 4 1
v -2 5 4
v -2 5 2
v -2 5 1
v 0 2 3
v 0 2 2
v 0 3 3
v 0 3 2
v 1 1 -1
v 1 1 -2
v 1 1 -3
v 1 1 -4
v 1 2 -2
v 1 2 -3
v 1 3 -3
v 1 3 -4
v 1 4 -3
v 1 4 -4
v 1 5 -3
v 1 5 -4
v 1 6 -1
v 1 6 -3
v 1 6 -4
v -1 2 3
v -1 2 2
v -1 3 3
v -1 3 2
v 1 1 4
v 1 1 2
v 1 1 1
v 1 2 4
v 1 2 3
v 1 2 2
v 1 2 1
v 1 3 4
v 1 3 3
v 1 3 2
v 1 3 1
v 1 4 4
v 1 4 3
v 1 4 2
v 1 4 1
v 1 5 4
v 1 5 3
v 1 5 1
v 4 1 -1
v 4 1 -4
v 4 2 -3
v 4 2 -4
v 4 3 -1
v 4 3 -2
v 4 3 -3
v 4 3 -4
v 4 4 -1
v 4 4 -2
v 4 4 -3
v 4 4 -4
v 4 5 -1
v 4 5 -2
v 4 5 -3
v 4 5 -4
v 4 6 -1
v 4 6 -2
v 4 6 -4
v 5 0 5
v 5 0 -5
v 5 1 5
v 5 1 -5
v -5 0 5
v -5 1 5
v 5 0 5
v 5 1 5
v -2 1 4
v -2 2 4
v -2 3 4
v -2 4 4
v -2 5 4
v -1 1 4
v -1 2 4
v -1 3 4
v -1 4 4
v 0 2 4
v 0 3 4
v 0 4 4
v 0 5 4
v 1 1 4
v 1 2 4
v 1 3 4
v 1 4 4
v 1 5 4
v -1 2 2
v -1 3 2
v 0 2 2
v 0 3 2
v 1 1 -1
v 1 6 -1
v 3 3 -1
v 3 4 -1
v 3 5 -1
v 3 6 -1
v 4 1 -1
v 4 3 -1
v 4 4 -1
v 4 5 -1
v 4 6 -1
v -1 2 3
v -1 3 3
v 0 2 3
v 0 3 3
v -2 1 1
v -2 2 1
v -2 3 1
v -2 4 1
v -2 5 1
v -1 2 1
v -1 3 1
v -1 4 1
v -1 5 1
v 0 1 1
v 0 2 1
v 0 3 1
v 0 4 1
v 1 1 1
v 1 2 1
v 1 3 1
v 1 4 1
v 1 5 1
v 1 1 -4
v 1 3 -4
v 1 4 -4
v 1 5 -4
v 1 6 -4
v 2 3 -4
v 2 4 -4
v 2 5 -4
v 2 6 -4
v 3 2 -4
v 3 3 -4
v 3 4 -4
v 3 5 -4
v 4 1 -4
v 4 2 -4
v 4 3 -4
v 4 4 -4
v 4 5 -4
v 4 6 -4
v -5 0 -5
v -5 1 -5
v 5 0 -5
v 5 1 -5
v -5 0 5
v 5 0 5
v -4 0 4
v 4 0 4
v -3 0 3
v -2 0 3
v -4 0 1
v -3 0 1
v -2 0 1
v 4 0 1
v -4 0 -1
v 0 0 -1
v 1 0 -1
v 4 0 -1
v 0 0 -3
v 1 0 -3
v -4 0 -4
v 4 0 -4
v -5 0 -5
v 5 0 -5
v -1 3 3
v 0 3 3
v -1 3 2
v 0 3 2
v -5 1 5
v 5 1 5
v -4 1 4
v -2 1 4
v -1 1 4
v 1 1 4
v 4 1 4
v -3 1 3
v -2 1 3
v -2 1 2
v 1 1 2
v -4 1 1
v -3 1 1
v -2 1 1
v 0 1 1
v 1 1 1
v 4 1 1
v -4 1 -1
v 0 1 -1
v 1 1 -1
v 4 1 -1
v 1 1 -2
v 0 1 -3
v 1 1 -3
v -4 1 -4
v 1 1 -4
v 4 1 -4
v -5 1 -5
v 5 1 -5
v -1 2 3
v 0 2 3
v -1 2 2
v 0 2 2
v -2 5 4
v 0 5 4
v 1 5 4
v 0 5 3
v 1 5 3
v -2 5 2
v -1 5 2
v -2 5 1
v -1 5 1
v 1 5 1
v 1 6 -1
v 3 6 -1
v 4 6 -1
v 3 6 -2
v 4 6 -2
v 1 6 -3
v 2 6 -3
v 1 6 -4
v 2 6 -4
v 4 6 -4

# faces
f 3/2/1 2/2/1 1/2/1
f 4/2/1 2/2/1 3/2/1
f 9/5/1 6/5/1 5/5/1
f 10/6/1 7/6/1 6/6/1
f 10/5/1 6/5/1 9/5/1
f 11/4/1 8/4/1 7/4/1
f 11/6/1 7/6/1 10/6/1
f 12/4/1 8/4/1 11/4/1
f 13/4/1 10/4/1 9/4/1
f 13/4/1 11/4/1 10/4/1
f 14/4/1 11/4/1 13/4/1
f 15/5/1 12/5/1 11/5/1
f 15/4/1 11/4/1 14/4/1
f 16/5/1 12/5/1 15/5/1
f 17/5/1 14/5/1 13/5/1
f 18/4/1 15/4/1 14/4/1
f 18/5/1 14/5/1 17/5/1
f 18/4/1 16/4/1 15/4/1
f 19/4/1 16/4/1 18/4/1
f 20/4/1 16/4/1 19/4/1
f 21/4/1 18/4/1 17/4/1
f 21/4/1 19/4/1 18/4/1
f 22/5/1 20/5/1 19/5/1
f 22/4/1 19/4/1 21/4/1
f 23/5/1 20/5/1 22/5/1
f 26/4/1 25/4/1 24/4/1
f 27/4/1 25/4/1 26/4/1
f 32/4/1 29/4/1 28/4/1
f 32/6/1 30/6/1 29/6/1
f 33/4/1 31/4/1 30/4/1
f 33/6/1 30/6/1 32/6/1
f 34/4/1 33/4/1 32/4/1
f 34/4/1 31/4/1 33/4/1
f 35/4/1 31/4/1 34/4/1
f 36/4/1 34/4/1 32/4/1
f 36/5/1 35/5/1 34/5/1
f 37/5/1 35/5/1 36/5/1
f 38/4/1 36/4/1 32/4/1
f 38/4/1 37/4/1 36/4/1
f 39/4/1 37/4/1 38/4/1
f 40/4/1 32/4/1 28/4/1
f 40/4/1 38/4/1 32/4/1
f 41/5/1 39/5/1 38/5/1
f 41/4/1 38/4/1 40/4/1
f 42/5/1 39/5/1 41/5/1
f 43/4/2 44/4/2 45/4/2
f 45/4/2 44/4/2 46/4/2
f 47/4/2 48/4/2 50/4/2
f 50/4/2 48/4/2 51/4/2
f 48/5/2 49/5/2 52/5/2
f 51/4/2 48/4/2 52/4/2
f 52/5/2 49/5/2 53/5/2
f 50/5/2 51/5/2 54/5/2
f 51/4/2 52/4/2 55/4/2
f 54/5/2 51/5/2 55/5/2
f 52/4/2 53/4/2 55/4/2
f 55/4/2 53/4/2 56/4/2
f 56/4/2 53/4/2 57/4/2
f 54/4/2 55/4/2 58/4/2
f 55/4/2 56/4/2 58/4/2
f 58/4/2 56/4/2 59/4/2
f 56/5/2 57/5/2 60/5/2
f 59/4/2 56/4/2 60/4/2
f 60/5/2 57/5/2 61/5/2
f 58/5/2 59/5/2 62/5/2
f 59/4/2 60/4/2 63/4/2
f 62/5/2 59/5/2 63/5/2
f 60/4/2 61/4/2 63/4/2
f 63/4/2 61/4/2 64/4/2
f 65/4/2 66/4/2 67/4/2
f 67/4/2 66/4/2 68/4/2
f 65/4/2 67/4/2 69/4/2
f 69/4/2 67/4/2 70/4/2
f 67/5/2 68/5/2 71/5/2
f 70/4/2 67/4/2 71/4/2
f 71/5/2 68/5/2 72/5/2
f 69/5/2 70/5/2 73/5/2
f 70/4/2 71/4/2 74/4/2
f 73/5/2 70/5/2 74/5/2
f 71/4/2 72/4/2 74/4/2
f 74/4/2 72/4/2 75/4/2
f 75/4/2 72/4/2 76/4/2
f 73/4/2 74/4/2 77/4/2
f 74/4/2 75/4/2 77/4/2
f 77/4/2 75/4/2 78/4/2
f 75/5/2 76/5/2 79/5/2
f 78/4/2 75/4/2 79/4/2
f 79/5/2 76/5/2 80/5/2
f 77/5/2 78/5/2 81/5/2
f 78/4/2 79/4/2 82/4/2
f 81/5/2 78/5/2 82/5/2
f 79/4/2 80/4/2 82/4/2
f 82/4/2 80/4/2 83/4/2
f 84/2/2 85/2/2 86/2/2
f 86/2/2 85/2/2 87/2/2
f 90/2/3 89/2/3 88/2/3
f 91/2/3 89/2/3 90/2/3
f 97/5/3 93/5/3 92/5/3
f 98/4/3 94/4/3 93/4/3
f 98/5/3 93/5/3 97/5/3
f 99/5/3 95/5/3 94/5/3
f 99/4/3 94/4/3 98/4/3
f 100/4/3 96/4/3 95/4/3
f 100/5/3 95/5/3 99/5/3
f 101/4/3 99/4/3 98/4/3
f 101/4/3 98/4/3 97/4/3
f 101/4/3 100/4/3 99/4/3
f 102/4/3 100/4/3 101/4/3
f 103/4/3 96/4/3 100/4/3
f 103/4/3 100/4/3 102/4/3
f 104/4/3 96/4/3 103/4/3
f 105/4/3 101/4/3 97/4/3
f 106/5/3 102/5/3 101/5/3
f 106/4/3 101/4/3 105/4/3
f 107/4/3 103/4/3 102/4/3
f 107/5/3 102/5/3 106/5/3
f 108/5/3 104/5/3 103/5/3
f 108/4/3 103/4/3 107/4/3
f 109/5/3 104/5/3 108/5/3
f 112/4/3 111/4/3 110/4/3
f 113/4/3 111/4/3 112/4/3
f 116/4/3 115/4/3 114/4/3
f 117/4/3 115/4/3 116/4/3
f 118/4/3 115/4/3 117/4/3
f 119/4/3 115/4/3 118/4/3
f 120/4/3 116/4/3 114/4/3
f 121/5/3 117/5/3 116/5/3
f 121/4/3 116/4/3 120/4/3
f 122/4/3 118/4/3 117/4/3
f 122/5/3 117/5/3 121/5/3
f 123/5/3 119/5/3 118/5/3
f 123/4/3 118/4/3 122/4/3
f 124/5/3 119/5/3 123/5/3
f 125/4/4 126/4/4 127/4/4
f 127/4/4 126/4/4 128/4/4
f 129/4/4 130/4/4 134/4/4
f 130/5/4 131/5/4 134/5/4
f 131/4/4 132/4/4 135/4/4
f 134/5/4 131/5/4 135/5/4
f 132/5/4 133/5/4 136/5/4
f 135/4/4 132/4/4 136/4/4
f 136/5/4 133/5/4 137/5/4
f 134/4/4 135/4/4 138/4/4
f 129/4/4 134/4/4 138/4/4
f 136/4/4 137/4/4 138/4/4
f 135/4/4 136/4/4 138/4/4
f 138/4/4 137/4/4 139/4/4
f 139/4/4 137/4/4 140/4/4
f 140/4/4 137/4/4 141/4/4
f 138/5/4 139/5/4 142/5/4
f 139/4/4 140/4/4 143/4/4
f 142/5/4 139/5/4 143/5/4
f 140/5/4 141/5/4 144/5/4
f 143/4/4 140/4/4 144/4/4
f 141/4/4 137/4/4 145/4/4
f 144/5/4 141/5/4 145/5/4
f 145/4/4 137/4/4 146/4/4
f 147/4/4 148/4/4 152/4/4
f 148/5/4 149/5/4 152/5/4
f 149/4/4 150/4/4 153/4/4
f 152/5/4 149/5/4 153/5/4
f 150/5/4 151/5/4 154/5/4
f 153/4/4 150/4/4 154/4/4
f 154/5/4 151/5/4 155/5/4
f 152/4/4 153/4/4 156/4/4
f 147/4/4 152/4/4 156/4/4
f 154/4/4 155/4/4 156/4/4
f 153/4/4 154/4/4 156/4/4
f 156/4/4 155/4/4 157/4/4
f 157/4/4 155/4/4 158/4/4
f 158/4/4 155/4/4 159/4/4
f 147/4/4 156/4/4 160/4/4
f 156/5/4 157/5/4 161/5/4
f 160/4/4 156/4/4 161/4/4
f 157/4/4 158/4/4 162/4/4
f 161/5/4 157/5/4 162/5/4
f 158/5/4 159/5/4 163/5/4
f 162/4/4 158/4/4 163/4/4
f 159/4/4 155/4/4 164/4/4
f 163/5/4 159/5/4 164/5/4
f 164/4/4 155/4/4 165/4/4
f 166/2/4 167/2/4 168/2/4
f 168/2/4 167/2/4 169/2/4
f 172/2/5 171/2/5 170/2/5
f 173/2/5 171/2/5 172/2/5
f 174/3/5 173/3/5 172/3/5
f 175/3/5 173/3/5 174/3/5
f 176/2/5 172/2/5 170/2/5
f 176/3/5 174/3/5 172/3/5
f 177/1/5 175/1/5 174/1/5
f 177/3/5 174/3/5 176/3/5
f 178/3/5 173/3/5 175/3/5
f 178/1/5 175/1/5 177/1/5
f 179/2/5 171/2/5 173/2/5
f 179/3/5 173/3/5 178/3/5
f 180/5/5 177/5/5 176/5/5
f 180/5/5 178/5/5 177/5/5
f 180/5/5 179/5/5 178/5/5
f 180/2/5 176/2/5 170/2/5
f 181/5/5 179/5/5 180/5/5
f 182/5/5 179/5/5 181/5/5
f 183/2/5 171/2/5 179/2/5
f 183/5/5 179/5/5 182/5/5
f 184/1/5 182/1/5 181/1/5
f 184/3/5 181/3/5 180/3/5
f 185/3/5 183/3/5 182/3/5
f 185/1/5 182/1/5 184/1/5
f 186/2/5 180/2/5 170/2/5
f 186/3/5 184/3/5 180/3/5
f 186/3/5 185/3/5 184/3/5
f 187/2/5 171/2/5 183/2/5
f 187/3/5 185/3/5 186/3/5
f 187/3/5 183/3/5 185/3/5
f 188/2/5 186/2/5 170/2/5
f 188/2/5 187/2/5 186/2/5
f 189/2/5 171/2/5 187/2/5
f 189/2/5 187/2/5 188/2/5
f 192/4/5 191/4/5 190/4/5
f 193/4/5 191/4/5 192/4/5
f 194/2/6 195/2/6 196/2/6
f 196/2/6 195/2/6 197/2/6
f 197/2/6 195/2/6 198/2/6
f 198/2/6 195/2/6 199/2/6
f 199/2/6 195/2/6 200/2/6
f 196/3/6 197/3/6 201/3/6
f 201/3/6 197/3/6 202/3/6
f 201/1/6 202/1/6 203/1/6
f 199/3/6 200/3/6 204/3/6
f 194/2/6 196/2/6 205/2/6
f 196/3/6 201/3/6 205/3/6
f 201/1/6 203/1/6 206/1/6
f 205/3/6 201/3/6 206/3/6
f 206/1/6 203/1/6 207/1/6
f 204/3/6 200/3/6 209/3/6
f 200/2/6 195/2/6 210/2/6
f 209/3/6 200/3/6 210/3/6
f 207/5/6 208/5/6 211/5/6
f 208/5/6 209/5/6 211/5/6
f 209/5/6 210/5/6 211/5/6
f 194/2/6 205/2/6 211/2/6
f 206/5/6 207/5/6 211/5/6
f 205/5/6 206/5/6 211/5/6
f 211/5/6 210/5/6 212/5/6
f 212/5/6 210/5/6 213/5/6
f 210/2/6 195/2/6 214/2/6
f 213/5/6 210/5/6 214/5/6
f 212/1/6 213/1/6 215/1/6
f 211/3/6 212/3/6 216/3/6
f 212/1/6 215/1/6 216/1/6
f 216/1/6 215/1/6 217/1/6
f 194/2/6 211/2/6 218/2/6
f 211/3/6 216/3/6 218/3/6
f 216/3/6 217/3/6 218/3/6
f 218/3/6 217/3/6 219/3/6
f 214/2/6 195/2/6 220/2/6
f 218/2/6 219/2/6 221/2/6
f 219/2/6 220/2/6 221/2/6
f 194/2/6 218/2/6 221/2/6
f 220/2/6 195/2/6 222/2/6
f 221/2/6 220/2/6 222/2/6
f 223/4/6 224/4/6 225/4/6
f 225/4/6 224/4/6 226/4/6
f 227/4/6 228/4/6 230/4/6
f 228/5/6 229/5/6 230/5/6
f 230/5/6 229/5/6 231/5/6
f 227/4/6 230/4/6 232/4/6
f 230/4/6 231/4/6 232/4/6
f 232/4/6 231/4/6 233/4/6
f 232/5/6 233/5/6 234/5/6
f 233/4/6 231/4/6 235/4/6
f 234/5/6 233/5/6 235/5/6
f 235/4/6 231/4/6 236/4/6
f 237/4/6 238/4/6 240/4/6
f 238/5/6 239/5/6 240/5/6
f 240/5/6 239/5/6 241/5/6
f 237/4/6 240/4/6 242/4/6
f 240/4/6 241/4/6 242/4/6
f 242/4/6 241/4/6 243/4/6
f 242/5/6 243/5/6 244/5/6
f 243/4/6 241/4/6 245/4/6
f 244/5/6 243/5/6 245/5/6
f 245/4/6 241/4/6 246/4/6
