# MagicaVoxel @ Ephtracy

# group
g HC_Living_Neutral

# material
mtllib HC_Living_Neutral.mtl
usemtl palette

# normals
vn -1 0 0
vn 1 0 0
vn 0 0 1
vn 0 0 -1
vn 0 -1 0
vn 0 1 0

# texcoords
vt 0.373047 0.5
vt 0.470703 0.5
vt 0.474609 0.5
vt 0.892578 0.5
vt 0.904297 0.5
vt 0.974609 0.5
vt 0.978516 0.5
vt 0.982422 0.5

# verts
v -5 0 5
v -5 0 1
v -5 0 -1
v -5 0 -5
v -5 1 5
v -5 1 1
v -5 1 -1
v -5 1 -5
v -4 1 4
v -4 1 3
v -4 1 -3
v -4 1 -4
v -4 2 4
v -4 2 3
v -4 2 -3
v -4 2 -4
v -3 1 -1
v -3 1 -2
v -3 2 -1
v -3 2 -2
v -2 1 4
v -2 1 1
v -2 2 4
v -2 2 1
v -2 3 4
v -2 3 1
v -2 4 4
v -2 4 1
v -2 5 4
v -2 5 1
v -1 1 -3
v -1 1 -4
v -1 2 -3
v -1 2 -4
v 0 2 3
v 0 2 2
v 0 3 3
v 0 3 2
v 1 1 -1
v 1 1 -2
v 1 1 -3
v 1 1 -4
v 1 2 -1
v 1 2 -2
v 1 2 -3
v 1 2 -4
v 1 3 -1
v 1 3 -4
v 1 4 -1
v 1 4 -4
v 1 5 -1
v 1 5 -4
v 1 6 -1
v 1 6 -4
v 3 1 3
v 3 1 2
v 3 2 3
v 3 2 2
v -3 1 4
v -3 1 3
v -3 1 -3
v -3 1 -4
v -3 2 4
v -3 2 3
v -3 2 -3
v -3 2 -4
v -2 1 -1
v -2 1 -2
v -2 2 -1
v -2 2 -2
v -1 2 3
v -1 2 2
v -1 3 3
v -1 3 2
v 0 1 -3
v 0 1 -4
v 0 2 -3
v 0 2 -4
v 1 1 4
v 1 1 1
v 1 2 4
v 1 2 1
v 1 3 4
v 1 3 1
v 1 4 4
v 1 4 1
v 1 5 4
v 1 5 1
v 4 1 3
v 4 1 2
v 4 1 -1
v 4 1 -4
v 4 2 3
v 4 2 2
v 4 2 -1
v 4 2 -4
v 4 3 -1
v 4 3 -4
v 4 4 -1
v 4 4 -4
v 4 5 -1
v 4 5 -4
v 4 6 -1
v 4 6 -4
v 5 0 5
v 5 0 1
v 5 0 -1
v 5 0 -5
v 5 1 5
v 5 1 1
v 5 1 -1
v 5 1 -5
v -5 0 5
v -5 1 5
v 5 0 5
v 5 1 5
v -4 1 4
v -4 2 4
v -3 1 4
v -3 2 4
v -2 1 4
v -2 2 4
v -2 3 4
v -2 4 4
v -2 5 4
v 1 1 4
v 1 2 4
v 1 3 4
v 1 4 4
v 1 5 4
v 3 1 3
v 3 2 3
v 4 1 3
v 4 2 3
v -1 2 2
v -1 3 2
v 0 2 2
v 0 3 2
v -3 1 -1
v -3 2 -1
v -2 1 -1
v -2 2 -1
v 1 1 -1
v 1 2 -1
v 1 3 -1
v 1 4 -1
v 1 5 -1
v 1 6 -1
v 4 1 -1
v 4 2 -1
v 4 3 -1
v 4 4 -1
v 4 5 -1
v 4 6 -1
v -4 1 -3
v -4 2 -3
v -3 1 -3
v -3 2 -3
v -1 1 -3
v -1 2 -3
v 0 1 -3
v 0 2 -3
v -4 1 3
v -4 2 3
v -3 1 3
v -3 2 3
v -1 2 3
v -1 3 3
v 0 2 3
v 0 3 3
v 3 1 2
v 3 2 2
v 4 1 2
v 4 2 2
v -2 1 1
v -2 2 1
v -2 3 1
v -2 4 1
v -2 5 1
v -1 1 1
v -1 2 1
v 0 1 1
v 0 2 1
v 1 1 1
v 1 2 1
v 1 3 1
v 1 4 1
v 1 5 1
v -3 1 -2
v -3 2 -2
v -2 1 -2
v -2 2 -2
v -4 1 -4
v -4 2 -4
v -3 1 -4
v -3 2 -4
v -1 1 -4
v -1 2 -4
v 0 1 -4
v 0 2 -4
v 1 1 -4
v 1 2 -4
v 1 3 -4
v 1 4 -4
v 1 5 -4
v 1 6 -4
v 4 1 -4
v 4 2 -4
v 4 3 -4
v 4 4 -4
v 4 5 -4
v 4 6 -4
v -5 0 -5
v -5 1 -5
v 5 0 -5
v 5 1 -5
v -5 0 5
v 5 0 5
v -5 0 1
v 5 0 1
v -5 0 -1
v 0 0 -1
v 1 0 -1
v 5 0 -1
v 0 0 -3
v 1 0 -3
v -5 0 -5
v 5 0 -5
v -1 3 3
v 0 3 3
v -1 3 2
v 0 3 2
v -5 1 5
v 5 1 5
v -4 1 4
v -3 1 4
v -2 1 4
v 1 1 4
v -4 1 3
v -3 1 3
v 3 1 3
v 4 1 3
v 3 1 2
v 4 1 2
v -5 1 1
v -2 1 1
v -1 1 1
v 0 1 1
v 1 1 1
v 5 1 1
v -5 1 -1
v -3 1 -1
v -2 1 -1
v 0 1 -1
v 1 1 -1
v 4 1 -1
v 5 1 -1
v -3 1 -2
v -2 1 -2
v 1 1 -2
v -4 1 -3
v -3 1 -3
v -1 1 -3
v 0 1 -3
v 1 1 -3
v -4 1 -4
v -3 1 -4
v -1 1 -4
v 0 1 -4
v 1 1 -4
v 4 1 -4
v -5 1 -5
v 5 1 -5
v -4 2 4
v -3 2 4
v -4 2 3
v -3 2 3
v -1 2 3
v 0 2 3
v 3 2 3
v 4 2 3
v -1 2 2
v 0 2 2
v 3 2 2
v 4 2 2
v -3 2 -1
v -2 2 -1
v -3 2 -2
v -2 2 -2
v -4 2 -3
v -3 2 -3
v -1 2 -3
v 0 2 -3
v -4 2 -4
v -3 2 -4
v -1 2 -4
v 0 2 -4
v -2 5 4
v 1 5 4
v -2 5 1
v 1 5 1
v 1 6 -1
v 4 6 -1
v 1 6 -4
v 4 6 -4

# faces
f 5/4/1 2/4/1 1/4/1
f 6/8/1 3/8/1 2/8/1
f 6/4/1 2/4/1 5/4/1
f 7/4/1 4/4/1 3/4/1
f 7/8/1 3/8/1 6/8/1
f 8/4/1 4/4/1 7/4/1
f 13/5/1 10/5/1 9/5/1
f 14/5/1 10/5/1 13/5/1
f 15/5/1 12/5/1 11/5/1
f 16/5/1 12/5/1 15/5/1
f 19/5/1 18/5/1 17/5/1
f 20/5/1 18/5/1 19/5/1
f 23/3/1 22/3/1 21/3/1
f 24/3/1 22/3/1 23/3/1
f 25/2/1 24/2/1 23/2/1
f 26/2/1 24/2/1 25/2/1
f 27/3/1 26/3/1 25/3/1
f 28/3/1 26/3/1 27/3/1
f 29/2/1 28/2/1 27/2/1
f 30/2/1 28/2/1 29/2/1
f 33/5/1 32/5/1 31/5/1
f 34/5/1 32/5/1 33/5/1
f 37/2/1 36/2/1 35/2/1
f 38/2/1 36/2/1 37/2/1
f 43/7/1 40/7/1 39/7/1
f 44/8/1 41/8/1 40/8/1
f 44/7/1 40/7/1 43/7/1
f 45/7/1 42/7/1 41/7/1
f 45/8/1 41/8/1 44/8/1
f 46/7/1 42/7/1 45/7/1
f 47/6/1 44/6/1 43/6/1
f 47/6/1 45/6/1 44/6/1
f 47/6/1 46/6/1 45/6/1
f 48/6/1 46/6/1 47/6/1
f 49/7/1 48/7/1 47/7/1
f 50/7/1 48/7/1 49/7/1
f 51/6/1 50/6/1 49/6/1
f 52/6/1 50/6/1 51/6/1
f 53/7/1 52/7/1 51/7/1
f 54/7/1 52/7/1 53/7/1
f 57/5/1 56/5/1 55/5/1
f 58/5/1 56/5/1 57/5/1
f 59/5/2 60/5/2 63/5/2
f 63/5/2 60/5/2 64/5/2
f 61/5/2 62/5/2 65/5/2
f 65/5/2 62/5/2 66/5/2
f 67/5/2 68/5/2 69/5/2
f 69/5/2 68/5/2 70/5/2
f 71/2/2 72/2/2 73/2/2
f 73/2/2 72/2/2 74/2/2
f 75/5/2 76/5/2 77/5/2
f 77/5/2 76/5/2 78/5/2
f 79/3/2 80/3/2 81/3/2
f 81/3/2 80/3/2 82/3/2
f 81/2/2 82/2/2 83/2/2
f 83/2/2 82/2/2 84/2/2
f 83/3/2 84/3/2 85/3/2
f 85/3/2 84/3/2 86/3/2
f 85/2/2 86/2/2 87/2/2
f 87/2/2 86/2/2 88/2/2
f 89/5/2 90/5/2 93/5/2
f 93/5/2 90/5/2 94/5/2
f 91/7/2 92/7/2 95/7/2
f 95/7/2 92/7/2 96/7/2
f 95/6/2 96/6/2 97/6/2
f 97/6/2 96/6/2 98/6/2
f 97/7/2 98/7/2 99/7/2
f 99/7/2 98/7/2 100/7/2
f 99/6/2 100/6/2 101/6/2
f 101/6/2 100/6/2 102/6/2
f 101/7/2 102/7/2 103/7/2
f 103/7/2 102/7/2 104/7/2
f 105/4/2 106/4/2 109/4/2
f 106/8/2 107/8/2 110/8/2
f 109/4/2 106/4/2 110/4/2
f 107/4/2 108/4/2 111/4/2
f 110/8/2 107/8/2 111/8/2
f 111/4/2 108/4/2 112/4/2
f 115/4/3 114/4/3 113/4/3
f 116/4/3 114/4/3 115/4/3
f 119/5/3 118/5/3 117/5/3
f 120/5/3 118/5/3 119/5/3
f 126/3/3 122/3/3 121/3/3
f 127/2/3 123/2/3 122/2/3
f 127/3/3 122/3/3 126/3/3
f 128/3/3 124/3/3 123/3/3
f 128/2/3 123/2/3 127/2/3
f 129/2/3 125/2/3 124/2/3
f 129/3/3 124/3/3 128/3/3
f 130/2/3 125/2/3 129/2/3
f 133/5/3 132/5/3 131/5/3
f 134/5/3 132/5/3 133/5/3
f 137/2/3 136/2/3 135/2/3
f 138/2/3 136/2/3 137/2/3
f 141/5/3 140/5/3 139/5/3
f 142/5/3 140/5/3 141/5/3
f 149/7/3 144/7/3 143/7/3
f 150/6/3 145/6/3 144/6/3
f 150/7/3 144/7/3 149/7/3
f 151/7/3 146/7/3 145/7/3
f 151/6/3 145/6/3 150/6/3
f 152/6/3 147/6/3 146/6/3
f 152/7/3 146/7/3 151/7/3
f 153/7/3 148/7/3 147/7/3
f 153/6/3 147/6/3 152/6/3
f 154/7/3 148/7/3 153/7/3
f 157/5/3 156/5/3 155/5/3
f 158/5/3 156/5/3 157/5/3
f 161/5/3 160/5/3 159/5/3
f 162/5/3 160/5/3 161/5/3
f 163/5/4 164/5/4 165/5/4
f 165/5/4 164/5/4 166/5/4
f 167/2/4 168/2/4 169/2/4
f 169/2/4 168/2/4 170/2/4
f 171/5/4 172/5/4 173/5/4
f 173/5/4 172/5/4 174/5/4
f 175/3/4 176/3/4 180/3/4
f 176/2/4 177/2/4 181/2/4
f 180/3/4 176/3/4 181/3/4
f 180/8/4 181/8/4 182/8/4
f 181/2/4 177/2/4 183/2/4
f 182/8/4 181/8/4 183/8/4
f 182/3/4 183/3/4 184/3/4
f 183/2/4 177/2/4 185/2/4
f 184/3/4 183/3/4 185/3/4
f 177/3/4 178/3/4 186/3/4
f 185/2/4 177/2/4 186/2/4
f 178/2/4 179/2/4 187/2/4
f 186/3/4 178/3/4 187/3/4
f 187/2/4 179/2/4 188/2/4
f 189/5/4 190/5/4 191/5/4
f 191/5/4 190/5/4 192/5/4
f 193/5/4 194/5/4 195/5/4
f 195/5/4 194/5/4 196/5/4
f 197/5/4 198/5/4 199/5/4
f 199/5/4 198/5/4 200/5/4
f 201/7/4 202/7/4 207/7/4
f 202/6/4 203/6/4 208/6/4
f 207/7/4 202/7/4 208/7/4
f 203/7/4 204/7/4 209/7/4
f 208/6/4 203/6/4 209/6/4
f 204/6/4 205/6/4 210/6/4
f 209/7/4 204/7/4 210/7/4
f 205/7/4 206/7/4 211/7/4
f 210/6/4 205/6/4 211/6/4
f 211/7/4 206/7/4 212/7/4
f 213/4/4 214/4/4 215/4/4
f 215/4/4 214/4/4 216/4/4
f 219/4/5 218/4/5 217/4/5
f 220/4/5 218/4/5 219/4/5
f 221/8/5 220/8/5 219/8/5
f 222/8/5 220/8/5 221/8/5
f 223/8/5 220/8/5 222/8/5
f 224/8/5 220/8/5 223/8/5
f 225/4/5 222/4/5 221/4/5
f 225/1/5 223/1/5 222/1/5
f 226/4/5 224/4/5 223/4/5
f 226/1/5 223/1/5 225/1/5
f 227/4/5 225/4/5 221/4/5
f 227/4/5 226/4/5 225/4/5
f 228/4/5 224/4/5 226/4/5
f 228/4/5 226/4/5 227/4/5
f 231/6/5 230/6/5 229/6/5
f 232/6/5 230/6/5 231/6/5
f 233/4/6 234/4/6 235/4/6
f 235/4/6 234/4/6 236/4/6
f 236/4/6 234/4/6 237/4/6
f 237/4/6 234/4/6 238/4/6
f 233/4/6 235/4/6 239/4/6
f 236/4/6 237/4/6 240/4/6
f 238/4/6 234/4/6 241/4/6
f 241/4/6 234/4/6 242/4/6
f 238/4/6 241/4/6 243/4/6
f 242/4/6 234/4/6 244/4/6
f 239/4/6 240/4/6 245/4/6
f 233/4/6 239/4/6 245/4/6
f 240/4/6 237/4/6 246/4/6
f 245/4/6 240/4/6 246/4/6
f 243/4/6 244/4/6 249/4/6
f 238/4/6 243/4/6 249/4/6
f 244/4/6 234/4/6 250/4/6
f 249/4/6 244/4/6 250/4/6
f 247/8/6 248/8/6 251/8/6
f 248/8/6 249/8/6 251/8/6
f 249/8/6 250/8/6 251/8/6
f 246/8/6 247/8/6 251/8/6
f 245/8/6 246/8/6 251/8/6
f 251/8/6 250/8/6 252/8/6
f 252/8/6 250/8/6 253/8/6
f 253/8/6 250/8/6 254/8/6
f 254/8/6 250/8/6 255/8/6
f 255/8/6 250/8/6 256/8/6
f 256/8/6 250/8/6 257/8/6
f 251/4/6 252/4/6 258/4/6
f 253/4/6 254/4/6 259/4/6
f 254/1/6 255/1/6 260/1/6
f 251/4/6 258/4/6 261/4/6
f 258/4/6 259/4/6 261/4/6
f 261/4/6 259/4/6 262/4/6
f 259/4/6 254/4/6 263/4/6
f 262/4/6 259/4/6 263/4/6
f 254/1/6 260/1/6 264/1/6
f 263/4/6 254/4/6 264/4/6
f 264/1/6 260/1/6 265/1/6
f 251/4/6 261/4/6 266/4/6
f 262/4/6 263/4/6 267/4/6
f 267/4/6 263/4/6 268/4/6
f 264/4/6 265/4/6 269/4/6
f 269/4/6 265/4/6 270/4/6
f 256/4/6 257/4/6 271/4/6
f 269/4/6 270/4/6 272/4/6
f 270/4/6 271/4/6 272/4/6
f 268/4/6 269/4/6 272/4/6
f 251/4/6 266/4/6 272/4/6
f 266/4/6 267/4/6 272/4/6
f 267/4/6 268/4/6 272/4/6
f 271/4/6 257/4/6 273/4/6
f 272/4/6 271/4/6 273/4/6
f 274/5/6 275/5/6 276/5/6
f 276/5/6 275/5/6 277/5/6
f 278/6/6 279/6/6 282/6/6
f 282/6/6 279/6/6 283/6/6
f 280/5/6 281/5/6 284/5/6
f 284/5/6 281/5/6 285/5/6
f 286/5/6 287/5/6 288/5/6
f 288/5/6 287/5/6 289/5/6
f 290/5/6 291/5/6 294/5/6
f 294/5/6 291/5/6 295/5/6
f 292/5/6 293/5/6 296/5/6
f 296/5/6 293/5/6 297/5/6
f 298/2/6 299/2/6 300/2/6
f 300/2/6 299/2/6 301/2/6
f 302/7/6 303/7/6 304/7/6
f 304/7/6 303/7/6 305/7/6
