# MagicaVoxel @ Ephtracy

# group
g HC_Living

# material
mtllib HC_Living.mtl
usemtl palette

# normals
vn -1 0 0
vn 1 0 0
vn 0 0 1
vn 0 0 -1
vn 0 -1 0
vn 0 1 0

# texcoords
vt 0.892578 0.5
vt 0.974609 0.5
vt 0.982422 0.5

# verts
v -5 0 5
v -5 0 1
v -5 0 -1
v -5 0 -5
v -5 1 5
v -5 1 1
v -5 1 -1
v -5 1 -5
v -2 1 4
v -2 1 1
v -2 5 4
v -2 5 1
v 0 2 3
v 0 2 2
v 0 3 3
v 0 3 2
v 1 1 -1
v 1 1 -4
v 1 6 -1
v 1 6 -4
v -1 2 3
v -1 2 2
v -1 3 3
v -1 3 2
v 1 1 4
v 1 1 1
v 1 5 4
v 1 5 1
v 4 1 -1
v 4 1 -4
v 4 6 -1
v 4 6 -4
v 5 0 5
v 5 0 1
v 5 0 -1
v 5 0 -5
v 5 1 5
v 5 1 1
v 5 1 -1
v 5 1 -5
v -5 0 5
v -5 1 5
v 5 0 5
v 5 1 5
v -2 1 4
v -2 5 4
v 1 1 4
v 1 5 4
v -1 2 2
v -1 3 2
v 0 2 2
v 0 3 2
v 1 1 -1
v 1 6 -1
v 4 1 -1
v 4 6 -1
v -1 2 3
v -1 3 3
v 0 2 3
v 0 3 3
v -2 1 1
v -2 5 1
v 1 1 1
v 1 5 1
v 1 1 -4
v 1 6 -4
v 4 1 -4
v 4 6 -4
v -5 0 -5
v -5 1 -5
v 5 0 -5
v 5 1 -5
v -5 0 5
v 5 0 5
v -5 0 1
v 5 0 1
v -5 0 -1
v 5 0 -1
v -5 0 -5
v 5 0 -5
v -1 3 3
v 0 3 3
v -1 3 2
v 0 3 2
v -5 1 5
v 5 1 5
v -2 1 4
v 1 1 4
v -5 1 1
v -2 1 1
v 1 1 1
v 5 1 1
v -5 1 -1
v 1 1 -1
v 4 1 -1
v 5 1 -1
v 1 1 -4
v 4 1 -4
v -5 1 -5
v 5 1 -5
v -1 2 3
v 0 2 3
v -1 2 2
v 0 2 2
v -2 5 4
v 1 5 4
v -2 5 1
v 1 5 1
v 1 6 -1
v 4 6 -1
v 1 6 -4
v 4 6 -4

# faces
f 5/1/1 2/1/1 1/1/1
f 6/3/1 3/3/1 2/3/1
f 6/1/1 2/1/1 5/1/1
f 7/1/1 4/1/1 3/1/1
f 7/3/1 3/3/1 6/3/1
f 8/1/1 4/1/1 7/1/1
f 11/2/1 10/2/1 9/2/1
f 12/2/1 10/2/1 11/2/1
f 15/2/1 14/2/1 13/2/1
f 16/2/1 14/2/1 15/2/1
f 19/2/1 18/2/1 17/2/1
f 20/2/1 18/2/1 19/2/1
f 21/2/2 22/2/2 23/2/2
f 23/2/2 22/2/2 24/2/2
f 25/2/2 26/2/2 27/2/2
f 27/2/2 26/2/2 28/2/2
f 29/2/2 30/2/2 31/2/2
f 31/2/2 30/2/2 32/2/2
f 33/1/2 34/1/2 37/1/2
f 34/3/2 35/3/2 38/3/2
f 37/1/2 34/1/2 38/1/2
f 35/1/2 36/1/2 39/1/2
f 38/3/2 35/3/2 39/3/2
f 39/1/2 36/1/2 40/1/2
f 43/1/3 42/1/3 41/1/3
f 44/1/3 42/1/3 43/1/3
f 47/2/3 46/2/3 45/2/3
f 48/2/3 46/2/3 47/2/3
f 51/2/3 50/2/3 49/2/3
f 52/2/3 50/2/3 51/2/3
f 55/2/3 54/2/3 53/2/3
f 56/2/3 54/2/3 55/2/3
f 57/2/4 58/2/4 59/2/4
f 59/2/4 58/2/4 60/2/4
f 61/2/4 62/2/4 63/2/4
f 63/2/4 62/2/4 64/2/4
f 65/2/4 66/2/4 67/2/4
f 67/2/4 66/2/4 68/2/4
f 69/1/4 70/1/4 71/1/4
f 71/1/4 70/1/4 72/1/4
f 75/1/5 74/1/5 73/1/5
f 76/1/5 74/1/5 75/1/5
f 77/3/5 76/3/5 75/3/5
f 78/3/5 76/3/5 77/3/5
f 79/1/5 78/1/5 77/1/5
f 80/1/5 78/1/5 79/1/5
f 83/2/5 82/2/5 81/2/5
f 84/2/5 82/2/5 83/2/5
f 85/1/6 86/1/6 87/1/6
f 87/1/6 86/1/6 88/1/6
f 85/1/6 87/1/6 89/1/6
f 89/1/6 87/1/6 90/1/6
f 88/1/6 86/1/6 91/1/6
f 91/1/6 86/1/6 92/1/6
f 89/3/6 90/3/6 93/3/6
f 90/3/6 91/3/6 93/3/6
f 91/3/6 92/3/6 93/3/6
f 93/3/6 92/3/6 94/3/6
f 94/3/6 92/3/6 95/3/6
f 95/3/6 92/3/6 96/3/6
f 93/1/6 94/1/6 97/1/6
f 95/1/6 96/1/6 98/1/6
f 93/1/6 97/1/6 99/1/6
f 97/1/6 98/1/6 99/1/6
f 98/1/6 96/1/6 100/1/6
f 99/1/6 98/1/6 100/1/6
f 101/2/6 102/2/6 103/2/6
f 103/2/6 102/2/6 104/2/6
f 105/2/6 106/2/6 107/2/6
f 107/2/6 106/2/6 108/2/6
f 109/2/6 110/2/6 111/2/6
f 111/2/6 110/2/6 112/2/6
