# MagicaVoxel @ Ephtracy

# group
g HC_Small_Park

# material
mtllib HC_Small_Park.mtl
usemtl palette

# normals
vn -1 0 0
vn 1 0 0
vn 0 0 1
vn 0 0 -1
vn 0 -1 0
vn 0 1 0

# texcoords
vt 0.255859 0.5
vt 0.369141 0.5
vt 0.373047 0.5
vt 0.537109 0.5
vt 0.888672 0.5
vt 0.900391 0.5
vt 0.904297 0.5
vt 0.978516 0.5

# verts
v -5 0 5
v -5 0 -2
v -5 0 -4
v -5 0 -5
v -5 1 5
v -5 1 -2
v -5 1 -4
v -5 1 -5
v -5 3 1
v -5 3 -0
v -5 4 1
v -5 4 -0
v -4 1 1
v -4 1 -0
v -4 3 2
v -4 3 1
v -4 3 -0
v -4 3 -1
v -4 4 2
v -4 4 1
v -4 4 -0
v -4 4 -1
v -4 5 1
v -4 5 -0
v -3 3 4
v -3 3 3
v -3 4 4
v -3 4 3
v -2 1 4
v -2 1 3
v -2 1 1
v -2 1 -1
v -2 2 1
v -2 2 -1
v -2 3 5
v -2 3 4
v -2 3 3
v -2 3 2
v -2 4 5
v -2 4 4
v -2 4 3
v -2 4 2
v -2 5 4
v -2 5 3
v 1 1 1
v 1 1 -1
v 1 2 1
v 1 2 -1
v 1 3 3
v 1 3 2
v 1 4 3
v 1 4 2
v 2 1 3
v 2 1 2
v 2 2 -0
v 2 2 -1
v 2 3 4
v 2 3 3
v 2 3 2
v 2 3 1
v 2 3 -0
v 2 3 -1
v 2 4 4
v 2 4 3
v 2 4 2
v 2 4 1
v 2 5 3
v 2 5 2
v 3 1 -0
v 3 1 -1
v 3 2 1
v 3 2 -0
v 3 2 -1
v 3 2 -2
v 3 3 1
v 3 3 -0
v 3 3 -1
v 3 3 -2
v 3 4 -0
v 3 4 -1
v -3 1 1
v -3 1 -0
v -3 3 2
v -3 3 1
v -3 3 -0
v -3 3 -1
v -3 4 2
v -3 4 1
v -3 4 -0
v -3 4 -1
v -3 5 1
v -3 5 -0
v -2 3 1
v -2 3 -0
v -2 4 1
v -2 4 -0
v -1 1 4
v -1 1 3
v -1 1 1
v -1 1 -1
v -1 2 1
v -1 2 -1
v -1 3 5
v -1 3 4
v -1 3 3
v -1 3 2
v -1 4 5
v -1 4 4
v -1 4 3
v -1 4 2
v -1 5 4
v -1 5 3
v 0 3 4
v 0 3 3
v 0 4 4
v 0 4 3
v 2 1 1
v 2 1 -1
v 2 2 1
v 2 2 -0
v 2 2 -1
v 3 1 3
v 3 1 2
v 3 3 4
v 3 3 3
v 3 3 2
v 3 3 1
v 3 4 4
v 3 4 3
v 3 4 2
v 3 4 1
v 3 5 3
v 3 5 2
v 4 1 -0
v 4 1 -1
v 4 2 1
v 4 2 -0
v 4 2 -1
v 4 2 -2
v 4 3 3
v 4 3 2
v 4 3 1
v 4 3 -0
v 4 3 -1
v 4 3 -2
v 4 4 3
v 4 4 2
v 4 4 -0
v 4 4 -1
v 5 0 5
v 5 0 -2
v 5 0 -4
v 5 0 -5
v 5 1 5
v 5 1 -2
v 5 1 -4
v 5 1 -5
v 5 2 -0
v 5 2 -1
v 5 3 -0
v 5 3 -1
v -5 0 5
v -5 1 5
v -2 3 5
v -2 4 5
v -1 3 5
v -1 4 5
v 5 0 5
v 5 1 5
v -3 3 4
v -3 4 4
v -2 1 4
v -2 3 4
v -2 4 4
v -2 5 4
v -1 1 4
v -1 3 4
v -1 4 4
v -1 5 4
v 0 3 4
v 0 4 4
v 2 3 4
v 2 4 4
v 3 3 4
v 3 4 4
v 1 3 3
v 1 4 3
v 2 1 3
v 2 3 3
v 2 4 3
v 2 5 3
v 3 1 3
v 3 3 3
v 3 4 3
v 3 5 3
v 4 3 3
v 4 4 3
v -4 3 2
v -4 4 2
v -3 3 2
v -3 4 2
v -5 3 1
v -5 4 1
v -4 1 1
v -4 3 1
v -4 4 1
v -4 5 1
v -3 1 1
v -3 3 1
v -3 4 1
v -3 5 1
v -2 1 1
v -2 2 1
v -2 3 1
v -2 4 1
v -1 1 1
v -1 2 1
v 1 1 1
v 1 2 1
v 2 1 1
v 2 2 1
v 3 2 1
v 3 3 1
v 4 2 1
v 4 3 1
v 2 2 -0
v 2 3 -0
v 3 1 -0
v 3 2 -0
v 3 3 -0
v 3 4 -0
v 4 1 -0
v 4 2 -0
v 4 3 -0
v 4 4 -0
v 5 2 -0
v 5 3 -0
v -3 3 3
v -3 4 3
v -2 1 3
v -2 3 3
v -2 4 3
v -2 5 3
v -1 1 3
v -1 3 3
v -1 4 3
v -1 5 3
v 0 3 3
v 0 4 3
v -2 3 2
v -2 4 2
v -1 3 2
v -1 4 2
v 1 3 2
v 1 4 2
v 2 1 2
v 2 3 2
v 2 4 2
v 2 5 2
v 3 1 2
v 3 3 2
v 3 4 2
v 3 5 2
v 4 3 2
v 4 4 2
v 2 3 1
v 2 4 1
v 3 3 1
v 3 4 1
v -5 3 -0
v -5 4 -0
v -4 1 -0
v -4 3 -0
v -4 4 -0
v -4 5 -0
v -3 1 -0
v -3 3 -0
v -3 4 -0
v -3 5 -0
v -2 3 -0
v -2 4 -0
v -4 3 -1
v -4 4 -1
v -3 3 -1
v -3 4 -1
v -2 1 -1
v -2 2 -1
v -1 1 -1
v -1 2 -1
v 1 1 -1
v 1 2 -1
v 2 1 -1
v 2 2 -1
v 2 3 -1
v 3 1 -1
v 3 2 -1
v 3 3 -1
v 3 4 -1
v 4 1 -1
v 4 2 -1
v 4 3 -1
v 4 4 -1
v 5 2 -1
v 5 3 -1
v 3 2 -2
v 3 3 -2
v 4 2 -2
v 4 3 -2
v -5 0 -5
v -5 1 -5
v 5 0 -5
v 5 1 -5
v -5 0 5
v 5 0 5
v 2 0 3
v 3 0 3
v -1 0 2
v 1 0 2
v 2 0 2
v 3 0 2
v -2 0 1
v -1 0 1
v 1 0 1
v 2 0 1
v -2 0 -1
v -1 0 -1
v 1 0 -1
v 2 0 -1
v -5 0 -2
v -1 0 -2
v 1 0 -2
v 5 0 -2
v -5 0 -4
v 5 0 -4
v -5 0 -5
v 5 0 -5
v 3 2 1
v 4 2 1
v 2 2 -0
v 3 2 -0
v 4 2 -0
v 5 2 -0
v 2 2 -1
v 3 2 -1
v 4 2 -1
v 5 2 -1
v 3 2 -2
v 4 2 -2
v -2 3 5
v -1 3 5
v -3 3 4
v -2 3 4
v -1 3 4
v 0 3 4
v 2 3 4
v 3 3 4
v -3 3 3
v -2 3 3
v -1 3 3
v 0 3 3
v 1 3 3
v 2 3 3
v 3 3 3
v 4 3 3
v -4 3 2
v -3 3 2
v -2 3 2
v -1 3 2
v 1 3 2
v 2 3 2
v 3 3 2
v 4 3 2
v -5 3 1
v -4 3 1
v -3 3 1
v -2 3 1
v 2 3 1
v 3 3 1
v -5 3 -0
v -4 3 -0
v -3 3 -0
v -2 3 -0
v -4 3 -1
v -3 3 -1
v -5 1 5
v 5 1 5
v -2 1 4
v -1 1 4
v -2 1 3
v -1 1 3
v 2 1 3
v 3 1 3
v -1 1 2
v 1 1 2
v 2 1 2
v 3 1 2
v -4 1 1
v -3 1 1
v -2 1 1
v -1 1 1
v 1 1 1
v 2 1 1
v -4 1 -0
v -3 1 -0
v 3 1 -0
v 4 1 -0
v -2 1 -1
v -1 1 -1
v 1 1 -1
v 2 1 -1
v 3 1 -1
v 4 1 -1
v -5 1 -2
v -1 1 -2
v 1 1 -2
v 5 1 -2
v -5 1 -4
v 5 1 -4
v -5 1 -5
v 5 1 -5
v -2 2 1
v -1 2 1
v 1 2 1
v 2 2 1
v 2 2 -0
v -2 2 -1
v -1 2 -1
v 1 2 -1
v 2 2 -1
v 3 3 1
v 4 3 1
v 2 3 -0
v 3 3 -0
v 4 3 -0
v 5 3 -0
v 2 3 -1
v 3 3 -1
v 4 3 -1
v 5 3 -1
v 3 3 -2
v 4 3 -2
v -2 4 5
v -1 4 5
v -3 4 4
v -2 4 4
v -1 4 4
v 0 4 4
v 2 4 4
v 3 4 4
v -3 4 3
v -2 4 3
v -1 4 3
v 0 4 3
v 1 4 3
v 2 4 3
v 3 4 3
v 4 4 3
v -4 4 2
v -3 4 2
v -2 4 2
v -1 4 2
v 1 4 2
v 2 4 2
v 3 4 2
v 4 4 2
v -5 4 1
v -4 4 1
v -3 4 1
v -2 4 1
v 2 4 1
v 3 4 1
v -5 4 -0
v -4 4 -0
v -3 4 -0
v -2 4 -0
v 3 4 -0
v 4 4 -0
v -4 4 -1
v -3 4 -1
v 3 4 -1
v 4 4 -1
v -2 5 4
v -1 5 4
v -2 5 3
v -1 5 3
v 2 5 3
v 3 5 3
v 2 5 2
v 3 5 2
v -4 5 1
v -3 5 1
v -4 5 -0
v -3 5 -0

# faces
f 5/5/1 2/5/1 1/5/1
f 6/8/1 3/8/1 2/8/1
f 6/5/1 2/5/1 5/5/1
f 7/5/1 4/5/1 3/5/1
f 7/8/1 3/8/1 6/8/1
f 8/5/1 4/5/1 7/5/1
f 11/7/1 10/7/1 9/7/1
f 12/7/1 10/7/1 11/7/1
f 16/4/1 14/4/1 13/4/1
f 17/4/1 14/4/1 16/4/1
f 19/7/1 16/7/1 15/7/1
f 20/7/1 16/7/1 19/7/1
f 21/7/1 18/7/1 17/7/1
f 22/7/1 18/7/1 21/7/1
f 23/7/1 21/7/1 20/7/1
f 24/7/1 21/7/1 23/7/1
f 27/7/1 26/7/1 25/7/1
f 28/7/1 26/7/1 27/7/1
f 33/1/1 32/1/1 31/1/1
f 34/1/1 32/1/1 33/1/1
f 36/4/1 30/4/1 29/4/1
f 37/4/1 30/4/1 36/4/1
f 39/7/1 36/7/1 35/7/1
f 40/7/1 36/7/1 39/7/1
f 41/7/1 38/7/1 37/7/1
f 42/7/1 38/7/1 41/7/1
f 43/7/1 41/7/1 40/7/1
f 44/7/1 41/7/1 43/7/1
f 47/1/1 46/1/1 45/1/1
f 48/1/1 46/1/1 47/1/1
f 51/7/1 50/7/1 49/7/1
f 52/7/1 50/7/1 51/7/1
f 58/4/1 54/4/1 53/4/1
f 59/4/1 54/4/1 58/4/1
f 61/7/1 56/7/1 55/7/1
f 62/7/1 56/7/1 61/7/1
f 63/7/1 58/7/1 57/7/1
f 64/7/1 58/7/1 63/7/1
f 65/7/1 60/7/1 59/7/1
f 66/7/1 60/7/1 65/7/1
f 67/7/1 65/7/1 64/7/1
f 68/7/1 65/7/1 67/7/1
f 72/4/1 70/4/1 69/4/1
f 73/4/1 70/4/1 72/4/1
f 75/7/1 72/7/1 71/7/1
f 76/7/1 72/7/1 75/7/1
f 77/6/1 74/6/1 73/6/1
f 78/6/1 74/6/1 77/6/1
f 79/7/1 77/7/1 76/7/1
f 80/7/1 77/7/1 79/7/1
f 81/4/2 82/4/2 84/4/2
f 84/4/2 82/4/2 85/4/2
f 83/7/2 84/7/2 87/7/2
f 87/7/2 84/7/2 88/7/2
f 85/7/2 86/7/2 89/7/2
f 89/7/2 86/7/2 90/7/2
f 88/7/2 89/7/2 91/7/2
f 91/7/2 89/7/2 92/7/2
f 93/7/2 94/7/2 95/7/2
f 95/7/2 94/7/2 96/7/2
f 99/1/2 100/1/2 101/1/2
f 101/1/2 100/1/2 102/1/2
f 97/4/2 98/4/2 104/4/2
f 104/4/2 98/4/2 105/4/2
f 103/7/2 104/7/2 107/7/2
f 107/7/2 104/7/2 108/7/2
f 105/7/2 106/7/2 109/7/2
f 109/7/2 106/7/2 110/7/2
f 108/7/2 109/7/2 111/7/2
f 111/7/2 109/7/2 112/7/2
f 113/7/2 114/7/2 115/7/2
f 115/7/2 114/7/2 116/7/2
f 117/1/2 118/1/2 119/1/2
f 119/1/2 118/1/2 120/1/2
f 120/1/2 118/1/2 121/1/2
f 122/4/2 123/4/2 125/4/2
f 125/4/2 123/4/2 126/4/2
f 124/7/2 125/7/2 128/7/2
f 128/7/2 125/7/2 129/7/2
f 126/7/2 127/7/2 130/7/2
f 130/7/2 127/7/2 131/7/2
f 129/7/2 130/7/2 132/7/2
f 132/7/2 130/7/2 133/7/2
f 134/4/2 135/4/2 137/4/2
f 137/4/2 135/4/2 138/4/2
f 136/7/2 137/7/2 142/7/2
f 142/7/2 137/7/2 143/7/2
f 138/6/2 139/6/2 144/6/2
f 144/6/2 139/6/2 145/6/2
f 140/7/2 141/7/2 146/7/2
f 146/7/2 141/7/2 147/7/2
f 143/7/2 144/7/2 148/7/2
f 148/7/2 144/7/2 149/7/2
f 150/5/2 151/5/2 154/5/2
f 151/8/2 152/8/2 155/8/2
f 154/5/2 151/5/2 155/5/2
f 152/5/2 153/5/2 156/5/2
f 155/8/2 152/8/2 156/8/2
f 156/5/2 153/5/2 157/5/2
f 158/6/2 159/6/2 160/6/2
f 160/6/2 159/6/2 161/6/2
f 166/7/3 165/7/3 164/7/3
f 167/7/3 165/7/3 166/7/3
f 168/5/3 163/5/3 162/5/3
f 169/5/3 163/5/3 168/5/3
f 173/7/3 171/7/3 170/7/3
f 174/7/3 171/7/3 173/7/3
f 176/4/3 173/4/3 172/4/3
f 177/4/3 173/4/3 176/4/3
f 178/7/3 175/7/3 174/7/3
f 179/7/3 175/7/3 178/7/3
f 180/7/3 178/7/3 177/7/3
f 181/7/3 178/7/3 180/7/3
f 184/7/3 183/7/3 182/7/3
f 185/7/3 183/7/3 184/7/3
f 189/7/3 187/7/3 186/7/3
f 190/7/3 187/7/3 189/7/3
f 192/4/3 189/4/3 188/4/3
f 193/4/3 189/4/3 192/4/3
f 194/7/3 191/7/3 190/7/3
f 195/7/3 191/7/3 194/7/3
f 196/7/3 194/7/3 193/7/3
f 197/7/3 194/7/3 196/7/3
f 200/7/3 199/7/3 198/7/3
f 201/7/3 199/7/3 200/7/3
f 205/7/3 203/7/3 202/7/3
f 206/7/3 203/7/3 205/7/3
f 208/4/3 205/4/3 204/4/3
f 209/4/3 205/4/3 208/4/3
f 210/7/3 207/7/3 206/7/3
f 211/7/3 207/7/3 210/7/3
f 214/7/3 210/7/3 209/7/3
f 215/7/3 210/7/3 214/7/3
f 216/1/3 213/1/3 212/1/3
f 217/1/3 213/1/3 216/1/3
f 220/1/3 219/1/3 218/1/3
f 221/1/3 219/1/3 220/1/3
f 224/7/3 223/7/3 222/7/3
f 225/7/3 223/7/3 224/7/3
f 229/7/3 227/7/3 226/7/3
f 230/7/3 227/7/3 229/7/3
f 232/4/3 229/4/3 228/4/3
f 233/4/3 229/4/3 232/4/3
f 234/7/3 231/7/3 230/7/3
f 235/7/3 231/7/3 234/7/3
f 236/6/3 234/6/3 233/6/3
f 237/6/3 234/6/3 236/6/3
f 238/7/4 239/7/4 241/7/4
f 241/7/4 239/7/4 242/7/4
f 240/4/4 241/4/4 244/4/4
f 244/4/4 241/4/4 245/4/4
f 242/7/4 243/7/4 246/7/4
f 246/7/4 243/7/4 247/7/4
f 245/7/4 246/7/4 248/7/4
f 248/7/4 246/7/4 249/7/4
f 250/7/4 251/7/4 252/7/4
f 252/7/4 251/7/4 253/7/4
f 254/7/4 255/7/4 257/7/4
f 257/7/4 255/7/4 258/7/4
f 256/4/4 257/4/4 260/4/4
f 260/4/4 257/4/4 261/4/4
f 258/7/4 259/7/4 262/7/4
f 262/7/4 259/7/4 263/7/4
f 261/7/4 262/7/4 264/7/4
f 264/7/4 262/7/4 265/7/4
f 266/7/4 267/7/4 268/7/4
f 268/7/4 267/7/4 269/7/4
f 270/7/4 271/7/4 273/7/4
f 273/7/4 271/7/4 274/7/4
f 272/4/4 273/4/4 276/4/4
f 276/4/4 273/4/4 277/4/4
f 274/7/4 275/7/4 278/7/4
f 278/7/4 275/7/4 279/7/4
f 277/7/4 278/7/4 280/7/4
f 280/7/4 278/7/4 281/7/4
f 282/7/4 283/7/4 284/7/4
f 284/7/4 283/7/4 285/7/4
f 286/1/4 287/1/4 288/1/4
f 288/1/4 287/1/4 289/1/4
f 290/1/4 291/1/4 292/1/4
f 292/1/4 291/1/4 293/1/4
f 293/7/4 294/7/4 296/7/4
f 296/7/4 294/7/4 297/7/4
f 295/4/4 296/4/4 299/4/4
f 299/4/4 296/4/4 300/4/4
f 297/7/4 298/7/4 301/7/4
f 301/7/4 298/7/4 302/7/4
f 300/6/4 301/6/4 303/6/4
f 303/6/4 301/6/4 304/6/4
f 305/6/4 306/6/4 307/6/4
f 307/6/4 306/6/4 308/6/4
f 309/5/4 310/5/4 311/5/4
f 311/5/4 310/5/4 312/5/4
f 315/5/5 314/5/5 313/5/5
f 316/5/5 314/5/5 315/5/5
f 317/5/5 315/5/5 313/5/5
f 318/5/5 315/5/5 317/5/5
f 319/2/5 316/2/5 315/2/5
f 319/5/5 315/5/5 318/5/5
f 320/5/5 314/5/5 316/5/5
f 320/2/5 316/2/5 319/2/5
f 321/5/5 317/5/5 313/5/5
f 322/8/5 318/8/5 317/8/5
f 322/5/5 317/5/5 321/5/5
f 323/5/5 319/5/5 318/5/5
f 323/8/5 318/8/5 322/8/5
f 323/5/5 320/5/5 319/5/5
f 324/5/5 320/5/5 323/5/5
f 325/3/5 322/3/5 321/3/5
f 325/5/5 321/5/5 313/5/5
f 326/8/5 323/8/5 322/8/5
f 326/3/5 322/3/5 325/3/5
f 327/3/5 324/3/5 323/3/5
f 327/8/5 323/8/5 326/8/5
f 328/5/5 320/5/5 324/5/5
f 328/3/5 324/3/5 327/3/5
f 329/5/5 326/5/5 325/5/5
f 329/5/5 325/5/5 313/5/5
f 330/8/5 327/8/5 326/8/5
f 330/5/5 326/5/5 329/5/5
f 331/5/5 328/5/5 327/5/5
f 331/8/5 327/8/5 330/8/5
f 332/5/5 320/5/5 328/5/5
f 332/5/5 328/5/5 331/5/5
f 332/5/5 314/5/5 320/5/5
f 333/8/5 331/8/5 330/8/5
f 333/8/5 330/8/5 329/8/5
f 333/8/5 332/8/5 331/8/5
f 334/8/5 332/8/5 333/8/5
f 335/5/5 334/5/5 333/5/5
f 336/5/5 334/5/5 335/5/5
f 340/7/5 338/7/5 337/7/5
f 341/7/5 338/7/5 340/7/5
f 343/7/5 340/7/5 339/7/5
f 344/7/5 340/7/5 343/7/5
f 345/6/5 342/6/5 341/6/5
f 346/6/5 342/6/5 345/6/5
f 347/6/5 345/6/5 344/6/5
f 348/6/5 345/6/5 347/6/5
f 352/7/5 350/7/5 349/7/5
f 353/7/5 350/7/5 352/7/5
f 357/7/5 352/7/5 351/7/5
f 358/7/5 352/7/5 357/7/5
f 359/7/5 354/7/5 353/7/5
f 360/7/5 354/7/5 359/7/5
f 362/7/5 356/7/5 355/7/5
f 363/7/5 356/7/5 362/7/5
f 367/7/5 359/7/5 358/7/5
f 368/7/5 359/7/5 367/7/5
f 369/7/5 362/7/5 361/7/5
f 370/7/5 362/7/5 369/7/5
f 371/7/5 364/7/5 363/7/5
f 372/7/5 364/7/5 371/7/5
f 374/7/5 366/7/5 365/7/5
f 375/7/5 366/7/5 374/7/5
f 377/7/5 371/7/5 370/7/5
f 378/7/5 371/7/5 377/7/5
f 379/7/5 374/7/5 373/7/5
f 380/7/5 374/7/5 379/7/5
f 381/7/5 376/7/5 375/7/5
f 382/7/5 376/7/5 381/7/5
f 383/7/5 381/7/5 380/7/5
f 384/7/5 381/7/5 383/7/5
f 385/5/6 386/5/6 387/5/6
f 387/5/6 386/5/6 388/5/6
f 385/5/6 387/5/6 389/5/6
f 388/5/6 386/5/6 390/5/6
f 390/5/6 386/5/6 391/5/6
f 391/5/6 386/5/6 392/5/6
f 389/5/6 390/5/6 393/5/6
f 390/5/6 391/5/6 393/5/6
f 393/5/6 391/5/6 394/5/6
f 394/5/6 391/5/6 395/5/6
f 392/5/6 386/5/6 396/5/6
f 385/5/6 389/5/6 397/5/6
f 389/5/6 393/5/6 397/5/6
f 397/5/6 393/5/6 398/5/6
f 398/5/6 393/5/6 399/5/6
f 393/8/6 394/8/6 400/8/6
f 399/5/6 393/5/6 400/5/6
f 395/5/6 396/5/6 401/5/6
f 400/8/6 394/8/6 401/8/6
f 394/5/6 395/5/6 401/5/6
f 401/5/6 396/5/6 402/5/6
f 385/5/6 397/5/6 403/5/6
f 398/5/6 399/5/6 404/5/6
f 402/5/6 396/5/6 405/5/6
f 396/5/6 386/5/6 405/5/6
f 405/5/6 386/5/6 406/5/6
f 403/5/6 404/5/6 407/5/6
f 404/5/6 399/5/6 407/5/6
f 400/8/6 401/8/6 408/8/6
f 408/8/6 401/8/6 409/8/6
f 402/5/6 405/5/6 410/5/6
f 410/5/6 405/5/6 411/5/6
f 406/5/6 386/5/6 412/5/6
f 403/5/6 407/5/6 413/5/6
f 385/5/6 403/5/6 413/5/6
f 407/5/6 408/5/6 413/5/6
f 408/8/6 409/8/6 414/8/6
f 413/5/6 408/5/6 414/5/6
f 410/5/6 411/5/6 415/5/6
f 414/8/6 409/8/6 415/8/6
f 411/5/6 412/5/6 415/5/6
f 409/5/6 410/5/6 415/5/6
f 412/5/6 386/5/6 416/5/6
f 415/5/6 412/5/6 416/5/6
f 413/8/6 414/8/6 417/8/6
f 414/8/6 415/8/6 417/8/6
f 415/8/6 416/8/6 417/8/6
f 417/8/6 416/8/6 418/8/6
f 417/5/6 418/5/6 419/5/6
f 419/5/6 418/5/6 420/5/6
f 423/1/6 424/1/6 425/1/6
f 421/1/6 422/1/6 426/1/6
f 426/1/6 422/1/6 427/1/6
f 423/1/6 425/1/6 428/1/6
f 428/1/6 425/1/6 429/1/6
f 430/7/6 431/7/6 433/7/6
f 433/7/6 431/7/6 434/7/6
f 432/7/6 433/7/6 436/7/6
f 436/7/6 433/7/6 437/7/6
f 434/6/6 435/6/6 438/6/6
f 438/6/6 435/6/6 439/6/6
f 437/6/6 438/6/6 440/6/6
f 440/6/6 438/6/6 441/6/6
f 442/7/6 443/7/6 445/7/6
f 445/7/6 443/7/6 446/7/6
f 444/7/6 445/7/6 450/7/6
f 450/7/6 445/7/6 451/7/6
f 446/7/6 447/7/6 452/7/6
f 452/7/6 447/7/6 453/7/6
f 448/7/6 449/7/6 455/7/6
f 455/7/6 449/7/6 456/7/6
f 451/7/6 452/7/6 460/7/6
f 460/7/6 452/7/6 461/7/6
f 454/7/6 455/7/6 462/7/6
f 462/7/6 455/7/6 463/7/6
f 456/7/6 457/7/6 464/7/6
f 464/7/6 457/7/6 465/7/6
f 458/7/6 459/7/6 467/7/6
f 467/7/6 459/7/6 468/7/6
f 463/7/6 464/7/6 470/7/6
f 470/7/6 464/7/6 471/7/6
f 466/7/6 467/7/6 472/7/6
f 472/7/6 467/7/6 473/7/6
f 468/7/6 469/7/6 474/7/6
f 474/7/6 469/7/6 475/7/6
f 473/7/6 474/7/6 478/7/6
f 478/7/6 474/7/6 479/7/6
f 476/7/6 477/7/6 480/7/6
f 480/7/6 477/7/6 481/7/6
f 482/7/6 483/7/6 484/7/6
f 484/7/6 483/7/6 485/7/6
f 486/7/6 487/7/6 488/7/6
f 488/7/6 487/7/6 489/7/6
f 490/7/6 491/7/6 492/7/6
f 492/7/6 491/7/6 493/7/6
