# MagicaVoxel @ Ephtracy

# group
g HC_Small_Playground

# material
mtllib HC_Small_Playground.mtl
usemtl palette

# normals
vn -1 0 0
vn 1 0 0
vn 0 0 1
vn 0 0 -1
vn 0 -1 0
vn 0 1 0

# texcoords
vt 0.0878906 0.5
vt 0.826172 0.5
vt 0.849609 0.5
vt 0.888672 0.5
vt 0.892578 0.5
vt 0.896484 0.5
vt 0.978516 0.5

# verts
v -5 0 5
v -5 0 -2
v -5 0 -4
v -5 0 -5
v -5 1 5
v -5 1 -2
v -5 1 -4
v -5 1 -5
v -3 1 -0
v -3 1 -1
v -3 2 -0
v -3 2 -1
v -1 1 -0
v -1 1 -1
v -1 2 -0
v -1 2 -1
v 2 1 3
v 2 1 2
v 2 1 1
v 2 1 -0
v 2 2 2
v 2 2 1
v 2 3 3
v 2 3 -0
v -2 1 -0
v -2 1 -1
v -2 2 -0
v -2 2 -1
v 0 1 -0
v 0 1 -1
v 0 2 -0
v 0 2 -1
v 3 1 3
v 3 1 2
v 3 1 1
v 3 1 -0
v 3 2 2
v 3 2 1
v 3 3 3
v 3 3 -0
v 5 0 5
v 5 0 -2
v 5 0 -4
v 5 0 -5
v 5 1 5
v 5 1 -2
v 5 1 -4
v 5 1 -5
v -5 0 5
v -5 1 5
v 5 0 5
v 5 1 5
v 2 1 3
v 2 3 3
v 3 1 3
v 3 3 3
v 2 1 1
v 2 2 1
v 3 1 1
v 3 2 1
v -3 1 -0
v -3 2 -0
v -2 1 -0
v -2 2 -0
v -1 1 -0
v -1 2 -0
v 0 1 -0
v 0 2 -0
v 2 1 2
v 2 2 2
v 3 1 2
v 3 2 2
v 2 1 -0
v 2 3 -0
v 3 1 -0
v 3 3 -0
v -3 1 -1
v -3 2 -1
v -2 1 -1
v -2 2 -1
v -1 1 -1
v -1 2 -1
v 0 1 -1
v 0 2 -1
v -5 0 -5
v -5 1 -5
v 5 0 -5
v 5 1 -5
v -5 0 5
v 5 0 5
v -4 0 4
v -3 0 4
v 0 0 4
v 1 0 4
v 2 0 4
v 3 0 4
v 4 0 4
v -4 0 3
v -3 0 3
v 0 0 3
v 1 0 3
v 2 0 3
v 3 0 3
v 4 0 3
v -4 0 2
v -3 0 2
v 0 0 2
v 1 0 2
v 2 0 2
v 3 0 2
v 4 0 2
v -4 0 1
v -3 0 1
v -2 0 1
v -1 0 1
v 0 0 1
v 1 0 1
v 2 0 1
v 3 0 1
v 4 0 1
v -4 0 -0
v -3 0 -0
v -2 0 -0
v -1 0 -0
v 0 0 -0
v 1 0 -0
v 2 0 -0
v 3 0 -0
v 4 0 -0
v -4 0 -1
v -3 0 -1
v -2 0 -1
v -1 0 -1
v 0 0 -1
v 1 0 -1
v 2 0 -1
v 3 0 -1
v 4 0 -1
v -5 0 -2
v -4 0 -2
v -3 0 -2
v -2 0 -2
v -1 0 -2
v 0 0 -2
v 1 0 -2
v 2 0 -2
v 3 0 -2
v 4 0 -2
v 5 0 -2
v -5 0 -4
v 5 0 -4
v -5 0 -5
v 5 0 -5
v 2 2 2
v 3 2 2
v 2 2 1
v 3 2 1
v -5 1 5
v 5 1 5
v -4 1 4
v -3 1 4
v 0 1 4
v 1 1 4
v 2 1 4
v 3 1 4
v 4 1 4
v -4 1 3
v -3 1 3
v 0 1 3
v 1 1 3
v 2 1 3
v 3 1 3
v 4 1 3
v -4 1 2
v -3 1 2
v 0 1 2
v 1 1 2
v 2 1 2
v 3 1 2
v 4 1 2
v -4 1 1
v -3 1 1
v -2 1 1
v -1 1 1
v 0 1 1
v 1 1 1
v 2 1 1
v 3 1 1
v 4 1 1
v -4 1 -0
v -3 1 -0
v -2 1 -0
v -1 1 -0
v 0 1 -0
v 1 1 -0
v 2 1 -0
v 3 1 -0
v 4 1 -0
v -4 1 -1
v -3 1 -1
v -2 1 -1
v -1 1 -1
v 0 1 -1
v 1 1 -1
v 2 1 -1
v 3 1 -1
v 4 1 -1
v -5 1 -2
v -4 1 -2
v -3 1 -2
v -2 1 -2
v -1 1 -2
v 0 1 -2
v 1 1 -2
v 2 1 -2
v 3 1 -2
v 4 1 -2
v 5 1 -2
v -5 1 -4
v 5 1 -4
v -5 1 -5
v 5 1 -5
v -3 2 -0
v -2 2 -0
v -1 2 -0
v 0 2 -0
v -3 2 -1
v -2 2 -1
v -1 2 -1
v 0 2 -1
v 2 3 3
v 3 3 3
v 2 3 -0
v 3 3 -0

# faces
f 5/4/1 2/4/1 1/4/1
f 6/7/1 3/7/1 2/7/1
f 6/4/1 2/4/1 5/4/1
f 7/4/1 4/4/1 3/4/1
f 7/7/1 3/7/1 6/7/1
f 8/4/1 4/4/1 7/4/1
f 11/2/1 10/2/1 9/2/1
f 12/2/1 10/2/1 11/2/1
f 15/2/1 14/2/1 13/2/1
f 16/2/1 14/2/1 15/2/1
f 21/3/1 18/3/1 17/3/1
f 22/3/1 20/3/1 19/3/1
f 23/3/1 21/3/1 17/3/1
f 23/3/1 22/3/1 21/3/1
f 24/3/1 20/3/1 22/3/1
f 24/3/1 22/3/1 23/3/1
f 25/2/2 26/2/2 27/2/2
f 27/2/2 26/2/2 28/2/2
f 29/2/2 30/2/2 31/2/2
f 31/2/2 30/2/2 32/2/2
f 33/3/2 34/3/2 37/3/2
f 35/3/2 36/3/2 38/3/2
f 33/3/2 37/3/2 39/3/2
f 37/3/2 38/3/2 39/3/2
f 38/3/2 36/3/2 40/3/2
f 39/3/2 38/3/2 40/3/2
f 41/4/2 42/4/2 45/4/2
f 42/7/2 43/7/2 46/7/2
f 45/4/2 42/4/2 46/4/2
f 43/4/2 44/4/2 47/4/2
f 46/7/2 43/7/2 47/7/2
f 47/4/2 44/4/2 48/4/2
f 51/4/3 50/4/3 49/4/3
f 52/4/3 50/4/3 51/4/3
f 55/3/3 54/3/3 53/3/3
f 56/3/3 54/3/3 55/3/3
f 59/3/3 58/3/3 57/3/3
f 60/3/3 58/3/3 59/3/3
f 63/2/3 62/2/3 61/2/3
f 64/2/3 62/2/3 63/2/3
f 67/2/3 66/2/3 65/2/3
f 68/2/3 66/2/3 67/2/3
f 69/3/4 70/3/4 71/3/4
f 71/3/4 70/3/4 72/3/4
f 73/3/4 74/3/4 75/3/4
f 75/3/4 74/3/4 76/3/4
f 77/2/4 78/2/4 79/2/4
f 79/2/4 78/2/4 80/2/4
f 81/2/4 82/2/4 83/2/4
f 83/2/4 82/2/4 84/2/4
f 85/4/4 86/4/4 87/4/4
f 87/4/4 86/4/4 88/4/4
f 91/4/5 90/4/5 89/4/5
f 92/4/5 90/4/5 91/4/5
f 93/4/5 90/4/5 92/4/5
f 94/4/5 90/4/5 93/4/5
f 95/4/5 90/4/5 94/4/5
f 96/4/5 90/4/5 95/4/5
f 97/4/5 90/4/5 96/4/5
f 98/4/5 91/4/5 89/4/5
f 98/5/5 92/5/5 91/5/5
f 99/1/5 93/1/5 92/1/5
f 99/5/5 92/5/5 98/5/5
f 100/5/5 94/5/5 93/5/5
f 100/1/5 93/1/5 99/1/5
f 101/6/5 95/6/5 94/6/5
f 101/5/5 94/5/5 100/5/5
f 102/5/5 96/5/5 95/5/5
f 102/6/5 95/6/5 101/6/5
f 103/6/5 97/6/5 96/6/5
f 103/5/5 96/5/5 102/5/5
f 104/4/5 90/4/5 97/4/5
f 104/6/5 97/6/5 103/6/5
f 105/4/5 98/4/5 89/4/5
f 105/6/5 99/6/5 98/6/5
f 106/1/5 100/1/5 99/1/5
f 106/6/5 99/6/5 105/6/5
f 107/6/5 101/6/5 100/6/5
f 107/1/5 100/1/5 106/1/5
f 108/5/5 102/5/5 101/5/5
f 108/6/5 101/6/5 107/6/5
f 109/6/5 103/6/5 102/6/5
f 109/5/5 102/5/5 108/5/5
f 110/5/5 104/5/5 103/5/5
f 110/6/5 103/6/5 109/6/5
f 111/4/5 90/4/5 104/4/5
f 111/5/5 104/5/5 110/5/5
f 112/4/5 105/4/5 89/4/5
f 112/5/5 106/5/5 105/5/5
f 113/1/5 107/1/5 106/1/5
f 113/5/5 106/5/5 112/5/5
f 114/1/5 107/1/5 113/1/5
f 115/1/5 107/1/5 114/1/5
f 116/5/5 108/5/5 107/5/5
f 116/1/5 107/1/5 115/1/5
f 117/6/5 109/6/5 108/6/5
f 117/5/5 108/5/5 116/5/5
f 118/5/5 110/5/5 109/5/5
f 118/6/5 109/6/5 117/6/5
f 119/6/5 111/6/5 110/6/5
f 119/5/5 110/5/5 118/5/5
f 120/4/5 90/4/5 111/4/5
f 120/6/5 111/6/5 119/6/5
f 121/4/5 112/4/5 89/4/5
f 121/6/5 113/6/5 112/6/5
f 122/5/5 114/5/5 113/5/5
f 122/6/5 113/6/5 121/6/5
f 123/6/5 115/6/5 114/6/5
f 123/5/5 114/5/5 122/5/5
f 124/5/5 116/5/5 115/5/5
f 124/6/5 115/6/5 123/6/5
f 125/6/5 117/6/5 116/6/5
f 125/5/5 116/5/5 124/5/5
f 126/5/5 118/5/5 117/5/5
f 126/6/5 117/6/5 125/6/5
f 127/6/5 119/6/5 118/6/5
f 127/5/5 118/5/5 126/5/5
f 128/5/5 120/5/5 119/5/5
f 128/6/5 119/6/5 127/6/5
f 129/4/5 90/4/5 120/4/5
f 129/5/5 120/5/5 128/5/5
f 130/5/5 122/5/5 121/5/5
f 130/4/5 121/4/5 89/4/5
f 131/6/5 123/6/5 122/6/5
f 131/5/5 122/5/5 130/5/5
f 132/5/5 124/5/5 123/5/5
f 132/6/5 123/6/5 131/6/5
f 133/6/5 125/6/5 124/6/5
f 133/5/5 124/5/5 132/5/5
f 134/5/5 126/5/5 125/5/5
f 134/6/5 125/6/5 133/6/5
f 135/6/5 127/6/5 126/6/5
f 135/5/5 126/5/5 134/5/5
f 136/5/5 128/5/5 127/5/5
f 136/6/5 127/6/5 135/6/5
f 137/6/5 129/6/5 128/6/5
f 137/5/5 128/5/5 136/5/5
f 138/4/5 90/4/5 129/4/5
f 138/6/5 129/6/5 137/6/5
f 139/4/5 130/4/5 89/4/5
f 140/6/5 131/6/5 130/6/5
f 140/4/5 130/4/5 139/4/5
f 141/5/5 132/5/5 131/5/5
f 141/6/5 131/6/5 140/6/5
f 142/6/5 133/6/5 132/6/5
f 142/5/5 132/5/5 141/5/5
f 143/5/5 134/5/5 133/5/5
f 143/6/5 133/6/5 142/6/5
f 144/6/5 135/6/5 134/6/5
f 144/5/5 134/5/5 143/5/5
f 145/5/5 136/5/5 135/5/5
f 145/6/5 135/6/5 144/6/5
f 146/6/5 137/6/5 136/6/5
f 146/5/5 136/5/5 145/5/5
f 147/5/5 138/5/5 137/5/5
f 147/6/5 137/6/5 146/6/5
f 148/4/5 90/4/5 138/4/5
f 148/5/5 138/5/5 147/5/5
f 149/4/5 90/4/5 148/4/5
f 150/7/5 145/7/5 144/7/5
f 150/7/5 143/7/5 142/7/5
f 150/7/5 149/7/5 148/7/5
f 150/7/5 148/7/5 147/7/5
f 150/7/5 146/7/5 145/7/5
f 150/7/5 144/7/5 143/7/5
f 150/7/5 142/7/5 141/7/5
f 150/7/5 140/7/5 139/7/5
f 150/7/5 141/7/5 140/7/5
f 150/7/5 147/7/5 146/7/5
f 151/7/5 149/7/5 150/7/5
f 152/4/5 151/4/5 150/4/5
f 153/4/5 151/4/5 152/4/5
f 156/3/5 155/3/5 154/3/5
f 157/3/5 155/3/5 156/3/5
f 158/4/6 159/4/6 160/4/6
f 160/4/6 159/4/6 161/4/6
f 161/4/6 159/4/6 162/4/6
f 162/4/6 159/4/6 163/4/6
f 163/4/6 159/4/6 164/4/6
f 164/4/6 159/4/6 165/4/6
f 165/4/6 159/4/6 166/4/6
f 158/4/6 160/4/6 167/4/6
f 160/5/6 161/5/6 167/5/6
f 161/1/6 162/1/6 168/1/6
f 167/5/6 161/5/6 168/5/6
f 162/5/6 163/5/6 169/5/6
f 168/1/6 162/1/6 169/1/6
f 163/6/6 164/6/6 170/6/6
f 169/5/6 163/5/6 170/5/6
f 164/5/6 165/5/6 171/5/6
f 170/6/6 164/6/6 171/6/6
f 165/6/6 166/6/6 172/6/6
f 171/5/6 165/5/6 172/5/6
f 166/4/6 159/4/6 173/4/6
f 172/6/6 166/6/6 173/6/6
f 158/4/6 167/4/6 174/4/6
f 167/6/6 168/6/6 174/6/6
f 168/1/6 169/1/6 175/1/6
f 174/6/6 168/6/6 175/6/6
f 169/6/6 170/6/6 176/6/6
f 175/1/6 169/1/6 176/1/6
f 170/5/6 171/5/6 177/5/6
f 176/6/6 170/6/6 177/6/6
f 177/5/6 171/5/6 178/5/6
f 172/5/6 173/5/6 179/5/6
f 173/4/6 159/4/6 180/4/6
f 179/5/6 173/5/6 180/5/6
f 174/5/6 175/5/6 181/5/6
f 158/4/6 174/4/6 181/4/6
f 175/1/6 176/1/6 182/1/6
f 181/5/6 175/5/6 182/5/6
f 182/1/6 176/1/6 183/1/6
f 183/1/6 176/1/6 184/1/6
f 176/5/6 177/5/6 185/5/6
f 184/1/6 176/1/6 185/1/6
f 177/6/6 178/6/6 186/6/6
f 185/5/6 177/5/6 186/5/6
f 178/5/6 179/5/6 187/5/6
f 186/6/6 178/6/6 187/6/6
f 179/6/6 180/6/6 188/6/6
f 187/5/6 179/5/6 188/5/6
f 180/4/6 159/4/6 189/4/6
f 188/6/6 180/6/6 189/6/6
f 158/4/6 181/4/6 190/4/6
f 181/6/6 182/6/6 190/6/6
f 182/5/6 183/5/6 191/5/6
f 190/6/6 182/6/6 191/6/6
f 183/6/6 184/6/6 192/6/6
f 191/5/6 183/5/6 192/5/6
f 184/5/6 185/5/6 193/5/6
f 192/6/6 184/6/6 193/6/6
f 185/6/6 186/6/6 194/6/6
f 193/5/6 185/5/6 194/5/6
f 186/5/6 187/5/6 195/5/6
f 194/6/6 186/6/6 195/6/6
f 195/5/6 187/5/6 196/5/6
f 188/5/6 189/5/6 197/5/6
f 189/4/6 159/4/6 198/4/6
f 197/5/6 189/5/6 198/5/6
f 190/5/6 191/5/6 199/5/6
f 158/4/6 190/4/6 199/4/6
f 199/5/6 191/5/6 200/5/6
f 192/5/6 193/5/6 201/5/6
f 201/5/6 193/5/6 202/5/6
f 194/5/6 195/5/6 203/5/6
f 195/6/6 196/6/6 204/6/6
f 203/5/6 195/5/6 204/5/6
f 196/5/6 197/5/6 205/5/6
f 204/6/6 196/6/6 205/6/6
f 197/6/6 198/6/6 206/6/6
f 205/5/6 197/5/6 206/5/6
f 198/4/6 159/4/6 207/4/6
f 206/6/6 198/6/6 207/6/6
f 158/4/6 199/4/6 208/4/6
f 199/6/6 200/6/6 209/6/6
f 208/4/6 199/4/6 209/4/6
f 200/5/6 201/5/6 210/5/6
f 209/6/6 200/6/6 210/6/6
f 201/6/6 202/6/6 211/6/6
f 210/5/6 201/5/6 211/5/6
f 202/5/6 203/5/6 212/5/6
f 211/6/6 202/6/6 212/6/6
f 203/6/6 204/6/6 213/6/6
f 212/5/6 203/5/6 213/5/6
f 204/5/6 205/5/6 214/5/6
f 213/6/6 204/6/6 214/6/6
f 205/6/6 206/6/6 215/6/6
f 214/5/6 205/5/6 215/5/6
f 206/5/6 207/5/6 216/5/6
f 215/6/6 206/6/6 216/6/6
f 207/4/6 159/4/6 217/4/6
f 216/5/6 207/5/6 217/5/6
f 217/4/6 159/4/6 218/4/6
f 211/7/6 212/7/6 219/7/6
f 213/7/6 214/7/6 219/7/6
f 217/7/6 218/7/6 219/7/6
f 216/7/6 217/7/6 219/7/6
f 214/7/6 215/7/6 219/7/6
f 210/7/6 211/7/6 219/7/6
f 208/7/6 209/7/6 219/7/6
f 212/7/6 213/7/6 219/7/6
f 215/7/6 216/7/6 219/7/6
f 209/7/6 210/7/6 219/7/6
f 219/7/6 218/7/6 220/7/6
f 219/4/6 220/4/6 221/4/6
f 221/4/6 220/4/6 222/4/6
f 223/2/6 224/2/6 227/2/6
f 227/2/6 224/2/6 228/2/6
f 225/2/6 226/2/6 229/2/6
f 229/2/6 226/2/6 230/2/6
f 231/3/6 232/3/6 233/3/6
f 233/3/6 232/3/6 234/3/6
