# MagicaVoxel @ Ephtracy

# group
g HC_Wood

# material
mtllib HC_Wood.mtl
usemtl palette

# normals
vn -1 0 0
vn 1 0 0
vn 0 0 1
vn 0 0 -1
vn 0 -1 0
vn 0 1 0

# texcoords
vt 0.396484 0.5
vt 0.537109 0.5
vt 0.888672 0.5
vt 0.900391 0.5
vt 0.904297 0.5

# verts
v -5 0 5
v -5 0 -5
v -5 1 5
v -5 1 -5
v -5 3 1
v -5 3 -0
v -5 4 1
v -5 4 -0
v -4 1 1
v -4 1 -0
v -4 2 -2
v -4 2 -3
v -4 3 2
v -4 3 1
v -4 3 -0
v -4 3 -1
v -4 3 -2
v -4 3 -3
v -4 4 2
v -4 4 1
v -4 4 -0
v -4 4 -1
v -4 5 1
v -4 5 -0
v -3 1 -2
v -3 1 -3
v -3 2 -1
v -3 2 -2
v -3 2 -3
v -3 2 -4
v -3 3 4
v -3 3 3
v -3 3 -1
v -3 3 -2
v -3 3 -3
v -3 3 -4
v -3 4 4
v -3 4 3
v -3 4 -2
v -3 4 -3
v -2 1 4
v -2 1 3
v -2 3 5
v -2 3 4
v -2 3 3
v -2 3 2
v -2 4 5
v -2 4 4
v -2 4 3
v -2 4 2
v -2 5 4
v -2 5 3
v -2 5 1
v -2 5 -0
v -2 6 1
v -2 6 -0
v -1 1 1
v -1 1 -0
v -1 3 -2
v -1 3 -3
v -1 4 1
v -1 4 -0
v -1 4 -2
v -1 4 -3
v -1 5 2
v -1 5 1
v -1 5 -0
v -1 5 -1
v -1 6 2
v -1 6 1
v -1 6 -0
v -1 6 -1
v -1 7 1
v -1 7 -0
v 0 1 -2
v 0 1 -3
v 0 3 -1
v 0 3 -2
v 0 3 -3
v 0 3 -4
v 0 4 -1
v 0 4 -2
v 0 4 -3
v 0 4 -4
v 0 5 -2
v 0 5 -3
v 1 3 3
v 1 3 2
v 1 4 3
v 1 4 2
v 2 1 3
v 2 1 2
v 2 2 -0
v 2 2 -1
v 2 3 4
v 2 3 3
v 2 3 2
v 2 3 1
v 2 3 -0
v 2 3 -1
v 2 4 4
v 2 4 3
v 2 4 2
v 2 4 1
v 2 5 3
v 2 5 2
v 3 1 -0
v 3 1 -1
v 3 2 1
v 3 2 -0
v 3 2 -1
v 3 2 -2
v 3 3 1
v 3 3 -0
v 3 3 -1
v 3 3 -2
v 3 4 -0
v 3 4 -1
v -3 1 1
v -3 1 -0
v -3 3 2
v -3 3 1
v -3 3 -0
v -3 3 -1
v -3 4 2
v -3 4 1
v -3 4 -0
v -3 4 -1
v -3 5 1
v -3 5 -0
v -2 1 -2
v -2 1 -3
v -2 2 -1
v -2 2 -2
v -2 2 -3
v -2 2 -4
v -2 3 1
v -2 3 -0
v -2 3 -1
v -2 3 -2
v -2 3 -3
v -2 3 -4
v -2 4 1
v -2 4 -0
v -2 4 -2
v -2 4 -3
v -1 1 4
v -1 1 3
v -1 2 -2
v -1 2 -3
v -1 3 5
v -1 3 4
v -1 3 3
v -1 3 2
v -1 3 -2
v -1 3 -3
v -1 4 5
v -1 4 4
v -1 4 3
v -1 4 2
v -1 5 4
v -1 5 3
v 0 1 1
v 0 1 -0
v 0 3 4
v 0 3 3
v 0 4 4
v 0 4 3
v 0 4 1
v 0 4 -0
v 0 5 2
v 0 5 1
v 0 5 -0
v 0 5 -1
v 0 6 2
v 0 6 1
v 0 6 -0
v 0 6 -1
v 0 7 1
v 0 7 -0
v 1 1 -2
v 1 1 -3
v 1 3 -1
v 1 3 -2
v 1 3 -3
v 1 3 -4
v 1 4 -1
v 1 4 -2
v 1 4 -3
v 1 4 -4
v 1 5 1
v 1 5 -0
v 1 5 -2
v 1 5 -3
v 1 6 1
v 1 6 -0
v 2 3 -2
v 2 3 -3
v 2 4 -2
v 2 4 -3
v 3 1 3
v 3 1 2
v 3 3 4
v 3 3 3
v 3 3 2
v 3 3 1
v 3 4 4
v 3 4 3
v 3 4 2
v 3 4 1
v 3 5 3
v 3 5 2
v 4 1 -0
v 4 1 -1
v 4 2 1
v 4 2 -0
v 4 2 -1
v 4 2 -2
v 4 3 3
v 4 3 2
v 4 3 1
v 4 3 -0
v 4 3 -1
v 4 3 -2
v 4 4 3
v 4 4 2
v 4 4 -0
v 4 4 -1
v 5 0 5
v 5 0 -5
v 5 1 5
v 5 1 -5
v 5 2 -0
v 5 2 -1
v 5 3 -0
v 5 3 -1
v -5 0 5
v -5 1 5
v -2 3 5
v -2 4 5
v -1 3 5
v -1 4 5
v 5 0 5
v 5 1 5
v -3 3 4
v -3 4 4
v -2 1 4
v -2 3 4
v -2 4 4
v -2 5 4
v -1 1 4
v -1 3 4
v -1 4 4
v -1 5 4
v 0 3 4
v 0 4 4
v 2 3 4
v 2 4 4
v 3 3 4
v 3 4 4
v 1 3 3
v 1 4 3
v 2 1 3
v 2 3 3
v 2 4 3
v 2 5 3
v 3 1 3
v 3 3 3
v 3 4 3
v 3 5 3
v 4 3 3
v 4 4 3
v -4 3 2
v -4 4 2
v -3 3 2
v -3 4 2
v -1 5 2
v -1 6 2
v 0 5 2
v 0 6 2
v -5 3 1
v -5 4 1
v -4 1 1
v -4 3 1
v -4 4 1
v -4 5 1
v -3 1 1
v -3 3 1
v -3 4 1
v -3 5 1
v -2 3 1
v -2 4 1
v -2 5 1
v -2 6 1
v -1 1 1
v -1 4 1
v -1 5 1
v -1 6 1
v -1 7 1
v 0 1 1
v 0 4 1
v 0 5 1
v 0 6 1
v 0 7 1
v 1 5 1
v 1 6 1
v 3 2 1
v 3 3 1
v 4 2 1
v 4 3 1
v 2 2 -0
v 2 3 -0
v 3 1 -0
v 3 2 -0
v 3 3 -0
v 3 4 -0
v 4 1 -0
v 4 2 -0
v 4 3 -0
v 4 4 -0
v 5 2 -0
v 5 3 -0
v -3 2 -1
v -3 3 -1
v -2 2 -1
v -2 3 -1
v 0 3 -1
v 0 4 -1
v 1 3 -1
v 1 4 -1
v -4 2 -2
v -4 3 -2
v -3 1 -2
v -3 2 -2
v -3 3 -2
v -3 4 -2
v -2 1 -2
v -2 2 -2
v -2 3 -2
v -2 4 -2
v -1 2 -2
v -1 3 -2
v -1 4 -2
v 0 1 -2
v 0 3 -2
v 0 4 -2
v 0 5 -2
v 1 1 -2
v 1 3 -2
v 1 4 -2
v 1 5 -2
v 2 3 -2
v 2 4 -2
v -3 3 3
v -3 4 3
v -2 1 3
v -2 3 3
v -2 4 3
v -2 5 3
v -1 1 3
v -1 3 3
v -1 4 3
v -1 5 3
v 0 3 3
v 0 4 3
v -2 3 2
v -2 4 2
v -1 3 2
v -1 4 2
v 1 3 2
v 1 4 2
v 2 1 2
v 2 3 2
v 2 4 2
v 2 5 2
v 3 1 2
v 3 3 2
v 3 4 2
v 3 5 2
v 4 3 2
v 4 4 2
v 2 3 1
v 2 4 1
v 3 3 1
v 3 4 1
v -5 3 -0
v -5 4 -0
v -4 1 -0
v -4 3 -0
v -4 4 -0
v -4 5 -0
v -3 1 -0
v -3 3 -0
v -3 4 -0
v -3 5 -0
v -2 3 -0
v -2 4 -0
v -2 5 -0
v -2 6 -0
v -1 1 -0
v -1 4 -0
v -1 5 -0
v -1 6 -0
v -1 7 -0
v 0 1 -0
v 0 4 -0
v 0 5 -0
v 0 6 -0
v 0 7 -0
v 1 5 -0
v 1 6 -0
v -4 3 -1
v -4 4 -1
v -3 3 -1
v -3 4 -1
v -1 5 -1
v -1 6 -1
v 0 5 -1
v 0 6 -1
v 2 2 -1
v 2 3 -1
v 3 1 -1
v 3 2 -1
v 3 3 -1
v 3 4 -1
v 4 1 -1
v 4 2 -1
v 4 3 -1
v 4 4 -1
v 5 2 -1
v 5 3 -1
v 3 2 -2
v 3 3 -2
v 4 2 -2
v 4 3 -2
v -4 2 -3
v -4 3 -3
v -3 1 -3
v -3 2 -3
v -3 3 -3
v -3 4 -3
v -2 1 -3
v -2 2 -3
v -2 3 -3
v -2 4 -3
v -1 2 -3
v -1 3 -3
v -1 4 -3
v 0 1 -3
v 0 3 -3
v 0 4 -3
v 0 5 -3
v 1 1 -3
v 1 3 -3
v 1 4 -3
v 1 5 -3
v 2 3 -3
v 2 4 -3
v -3 2 -4
v -3 3 -4
v -2 2 -4
v -2 3 -4
v 0 3 -4
v 0 4 -4
v 1 3 -4
v 1 4 -4
v -5 0 -5
v -5 1 -5
v 5 0 -5
v 5 1 -5
v -5 0 5
v 5 0 5
v -5 0 -5
v 5 0 -5
v 3 2 1
v 4 2 1
v 2 2 -0
v 3 2 -0
v 4 2 -0
v 5 2 -0
v -3 2 -1
v -2 2 -1
v 2 2 -1
v 3 2 -1
v 4 2 -1
v 5 2 -1
v -4 2 -2
v -3 2 -2
v -2 2 -2
v -1 2 -2
v 3 2 -2
v 4 2 -2
v -4 2 -3
v -3 2 -3
v -2 2 -3
v -1 2 -3
v -3 2 -4
v -2 2 -4
v -2 3 5
v -1 3 5
v -3 3 4
v -2 3 4
v -1 3 4
v 0 3 4
v 2 3 4
v 3 3 4
v -3 3 3
v -2 3 3
v -1 3 3
v 0 3 3
v 1 3 3
v 2 3 3
v 3 3 3
v 4 3 3
v -4 3 2
v -3 3 2
v -2 3 2
v -1 3 2
v 1 3 2
v 2 3 2
v 3 3 2
v 4 3 2
v -5 3 1
v -4 3 1
v -3 3 1
v -2 3 1
v 2 3 1
v 3 3 1
v -5 3 -0
v -4 3 -0
v -3 3 -0
v -2 3 -0
v -4 3 -1
v -3 3 -1
v 0 3 -1
v 1 3 -1
v -1 3 -2
v 0 3 -2
v 1 3 -2
v 2 3 -2
v -1 3 -3
v 0 3 -3
v 1 3 -3
v 2 3 -3
v 0 3 -4
v 1 3 -4
v -1 5 2
v 0 5 2
v -2 5 1
v -1 5 1
v 0 5 1
v 1 5 1
v -2 5 -0
v -1 5 -0
v 0 5 -0
v 1 5 -0
v -1 5 -1
v 0 5 -1
v -5 1 5
v 5 1 5
v -2 1 4
v -1 1 4
v -2 1 3
v -1 1 3
v 2 1 3
v 3 1 3
v 2 1 2
v 3 1 2
v -4 1 1
v -3 1 1
v -1 1 1
v 0 1 1
v -4 1 -0
v -3 1 -0
v -1 1 -0
v 0 1 -0
v 3 1 -0
v 4 1 -0
v 3 1 -1
v 4 1 -1
v -3 1 -2
v -2 1 -2
v 0 1 -2
v 1 1 -2
v -3 1 -3
v -2 1 -3
v 0 1 -3
v 1 1 -3
v -5 1 -5
v 5 1 -5
v 3 3 1
v 4 3 1
v 2 3 -0
v 3 3 -0
v 4 3 -0
v 5 3 -0
v -3 3 -1
v -2 3 -1
v 2 3 -1
v 3 3 -1
v 4 3 -1
v 5 3 -1
v -4 3 -2
v -3 3 -2
v -2 3 -2
v -1 3 -2
v 3 3 -2
v 4 3 -2
v -4 3 -3
v -3 3 -3
v -2 3 -3
v -1 3 -3
v -3 3 -4
v -2 3 -4
v -2 4 5
v -1 4 5
v -3 4 4
v -2 4 4
v -1 4 4
v 0 4 4
v 2 4 4
v 3 4 4
v -3 4 3
v -2 4 3
v -1 4 3
v 0 4 3
v 1 4 3
v 2 4 3
v 3 4 3
v 4 4 3
v -4 4 2
v -3 4 2
v -2 4 2
v -1 4 2
v 1 4 2
v 2 4 2
v 3 4 2
v 4 4 2
v -5 4 1
v -4 4 1
v -3 4 1
v -2 4 1
v 2 4 1
v 3 4 1
v -5 4 -0
v -4 4 -0
v -3 4 -0
v -2 4 -0
v 3 4 -0
v 4 4 -0
v -4 4 -1
v -3 4 -1
v 0 4 -1
v 1 4 -1
v 3 4 -1
v 4 4 -1
v -3 4 -2
v -2 4 -2
v -1 4 -2
v 0 4 -2
v 1 4 -2
v 2 4 -2
v -3 4 -3
v -2 4 -3
v -1 4 -3
v 0 4 -3
v 1 4 -3
v 2 4 -3
v 0 4 -4
v 1 4 -4
v -2 5 4
v -1 5 4
v -2 5 3
v -1 5 3
v 2 5 3
v 3 5 3
v 2 5 2
v 3 5 2
v -4 5 1
v -3 5 1
v -4 5 -0
v -3 5 -0
v 0 5 -2
v 1 5 -2
v 0 5 -3
v 1 5 -3
v -1 6 2
v 0 6 2
v -2 6 1
v -1 6 1
v 0 6 1
v 1 6 1
v -2 6 -0
v -1 6 -0
v 0 6 -0
v 1 6 -0
v -1 6 -1
v 0 6 -1
v -1 7 1
v 0 7 1
v -1 7 -0
v 0 7 -0

# faces
f 3/3/1 2/3/1 1/3/1
f 4/3/1 2/3/1 3/3/1
f 7/5/1 6/5/1 5/5/1
f 8/5/1 6/5/1 7/5/1
f 14/2/1 10/2/1 9/2/1
f 15/2/1 10/2/1 14/2/1
f 17/5/1 12/5/1 11/5/1
f 18/5/1 12/5/1 17/5/1
f 19/5/1 14/5/1 13/5/1
f 20/5/1 14/5/1 19/5/1
f 21/5/1 16/5/1 15/5/1
f 22/5/1 16/5/1 21/5/1
f 23/5/1 21/5/1 20/5/1
f 24/5/1 21/5/1 23/5/1
f 28/2/1 26/2/1 25/2/1
f 29/2/1 26/2/1 28/2/1
f 33/5/1 28/5/1 27/5/1
f 34/5/1 28/5/1 33/5/1
f 35/5/1 30/5/1 29/5/1
f 36/5/1 30/5/1 35/5/1
f 37/5/1 32/5/1 31/5/1
f 38/5/1 32/5/1 37/5/1
f 39/5/1 35/5/1 34/5/1
f 40/5/1 35/5/1 39/5/1
f 44/2/1 42/2/1 41/2/1
f 45/2/1 42/2/1 44/2/1
f 47/5/1 44/5/1 43/5/1
f 48/5/1 44/5/1 47/5/1
f 49/5/1 46/5/1 45/5/1
f 50/5/1 46/5/1 49/5/1
f 51/5/1 49/5/1 48/5/1
f 52/5/1 49/5/1 51/5/1
f 55/5/1 54/5/1 53/5/1
f 56/5/1 54/5/1 55/5/1
f 61/1/1 58/1/1 57/1/1
f 62/1/1 58/1/1 61/1/1
f 63/5/1 60/5/1 59/5/1
f 64/5/1 60/5/1 63/5/1
f 66/5/1 62/5/1 61/5/1
f 67/5/1 62/5/1 66/5/1
f 69/5/1 66/5/1 65/5/1
f 70/5/1 66/5/1 69/5/1
f 71/5/1 68/5/1 67/5/1
f 72/5/1 68/5/1 71/5/1
f 73/5/1 71/5/1 70/5/1
f 74/5/1 71/5/1 73/5/1
f 78/2/1 76/2/1 75/2/1
f 79/2/1 76/2/1 78/2/1
f 81/5/1 78/5/1 77/5/1
f 82/5/1 78/5/1 81/5/1
f 83/5/1 80/5/1 79/5/1
f 84/5/1 80/5/1 83/5/1
f 85/5/1 83/5/1 82/5/1
f 86/5/1 83/5/1 85/5/1
f 89/5/1 88/5/1 87/5/1
f 90/5/1 88/5/1 89/5/1
f 96/2/1 92/2/1 91/2/1
f 97/2/1 92/2/1 96/2/1
f 99/5/1 94/5/1 93/5/1
f 100/5/1 94/5/1 99/5/1
f 101/5/1 96/5/1 95/5/1
f 102/5/1 96/5/1 101/5/1
f 103/5/1 98/5/1 97/5/1
f 104/5/1 98/5/1 103/5/1
f 105/5/1 103/5/1 102/5/1
f 106/5/1 103/5/1 105/5/1
f 110/2/1 108/2/1 107/2/1
f 111/2/1 108/2/1 110/2/1
f 113/5/1 110/5/1 109/5/1
f 114/5/1 110/5/1 113/5/1
f 115/5/1 112/5/1 111/5/1
f 116/5/1 112/5/1 115/5/1
f 117/5/1 115/5/1 114/5/1
f 118/5/1 115/5/1 117/5/1
f 119/2/2 120/2/2 122/2/2
f 122/2/2 120/2/2 123/2/2
f 121/5/2 122/5/2 125/5/2
f 125/5/2 122/5/2 126/5/2
f 123/5/2 124/5/2 127/5/2
f 127/5/2 124/5/2 128/5/2
f 126/5/2 127/5/2 129/5/2
f 129/5/2 127/5/2 130/5/2
f 131/2/2 132/2/2 134/2/2
f 134/2/2 132/2/2 135/2/2
f 133/5/2 134/5/2 139/5/2
f 139/5/2 134/5/2 140/5/2
f 135/5/2 136/5/2 141/5/2
f 141/5/2 136/5/2 142/5/2
f 137/5/2 138/5/2 143/5/2
f 143/5/2 138/5/2 144/5/2
f 140/5/2 141/5/2 145/5/2
f 145/5/2 141/5/2 146/5/2
f 147/2/2 148/2/2 152/2/2
f 152/2/2 148/2/2 153/2/2
f 149/5/2 150/5/2 155/5/2
f 155/5/2 150/5/2 156/5/2
f 151/5/2 152/5/2 157/5/2
f 157/5/2 152/5/2 158/5/2
f 153/5/2 154/5/2 159/5/2
f 159/5/2 154/5/2 160/5/2
f 158/5/2 159/5/2 161/5/2
f 161/5/2 159/5/2 162/5/2
f 165/5/2 166/5/2 167/5/2
f 167/5/2 166/5/2 168/5/2
f 163/1/2 164/1/2 169/1/2
f 169/1/2 164/1/2 170/1/2
f 169/5/2 170/5/2 172/5/2
f 172/5/2 170/5/2 173/5/2
f 171/5/2 172/5/2 175/5/2
f 175/5/2 172/5/2 176/5/2
f 173/5/2 174/5/2 177/5/2
f 177/5/2 174/5/2 178/5/2
f 176/5/2 177/5/2 179/5/2
f 179/5/2 177/5/2 180/5/2
f 181/2/2 182/2/2 184/2/2
f 184/2/2 182/2/2 185/2/2
f 183/5/2 184/5/2 187/5/2
f 187/5/2 184/5/2 188/5/2
f 185/5/2 186/5/2 189/5/2
f 189/5/2 186/5/2 190/5/2
f 188/5/2 189/5/2 193/5/2
f 193/5/2 189/5/2 194/5/2
f 191/5/2 192/5/2 195/5/2
f 195/5/2 192/5/2 196/5/2
f 197/5/2 198/5/2 199/5/2
f 199/5/2 198/5/2 200/5/2
f 201/2/2 202/2/2 204/2/2
f 204/2/2 202/2/2 205/2/2
f 203/5/2 204/5/2 207/5/2
f 207/5/2 204/5/2 208/5/2
f 205/5/2 206/5/2 209/5/2
f 209/5/2 206/5/2 210/5/2
f 208/5/2 209/5/2 211/5/2
f 211/5/2 209/5/2 212/5/2
f 213/2/2 214/2/2 216/2/2
f 216/2/2 214/2/2 217/2/2
f 215/5/2 216/5/2 221/5/2
f 221/5/2 216/5/2 222/5/2
f 217/5/2 218/5/2 223/5/2
f 223/5/2 218/5/2 224/5/2
f 219/5/2 220/5/2 225/5/2
f 225/5/2 220/5/2 226/5/2
f 222/5/2 223/5/2 227/5/2
f 227/5/2 223/5/2 228/5/2
f 229/3/2 230/3/2 231/3/2
f 231/3/2 230/3/2 232/3/2
f 233/5/2 234/5/2 235/5/2
f 235/5/2 234/5/2 236/5/2
f 241/5/3 240/5/3 239/5/3
f 242/5/3 240/5/3 241/5/3
f 243/3/3 238/3/3 237/3/3
f 244/3/3 238/3/3 243/3/3
f 248/5/3 246/5/3 245/5/3
f 249/5/3 246/5/3 248/5/3
f 251/2/3 248/2/3 247/2/3
f 252/2/3 248/2/3 251/2/3
f 253/5/3 250/5/3 249/5/3
f 254/5/3 250/5/3 253/5/3
f 255/5/3 253/5/3 252/5/3
f 256/5/3 253/5/3 255/5/3
f 259/5/3 258/5/3 257/5/3
f 260/5/3 258/5/3 259/5/3
f 264/5/3 262/5/3 261/5/3
f 265/5/3 262/5/3 264/5/3
f 267/2/3 264/2/3 263/2/3
f 268/2/3 264/2/3 267/2/3
f 269/5/3 266/5/3 265/5/3
f 270/5/3 266/5/3 269/5/3
f 271/5/3 269/5/3 268/5/3
f 272/5/3 269/5/3 271/5/3
f 275/5/3 274/5/3 273/5/3
f 276/5/3 274/5/3 275/5/3
f 279/5/3 278/5/3 277/5/3
f 280/5/3 278/5/3 279/5/3
f 284/5/3 282/5/3 281/5/3
f 285/5/3 282/5/3 284/5/3
f 287/2/3 284/2/3 283/2/3
f 288/2/3 284/2/3 287/2/3
f 289/5/3 286/5/3 285/5/3
f 290/5/3 286/5/3 289/5/3
f 291/5/3 289/5/3 288/5/3
f 292/5/3 289/5/3 291/5/3
f 297/5/3 294/5/3 293/5/3
f 298/5/3 294/5/3 297/5/3
f 300/1/3 296/1/3 295/1/3
f 301/5/3 297/5/3 296/5/3
f 301/1/3 296/1/3 300/1/3
f 302/5/3 297/5/3 301/5/3
f 303/5/3 299/5/3 298/5/3
f 304/5/3 299/5/3 303/5/3
f 305/5/3 303/5/3 302/5/3
f 306/5/3 303/5/3 305/5/3
f 309/5/3 308/5/3 307/5/3
f 310/5/3 308/5/3 309/5/3
f 314/5/3 312/5/3 311/5/3
f 315/5/3 312/5/3 314/5/3
f 317/2/3 314/2/3 313/2/3
f 318/2/3 314/2/3 317/2/3
f 319/5/3 316/5/3 315/5/3
f 320/5/3 316/5/3 319/5/3
f 321/5/3 319/5/3 318/5/3
f 322/5/3 319/5/3 321/5/3
f 325/5/3 324/5/3 323/5/3
f 326/5/3 324/5/3 325/5/3
f 329/5/3 328/5/3 327/5/3
f 330/5/3 328/5/3 329/5/3
f 334/5/3 332/5/3 331/5/3
f 335/5/3 332/5/3 334/5/3
f 337/2/3 334/2/3 333/2/3
f 338/2/3 334/2/3 337/2/3
f 339/5/3 336/5/3 335/5/3
f 340/5/3 336/5/3 339/5/3
f 341/5/3 339/5/3 338/5/3
f 342/5/3 339/5/3 341/5/3
f 345/5/3 343/5/3 342/5/3
f 346/5/3 343/5/3 345/5/3
f 348/2/3 345/2/3 344/2/3
f 349/2/3 345/2/3 348/2/3
f 350/5/3 347/5/3 346/5/3
f 351/5/3 347/5/3 350/5/3
f 352/5/3 350/5/3 349/5/3
f 353/5/3 350/5/3 352/5/3
f 354/5/4 355/5/4 357/5/4
f 357/5/4 355/5/4 358/5/4
f 356/2/4 357/2/4 360/2/4
f 360/2/4 357/2/4 361/2/4
f 358/5/4 359/5/4 362/5/4
f 362/5/4 359/5/4 363/5/4
f 361/5/4 362/5/4 364/5/4
f 364/5/4 362/5/4 365/5/4
f 366/5/4 367/5/4 368/5/4
f 368/5/4 367/5/4 369/5/4
f 370/5/4 371/5/4 373/5/4
f 373/5/4 371/5/4 374/5/4
f 372/2/4 373/2/4 376/2/4
f 376/2/4 373/2/4 377/2/4
f 374/5/4 375/5/4 378/5/4
f 378/5/4 375/5/4 379/5/4
f 377/5/4 378/5/4 380/5/4
f 380/5/4 378/5/4 381/5/4
f 382/5/4 383/5/4 384/5/4
f 384/5/4 383/5/4 385/5/4
f 386/5/4 387/5/4 389/5/4
f 389/5/4 387/5/4 390/5/4
f 388/2/4 389/2/4 392/2/4
f 392/2/4 389/2/4 393/2/4
f 390/5/4 391/5/4 394/5/4
f 394/5/4 391/5/4 395/5/4
f 393/5/4 394/5/4 396/5/4
f 396/5/4 394/5/4 397/5/4
f 398/5/4 399/5/4 402/5/4
f 402/5/4 399/5/4 403/5/4
f 400/1/4 401/1/4 405/1/4
f 401/5/4 402/5/4 406/5/4
f 405/1/4 401/1/4 406/1/4
f 406/5/4 402/5/4 407/5/4
f 403/5/4 404/5/4 408/5/4
f 408/5/4 404/5/4 409/5/4
f 407/5/4 408/5/4 410/5/4
f 410/5/4 408/5/4 411/5/4
f 412/5/4 413/5/4 414/5/4
f 414/5/4 413/5/4 415/5/4
f 416/5/4 417/5/4 418/5/4
f 418/5/4 417/5/4 419/5/4
f 420/5/4 421/5/4 423/5/4
f 423/5/4 421/5/4 424/5/4
f 422/2/4 423/2/4 426/2/4
f 426/2/4 423/2/4 427/2/4
f 424/5/4 425/5/4 428/5/4
f 428/5/4 425/5/4 429/5/4
f 427/5/4 428/5/4 430/5/4
f 430/5/4 428/5/4 431/5/4
f 432/5/4 433/5/4 434/5/4
f 434/5/4 433/5/4 435/5/4
f 436/5/4 437/5/4 439/5/4
f 439/5/4 437/5/4 440/5/4
f 438/2/4 439/2/4 442/2/4
f 442/2/4 439/2/4 443/2/4
f 440/5/4 441/5/4 444/5/4
f 444/5/4 441/5/4 445/5/4
f 443/5/4 444/5/4 446/5/4
f 446/5/4 444/5/4 447/5/4
f 447/5/4 448/5/4 450/5/4
f 450/5/4 448/5/4 451/5/4
f 449/2/4 450/2/4 453/2/4
f 453/2/4 450/2/4 454/2/4
f 451/5/4 452/5/4 455/5/4
f 455/5/4 452/5/4 456/5/4
f 454/5/4 455/5/4 457/5/4
f 457/5/4 455/5/4 458/5/4
f 459/5/4 460/5/4 461/5/4
f 461/5/4 460/5/4 462/5/4
f 463/5/4 464/5/4 465/5/4
f 465/5/4 464/5/4 466/5/4
f 467/3/4 468/3/4 469/3/4
f 469/3/4 468/3/4 470/3/4
f 473/3/5 472/3/5 471/3/5
f 474/3/5 472/3/5 473/3/5
f 478/5/5 476/5/5 475/5/5
f 479/5/5 476/5/5 478/5/5
f 483/5/5 478/5/5 477/5/5
f 484/5/5 478/5/5 483/5/5
f 485/5/5 480/5/5 479/5/5
f 486/5/5 480/5/5 485/5/5
f 488/5/5 482/5/5 481/5/5
f 489/5/5 482/5/5 488/5/5
f 491/5/5 485/5/5 484/5/5
f 492/5/5 485/5/5 491/5/5
f 493/5/5 488/5/5 487/5/5
f 494/5/5 488/5/5 493/5/5
f 495/5/5 490/5/5 489/5/5
f 496/5/5 490/5/5 495/5/5
f 497/5/5 495/5/5 494/5/5
f 498/5/5 495/5/5 497/5/5
f 502/5/5 500/5/5 499/5/5
f 503/5/5 500/5/5 502/5/5
f 507/5/5 502/5/5 501/5/5
f 508/5/5 502/5/5 507/5/5
f 509/5/5 504/5/5 503/5/5
f 510/5/5 504/5/5 509/5/5
f 512/5/5 506/5/5 505/5/5
f 513/5/5 506/5/5 512/5/5
f 517/5/5 509/5/5 508/5/5
f 518/5/5 509/5/5 517/5/5
f 519/5/5 512/5/5 511/5/5
f 520/5/5 512/5/5 519/5/5
f 521/5/5 514/5/5 513/5/5
f 522/5/5 514/5/5 521/5/5
f 524/5/5 516/5/5 515/5/5
f 525/5/5 516/5/5 524/5/5
f 527/5/5 521/5/5 520/5/5
f 528/5/5 521/5/5 527/5/5
f 529/5/5 524/5/5 523/5/5
f 530/5/5 524/5/5 529/5/5
f 531/5/5 526/5/5 525/5/5
f 532/5/5 526/5/5 531/5/5
f 533/5/5 531/5/5 530/5/5
f 534/5/5 531/5/5 533/5/5
f 538/5/5 536/5/5 535/5/5
f 539/5/5 536/5/5 538/5/5
f 541/5/5 538/5/5 537/5/5
f 542/5/5 538/5/5 541/5/5
f 543/5/5 540/5/5 539/5/5
f 544/5/5 540/5/5 543/5/5
f 545/5/5 543/5/5 542/5/5
f 546/5/5 543/5/5 545/5/5
f 550/5/5 548/5/5 547/5/5
f 551/5/5 548/5/5 550/5/5
f 553/5/5 550/5/5 549/5/5
f 554/5/5 550/5/5 553/5/5
f 555/5/5 552/5/5 551/5/5
f 556/5/5 552/5/5 555/5/5
f 557/5/5 555/5/5 554/5/5
f 558/5/5 555/5/5 557/5/5
f 559/3/6 560/3/6 561/3/6
f 561/3/6 560/3/6 562/3/6
f 559/3/6 561/3/6 563/3/6
f 562/3/6 560/3/6 564/3/6
f 564/3/6 560/3/6 565/3/6
f 565/3/6 560/3/6 566/3/6
f 563/3/6 564/3/6 567/3/6
f 564/3/6 565/3/6 567/3/6
f 566/3/6 560/3/6 568/3/6
f 559/3/6 563/3/6 569/3/6
f 567/3/6 568/3/6 569/3/6
f 563/3/6 567/3/6 569/3/6
f 569/3/6 568/3/6 570/3/6
f 570/3/6 568/3/6 571/3/6
f 571/3/6 568/3/6 572/3/6
f 559/3/6 569/3/6 573/3/6
f 570/3/6 571/3/6 574/3/6
f 574/3/6 571/3/6 575/3/6
f 572/3/6 568/3/6 576/3/6
f 568/3/6 560/3/6 577/3/6
f 576/3/6 568/3/6 577/3/6
f 577/3/6 560/3/6 578/3/6
f 575/3/6 576/3/6 579/3/6
f 574/3/6 575/3/6 579/3/6
f 576/3/6 577/3/6 579/3/6
f 573/3/6 574/3/6 579/3/6
f 578/3/6 560/3/6 580/3/6
f 573/3/6 579/3/6 581/3/6
f 579/3/6 580/3/6 581/3/6
f 581/3/6 580/3/6 582/3/6
f 582/3/6 580/3/6 583/3/6
f 583/3/6 580/3/6 584/3/6
f 573/3/6 581/3/6 585/3/6
f 582/3/6 583/3/6 586/3/6
f 586/3/6 583/3/6 587/3/6
f 584/3/6 580/3/6 588/3/6
f 559/3/6 573/3/6 589/3/6
f 587/3/6 588/3/6 589/3/6
f 586/3/6 587/3/6 589/3/6
f 573/3/6 585/3/6 589/3/6
f 585/3/6 586/3/6 589/3/6
f 580/3/6 560/3/6 590/3/6
f 589/3/6 588/3/6 590/3/6
f 588/3/6 580/3/6 590/3/6
f 591/5/6 592/5/6 594/5/6
f 594/5/6 592/5/6 595/5/6
f 593/5/6 594/5/6 599/5/6
f 599/5/6 594/5/6 600/5/6
f 595/5/6 596/5/6 601/5/6
f 601/5/6 596/5/6 602/5/6
f 597/5/6 598/5/6 604/5/6
f 604/5/6 598/5/6 605/5/6
f 600/5/6 601/5/6 607/5/6
f 607/5/6 601/5/6 608/5/6
f 603/5/6 604/5/6 609/5/6
f 609/5/6 604/5/6 610/5/6
f 605/5/6 606/5/6 611/5/6
f 611/5/6 606/5/6 612/5/6
f 610/5/6 611/5/6 613/5/6
f 613/5/6 611/5/6 614/5/6
f 615/5/6 616/5/6 618/5/6
f 618/5/6 616/5/6 619/5/6
f 617/5/6 618/5/6 623/5/6
f 623/5/6 618/5/6 624/5/6
f 619/5/6 620/5/6 625/5/6
f 625/5/6 620/5/6 626/5/6
f 621/5/6 622/5/6 628/5/6
f 628/5/6 622/5/6 629/5/6
f 624/5/6 625/5/6 633/5/6
f 633/5/6 625/5/6 634/5/6
f 627/5/6 628/5/6 635/5/6
f 635/5/6 628/5/6 636/5/6
f 629/5/6 630/5/6 637/5/6
f 637/5/6 630/5/6 638/5/6
f 631/5/6 632/5/6 640/5/6
f 640/5/6 632/5/6 641/5/6
f 636/5/6 637/5/6 643/5/6
f 643/5/6 637/5/6 644/5/6
f 639/5/6 640/5/6 645/5/6
f 645/5/6 640/5/6 646/5/6
f 641/5/6 642/5/6 647/5/6
f 647/5/6 642/5/6 648/5/6
f 646/5/6 647/5/6 651/5/6
f 651/5/6 647/5/6 652/5/6
f 649/5/6 650/5/6 655/5/6
f 655/5/6 650/5/6 656/5/6
f 653/5/6 654/5/6 660/5/6
f 660/5/6 654/5/6 661/5/6
f 657/5/6 658/5/6 663/5/6
f 663/5/6 658/5/6 664/5/6
f 659/5/6 660/5/6 665/5/6
f 665/5/6 660/5/6 666/5/6
f 661/5/6 662/5/6 667/5/6
f 667/5/6 662/5/6 668/5/6
f 666/5/6 667/5/6 669/5/6
f 669/5/6 667/5/6 670/5/6
f 671/5/6 672/5/6 673/5/6
f 673/5/6 672/5/6 674/5/6
f 675/5/6 676/5/6 677/5/6
f 677/5/6 676/5/6 678/5/6
f 679/5/6 680/5/6 681/5/6
f 681/5/6 680/5/6 682/5/6
f 683/5/6 684/5/6 685/5/6
f 685/5/6 684/5/6 686/5/6
f 687/5/6 688/5/6 690/5/6
f 690/5/6 688/5/6 691/5/6
f 689/5/6 690/5/6 693/5/6
f 693/5/6 690/5/6 694/5/6
f 691/5/6 692/5/6 695/5/6
f 695/5/6 692/5/6 696/5/6
f 694/5/6 695/5/6 697/5/6
f 697/5/6 695/5/6 698/5/6
f 699/5/6 700/5/6 701/5/6
f 701/5/6 700/5/6 702/5/6
